M48
INCH,TZ
T1C0.0300
T2C0.0315
T3C0.0354
T4C0.0394
T5C0.0402
T6C0.0433
T7C0.0512
T8C0.0787
T9C0.1063
%
G90
G05
T1
X39000Y-51500
X40000Y-51500
X41000Y-51500
T2
X39000Y-39500
X39000Y-42500
X45000Y-39500
X45000Y-42500
X49031Y-38000
X51000Y-38000
X41000Y-39500
X41000Y-42500
X51500Y-33000
X51500Y-36000
X53500Y-33000
X53500Y-36000
X57000Y-38000
X60000Y-38000
X43000Y-39500
X43000Y-42500
X55500Y-33000
X55500Y-36000
X52500Y-38000
X55500Y-38000
T3
X53000Y-30500
X54000Y-30500
X50000Y-30500
X51000Y-30500
X56000Y-30500
X57000Y-30500
T4
X39000Y-24000
X39000Y-25000
X39000Y-26000
X39000Y-27000
X68500Y-24000
X68500Y-25000
X68500Y-26000
X68500Y-27000
X41000Y-16500
X41000Y-17500
X41000Y-18500
X41000Y-19500
X41000Y-20500
X41000Y-21500
X41000Y-22500
X41000Y-23500
X41000Y-24500
X66008Y-18500
X66008Y-19500
X66008Y-20500
X66008Y-21500
X66008Y-22500
X43300Y-46500
X45700Y-46500
T5
X50500Y-41500
X50500Y-50500
X51500Y-41500
X51500Y-50500
X52500Y-41500
X52500Y-50500
X53500Y-41500
X53500Y-50500
X54500Y-41500
X54500Y-50500
X55500Y-41500
X55500Y-50500
X56500Y-41500
X56500Y-50500
X57500Y-41500
X57500Y-50500
X58500Y-41500
X58500Y-50500
X59500Y-41500
X59500Y-50500
X60500Y-41500
X60500Y-50500
X61500Y-41500
X61500Y-50500
X62500Y-41500
X62500Y-50500
X63500Y-41500
X63500Y-50500
X64500Y-41500
X64500Y-50500
X65500Y-41500
X65500Y-50500
X66500Y-41500
X66500Y-50500
X67500Y-41500
X67500Y-50500
X68500Y-41500
X68500Y-50500
T6
X62000Y-35500
X62000Y-37272
X64559Y-35500
X64559Y-37272
X42500Y-35500
X42500Y-37272
X45059Y-35500
X45059Y-37272
X58000Y-33500
X58000Y-35272
X60559Y-33500
X60559Y-35272
X46500Y-33500
X46500Y-35272
X49059Y-33500
X49059Y-35272
X42500Y-31500
X42500Y-33272
X45059Y-31500
X45059Y-33272
X66000Y-33500
X66000Y-35272
X68559Y-33500
X68559Y-35272
X38500Y-33500
X38500Y-35272
X41059Y-33500
X41059Y-35272
X62000Y-31500
X62000Y-33272
X64559Y-31500
X64559Y-33272
T7
X38500Y-45500
X38500Y-47469
X40469Y-46484
T8
X39500Y-57000
X67846Y-57000
T9
X41591Y-13787
X41591Y-27213
X65685Y-13787
X65685Y-27213
T0
M30
