G04 #@! TF.GenerationSoftware,KiCad,Pcbnew,5.1.4-e60b266~84~ubuntu19.04.1*
G04 #@! TF.CreationDate,2019-11-21T14:49:26-05:00*
G04 #@! TF.ProjectId,Esp32Badge-v1,45737033-3242-4616-9467-652d76312e6b,1*
G04 #@! TF.SameCoordinates,Original*
G04 #@! TF.FileFunction,Copper,L2,Bot*
G04 #@! TF.FilePolarity,Positive*
%FSLAX46Y46*%
G04 Gerber Fmt 4.6, Leading zero omitted, Abs format (unit mm)*
G04 Created by KiCad (PCBNEW 5.1.4-e60b266~84~ubuntu19.04.1) date 2019-11-21 14:49:26*
%MOMM*%
%LPD*%
G04 APERTURE LIST*
%ADD10C,1.530000*%
%ADD11R,1.530000X1.530000*%
%ADD12R,3.500000X3.500000*%
%ADD13C,3.500000*%
%ADD14C,2.000000*%
%ADD15R,2.000000X2.000000*%
%ADD16O,1.700000X1.700000*%
%ADD17R,1.700000X1.700000*%
%ADD18C,1.600000*%
%ADD19C,1.800000*%
%ADD20R,1.800000X1.800000*%
%ADD21O,1.600000X1.600000*%
%ADD22C,2.340000*%
%ADD23C,1.524000*%
%ADD24C,4.000000*%
%ADD25C,1.500000*%
%ADD26R,1.500000X1.500000*%
%ADD27C,0.250000*%
G04 APERTURE END LIST*
D10*
X128270000Y-105410000D03*
X130810000Y-105410000D03*
X133350000Y-105410000D03*
X135890000Y-105410000D03*
X138430000Y-105410000D03*
X140970000Y-105410000D03*
X143510000Y-105410000D03*
X146050000Y-105410000D03*
X148590000Y-105410000D03*
X151130000Y-105410000D03*
X153670000Y-105410000D03*
X156210000Y-105410000D03*
X158750000Y-105410000D03*
X161290000Y-105410000D03*
X163830000Y-105410000D03*
X166370000Y-105410000D03*
X168910000Y-105410000D03*
X171450000Y-105410000D03*
X173990000Y-105410000D03*
X173990000Y-128270000D03*
X171450000Y-128270000D03*
X168910000Y-128270000D03*
X166370000Y-128270000D03*
X163830000Y-128270000D03*
X161290000Y-128270000D03*
X158750000Y-128270000D03*
X156210000Y-128270000D03*
X153670000Y-128270000D03*
X151130000Y-128270000D03*
X148590000Y-128270000D03*
X146050000Y-128270000D03*
X143510000Y-128270000D03*
X140970000Y-128270000D03*
X138430000Y-128270000D03*
X135890000Y-128270000D03*
X133350000Y-128270000D03*
X130810000Y-128270000D03*
D11*
X128270000Y-128270000D03*
D12*
X100330000Y-144780000D03*
D13*
X172330000Y-144780000D03*
D14*
X116078000Y-118110000D03*
D15*
X109982000Y-118110000D03*
D16*
X173990000Y-68580000D03*
X173990000Y-66040000D03*
X173990000Y-63500000D03*
D17*
X173990000Y-60960000D03*
D16*
X99060000Y-68580000D03*
X99060000Y-66040000D03*
X99060000Y-63500000D03*
D17*
X99060000Y-60960000D03*
D18*
X129540000Y-96520000D03*
X124540000Y-96520000D03*
D19*
X144780000Y-77470000D03*
D20*
X142240000Y-77470000D03*
D19*
X137160000Y-77470000D03*
D20*
X134620000Y-77470000D03*
D19*
X129540000Y-77470000D03*
D20*
X127000000Y-77470000D03*
D21*
X140970000Y-83820000D03*
D18*
X140970000Y-91440000D03*
D21*
X135890000Y-83820000D03*
D18*
X135890000Y-91440000D03*
D21*
X130810000Y-83820000D03*
D18*
X130810000Y-91440000D03*
D21*
X152400000Y-96520000D03*
D18*
X144780000Y-96520000D03*
D21*
X140970000Y-96520000D03*
D18*
X133350000Y-96520000D03*
D21*
X99060000Y-100330000D03*
D18*
X99060000Y-107950000D03*
D21*
X104140000Y-100330000D03*
D18*
X104140000Y-107950000D03*
D21*
X109220000Y-100330000D03*
D18*
X109220000Y-107950000D03*
D21*
X114300000Y-100330000D03*
D18*
X114300000Y-107950000D03*
D22*
X97790000Y-115570000D03*
X102790000Y-118070000D03*
X97790000Y-120570000D03*
D23*
X99060000Y-130810000D03*
X104140000Y-130810000D03*
X101600000Y-130810000D03*
D14*
X114450000Y-80010000D03*
X114450000Y-84510000D03*
X107950000Y-80010000D03*
X107950000Y-84510000D03*
X114450000Y-90170000D03*
X114450000Y-94670000D03*
X107950000Y-90170000D03*
X107950000Y-94670000D03*
X104290000Y-85090000D03*
X104290000Y-89590000D03*
X97790000Y-85090000D03*
X97790000Y-89590000D03*
X124610000Y-85090000D03*
X124610000Y-89590000D03*
X118110000Y-85090000D03*
X118110000Y-89590000D03*
X163980000Y-90170000D03*
X163980000Y-94670000D03*
X157480000Y-90170000D03*
X157480000Y-94670000D03*
X174140000Y-85090000D03*
X174140000Y-89590000D03*
X167640000Y-85090000D03*
X167640000Y-89590000D03*
X153820000Y-85090000D03*
X153820000Y-89590000D03*
X147320000Y-85090000D03*
X147320000Y-89590000D03*
X163980000Y-80010000D03*
X163980000Y-84510000D03*
X157480000Y-80010000D03*
X157480000Y-84510000D03*
D24*
X105640000Y-69120000D03*
X166840000Y-69120000D03*
X166840000Y-35020000D03*
X105640000Y-35020000D03*
D25*
X167660000Y-57150000D03*
X167660000Y-54610000D03*
X167660000Y-52070000D03*
X167660000Y-49530000D03*
X167660000Y-46990000D03*
X104140000Y-62230000D03*
X104140000Y-59690000D03*
X104140000Y-57150000D03*
X104140000Y-54610000D03*
X104140000Y-52070000D03*
X104140000Y-49530000D03*
X104140000Y-46990000D03*
X104140000Y-44450000D03*
D26*
X104140000Y-41910000D03*
D27*
X104140000Y-44450000D02*
X97390100Y-51199900D01*
X97390100Y-51199900D02*
X97390100Y-66910100D01*
X97390100Y-66910100D02*
X99060000Y-68580000D01*
X142417200Y-106502800D02*
X143510000Y-105410000D01*
X128270000Y-105410000D02*
X129362800Y-106502800D01*
X129362800Y-106502800D02*
X142417200Y-106502800D01*
X142417200Y-106502800D02*
X142417200Y-115117400D01*
X142417200Y-115117400D02*
X154940000Y-127640200D01*
X154940000Y-127640200D02*
X154940000Y-128607900D01*
X154940000Y-128607900D02*
X155695300Y-129363200D01*
X155695300Y-129363200D02*
X160196800Y-129363200D01*
X160196800Y-129363200D02*
X161290000Y-128270000D01*
X172330000Y-144780000D02*
X160196800Y-132646800D01*
X160196800Y-132646800D02*
X160196800Y-129363200D01*
X104290000Y-85090000D02*
X97790000Y-85090000D01*
X104290000Y-85090000D02*
X104290000Y-86510000D01*
X104290000Y-86510000D02*
X107950000Y-90170000D01*
X173990000Y-68580000D02*
X173990000Y-69755300D01*
X173990000Y-69755300D02*
X163980000Y-79765300D01*
X163980000Y-79765300D02*
X163980000Y-80010000D01*
X167640000Y-85090000D02*
X167640000Y-83670000D01*
X167640000Y-83670000D02*
X163980000Y-80010000D01*
X99060000Y-68580000D02*
X99060000Y-71120000D01*
X99060000Y-71120000D02*
X107950000Y-80010000D01*
X142240000Y-77470000D02*
X141014700Y-77470000D01*
X134620000Y-77470000D02*
X135845300Y-77470000D01*
X135845300Y-77470000D02*
X135845300Y-77929500D01*
X135845300Y-77929500D02*
X136611100Y-78695300D01*
X136611100Y-78695300D02*
X139789400Y-78695300D01*
X139789400Y-78695300D02*
X141014700Y-77470000D01*
X114450000Y-80010000D02*
X118110000Y-83670000D01*
X118110000Y-83670000D02*
X118110000Y-85090000D01*
X107950000Y-80010000D02*
X114450000Y-80010000D01*
X118110000Y-85090000D02*
X118110000Y-86510000D01*
X118110000Y-86510000D02*
X114450000Y-90170000D01*
X124610000Y-85090000D02*
X118110000Y-85090000D01*
X163980000Y-90170000D02*
X157480000Y-90170000D01*
X153820000Y-85090000D02*
X153820000Y-86510000D01*
X153820000Y-86510000D02*
X157480000Y-90170000D01*
X174140000Y-85090000D02*
X167640000Y-85090000D01*
X147320000Y-85090000D02*
X153820000Y-85090000D01*
X157480000Y-80010000D02*
X157480000Y-81430000D01*
X157480000Y-81430000D02*
X153820000Y-85090000D01*
X157480000Y-80010000D02*
X163980000Y-80010000D01*
X148590000Y-128270000D02*
X147477200Y-129382800D01*
X147477200Y-129382800D02*
X122580100Y-129382800D01*
X122580100Y-129382800D02*
X111307300Y-118110000D01*
X109982000Y-118110000D02*
X111307300Y-118110000D01*
X116078000Y-118110000D02*
X113538000Y-115570000D01*
X113538000Y-115570000D02*
X97790000Y-115570000D01*
X133350000Y-96520000D02*
X132210700Y-95380700D01*
X132210700Y-95380700D02*
X125679300Y-95380700D01*
X125679300Y-95380700D02*
X124540000Y-96520000D01*
X140970000Y-83820000D02*
X140970000Y-82694700D01*
X140970000Y-82694700D02*
X144780000Y-78884700D01*
X144780000Y-78884700D02*
X144780000Y-77470000D01*
X163830000Y-128270000D02*
X149860000Y-114300000D01*
X149860000Y-114300000D02*
X149860000Y-103269700D01*
X149860000Y-103269700D02*
X143149300Y-96559000D01*
X143149300Y-96559000D02*
X143149300Y-93619300D01*
X143149300Y-93619300D02*
X140970000Y-91440000D01*
X135890000Y-91440000D02*
X135890000Y-93031700D01*
X135890000Y-93031700D02*
X147320000Y-104461700D01*
X147320000Y-104461700D02*
X147320000Y-116840000D01*
X147320000Y-116840000D02*
X158750000Y-128270000D01*
X156210000Y-128270000D02*
X144780000Y-116840000D01*
X144780000Y-116840000D02*
X144780000Y-105049000D01*
X144780000Y-105049000D02*
X131171000Y-91440000D01*
X131171000Y-91440000D02*
X130810000Y-91440000D01*
X104140000Y-100330000D02*
X99060000Y-100330000D01*
X109220000Y-100330000D02*
X104140000Y-100330000D01*
X114300000Y-100330000D02*
X109220000Y-100330000D01*
X99060000Y-107950000D02*
X104800900Y-113690900D01*
X104800900Y-113690900D02*
X113214800Y-113690900D01*
X113214800Y-113690900D02*
X114991800Y-115467900D01*
X114991800Y-115467900D02*
X120547900Y-115467900D01*
X120547900Y-115467900D02*
X133350000Y-128270000D01*
X107950000Y-84510000D02*
X114450000Y-84510000D01*
X135890000Y-128270000D02*
X122478500Y-114858500D01*
X122478500Y-114858500D02*
X115321600Y-114858500D01*
X115321600Y-114858500D02*
X109922700Y-109459600D01*
X109922700Y-109459600D02*
X105649600Y-109459600D01*
X105649600Y-109459600D02*
X104140000Y-107950000D01*
X107950000Y-94670000D02*
X114450000Y-94670000D01*
X138430000Y-128270000D02*
X124568200Y-114408200D01*
X124568200Y-114408200D02*
X115678200Y-114408200D01*
X115678200Y-114408200D02*
X109220000Y-107950000D01*
X97790000Y-89590000D02*
X104290000Y-89590000D01*
X118110000Y-106045000D02*
X118745000Y-106045000D01*
X118745000Y-106045000D02*
X140970000Y-128270000D01*
X114300000Y-107950000D02*
X116205000Y-106045000D01*
X116205000Y-106045000D02*
X118110000Y-106045000D01*
X118110000Y-89590000D02*
X118110000Y-106045000D01*
X118110000Y-89590000D02*
X124610000Y-89590000D01*
X157480000Y-94670000D02*
X163980000Y-94670000D01*
X167640000Y-89590000D02*
X167640000Y-105716300D01*
X167640000Y-105716300D02*
X166852500Y-106503800D01*
X166852500Y-106503800D02*
X152223800Y-106503800D01*
X152223800Y-106503800D02*
X151130000Y-105410000D01*
X167640000Y-89590000D02*
X174140000Y-89590000D01*
X147320000Y-89590000D02*
X153820000Y-89590000D01*
X157480000Y-84510000D02*
X163980000Y-84510000D01*
X140970000Y-105410000D02*
X140970000Y-101875900D01*
X140970000Y-101875900D02*
X132852700Y-93758600D01*
X132852700Y-93758600D02*
X131462900Y-93758600D01*
X131462900Y-93758600D02*
X129485800Y-91781500D01*
X129485800Y-91781500D02*
X129485800Y-87419500D01*
X129485800Y-87419500D02*
X108106300Y-66040000D01*
X108106300Y-66040000D02*
X99060000Y-66040000D01*
X99060000Y-63500000D02*
X99060000Y-64675300D01*
X133350000Y-105410000D02*
X134508800Y-104251200D01*
X134508800Y-104251200D02*
X134508800Y-96051600D01*
X134508800Y-96051600D02*
X132891200Y-94434000D01*
X132891200Y-94434000D02*
X131501400Y-94434000D01*
X131501400Y-94434000D02*
X128876600Y-91809200D01*
X128876600Y-91809200D02*
X128876600Y-87447200D01*
X128876600Y-87447200D02*
X117856500Y-76427100D01*
X117856500Y-76427100D02*
X109607200Y-76427100D01*
X109607200Y-76427100D02*
X100490100Y-67310000D01*
X100490100Y-67310000D02*
X98649600Y-67310000D01*
X98649600Y-67310000D02*
X97884700Y-66545100D01*
X97884700Y-66545100D02*
X97884700Y-65483200D01*
X97884700Y-65483200D02*
X98692600Y-64675300D01*
X98692600Y-64675300D02*
X99060000Y-64675300D01*
X146050000Y-105410000D02*
X146050000Y-103876200D01*
X146050000Y-103876200D02*
X129936200Y-87762400D01*
X129936200Y-87762400D02*
X129936200Y-87233000D01*
X129936200Y-87233000D02*
X104933200Y-62230000D01*
X104933200Y-62230000D02*
X104140000Y-62230000D01*
X104140000Y-57150000D02*
X129089400Y-82099400D01*
X129089400Y-82099400D02*
X129089400Y-83761100D01*
X129089400Y-83761100D02*
X134174300Y-88846000D01*
X134174300Y-88846000D02*
X134890000Y-88846000D01*
X134890000Y-88846000D02*
X142095400Y-96051400D01*
X142095400Y-96051400D02*
X142095400Y-97145800D01*
X142095400Y-97145800D02*
X148590000Y-103640400D01*
X148590000Y-103640400D02*
X148590000Y-105410000D01*
X104140000Y-52070000D02*
X128225400Y-76155400D01*
X128225400Y-76155400D02*
X128225400Y-77907600D01*
X128225400Y-77907600D02*
X140433100Y-90115300D01*
X140433100Y-90115300D02*
X143455300Y-90115300D01*
X143455300Y-90115300D02*
X158750000Y-105410000D01*
X104140000Y-49530000D02*
X104140000Y-49919200D01*
X104140000Y-49919200D02*
X152080600Y-97859800D01*
X152080600Y-97859800D02*
X156279800Y-97859800D01*
X156279800Y-97859800D02*
X163830000Y-105410000D01*
X166370000Y-105410000D02*
X158369400Y-97409400D01*
X158369400Y-97409400D02*
X156895800Y-97409400D01*
X156895800Y-97409400D02*
X151226700Y-91740300D01*
X151226700Y-91740300D02*
X146627400Y-91740300D01*
X146627400Y-91740300D02*
X105803400Y-50916300D01*
X105803400Y-50916300D02*
X105803400Y-48653400D01*
X105803400Y-48653400D02*
X104140000Y-46990000D01*
M02*
