G04 #@! TF.GenerationSoftware,KiCad,Pcbnew,5.1.4-e60b266~84~ubuntu19.04.1*
G04 #@! TF.CreationDate,2019-11-21T14:49:26-05:00*
G04 #@! TF.ProjectId,Esp32Badge-v1,45737033-3242-4616-9467-652d76312e6b,1*
G04 #@! TF.SameCoordinates,Original*
G04 #@! TF.FileFunction,Legend,Bot*
G04 #@! TF.FilePolarity,Positive*
%FSLAX46Y46*%
G04 Gerber Fmt 4.6, Leading zero omitted, Abs format (unit mm)*
G04 Created by KiCad (PCBNEW 5.1.4-e60b266~84~ubuntu19.04.1) date 2019-11-21 14:49:26*
%MOMM*%
%LPD*%
G04 APERTURE LIST*
%ADD10C,0.150000*%
G04 APERTURE END LIST*
D10*
X175585238Y-54062380D02*
X175585238Y-54871904D01*
X175537619Y-54967142D01*
X175490000Y-55014761D01*
X175394761Y-55062380D01*
X175204285Y-55062380D01*
X175109047Y-55014761D01*
X175061428Y-54967142D01*
X175013809Y-54871904D01*
X175013809Y-54062380D01*
X174585238Y-54776666D02*
X174109047Y-54776666D01*
X174680476Y-55062380D02*
X174347142Y-54062380D01*
X174013809Y-55062380D01*
X173109047Y-55062380D02*
X173442380Y-54586190D01*
X173680476Y-55062380D02*
X173680476Y-54062380D01*
X173299523Y-54062380D01*
X173204285Y-54110000D01*
X173156666Y-54157619D01*
X173109047Y-54252857D01*
X173109047Y-54395714D01*
X173156666Y-54490952D01*
X173204285Y-54538571D01*
X173299523Y-54586190D01*
X173680476Y-54586190D01*
X172823333Y-54062380D02*
X172251904Y-54062380D01*
X172537619Y-55062380D02*
X172537619Y-54062380D01*
X100036190Y-55062380D02*
X100036190Y-54062380D01*
X99607619Y-54157619D02*
X99560000Y-54110000D01*
X99464761Y-54062380D01*
X99226666Y-54062380D01*
X99131428Y-54110000D01*
X99083809Y-54157619D01*
X99036190Y-54252857D01*
X99036190Y-54348095D01*
X99083809Y-54490952D01*
X99655238Y-55062380D01*
X99036190Y-55062380D01*
X98036190Y-54967142D02*
X98083809Y-55014761D01*
X98226666Y-55062380D01*
X98321904Y-55062380D01*
X98464761Y-55014761D01*
X98560000Y-54919523D01*
X98607619Y-54824285D01*
X98655238Y-54633809D01*
X98655238Y-54490952D01*
X98607619Y-54300476D01*
X98560000Y-54205238D01*
X98464761Y-54110000D01*
X98321904Y-54062380D01*
X98226666Y-54062380D01*
X98083809Y-54110000D01*
X98036190Y-54157619D01*
X99821904Y-70620000D02*
X99917142Y-70572380D01*
X100060000Y-70572380D01*
X100202857Y-70620000D01*
X100298095Y-70715238D01*
X100345714Y-70810476D01*
X100393333Y-71000952D01*
X100393333Y-71143809D01*
X100345714Y-71334285D01*
X100298095Y-71429523D01*
X100202857Y-71524761D01*
X100060000Y-71572380D01*
X99964761Y-71572380D01*
X99821904Y-71524761D01*
X99774285Y-71477142D01*
X99774285Y-71143809D01*
X99964761Y-71143809D01*
X99345714Y-71572380D02*
X99345714Y-70572380D01*
X98774285Y-71572380D01*
X98774285Y-70572380D01*
X98298095Y-71572380D02*
X98298095Y-70572380D01*
X98060000Y-70572380D01*
X97917142Y-70620000D01*
X97821904Y-70715238D01*
X97774285Y-70810476D01*
X97726666Y-71000952D01*
X97726666Y-71143809D01*
X97774285Y-71334285D01*
X97821904Y-71429523D01*
X97917142Y-71524761D01*
X98060000Y-71572380D01*
X98298095Y-71572380D01*
X103284285Y-66444761D02*
X103141428Y-66492380D01*
X102903333Y-66492380D01*
X102808095Y-66444761D01*
X102760476Y-66397142D01*
X102712857Y-66301904D01*
X102712857Y-66206666D01*
X102760476Y-66111428D01*
X102808095Y-66063809D01*
X102903333Y-66016190D01*
X103093809Y-65968571D01*
X103189047Y-65920952D01*
X103236666Y-65873333D01*
X103284285Y-65778095D01*
X103284285Y-65682857D01*
X103236666Y-65587619D01*
X103189047Y-65540000D01*
X103093809Y-65492380D01*
X102855714Y-65492380D01*
X102712857Y-65540000D01*
X102284285Y-66492380D02*
X102284285Y-65492380D01*
X102046190Y-65492380D01*
X101903333Y-65540000D01*
X101808095Y-65635238D01*
X101760476Y-65730476D01*
X101712857Y-65920952D01*
X101712857Y-66063809D01*
X101760476Y-66254285D01*
X101808095Y-66349523D01*
X101903333Y-66444761D01*
X102046190Y-66492380D01*
X102284285Y-66492380D01*
X101331904Y-66206666D02*
X100855714Y-66206666D01*
X101427142Y-66492380D02*
X101093809Y-65492380D01*
X100760476Y-66492380D01*
X103260476Y-63904761D02*
X103117619Y-63952380D01*
X102879523Y-63952380D01*
X102784285Y-63904761D01*
X102736666Y-63857142D01*
X102689047Y-63761904D01*
X102689047Y-63666666D01*
X102736666Y-63571428D01*
X102784285Y-63523809D01*
X102879523Y-63476190D01*
X103070000Y-63428571D01*
X103165238Y-63380952D01*
X103212857Y-63333333D01*
X103260476Y-63238095D01*
X103260476Y-63142857D01*
X103212857Y-63047619D01*
X103165238Y-63000000D01*
X103070000Y-62952380D01*
X102831904Y-62952380D01*
X102689047Y-63000000D01*
X101689047Y-63857142D02*
X101736666Y-63904761D01*
X101879523Y-63952380D01*
X101974761Y-63952380D01*
X102117619Y-63904761D01*
X102212857Y-63809523D01*
X102260476Y-63714285D01*
X102308095Y-63523809D01*
X102308095Y-63380952D01*
X102260476Y-63190476D01*
X102212857Y-63095238D01*
X102117619Y-63000000D01*
X101974761Y-62952380D01*
X101879523Y-62952380D01*
X101736666Y-63000000D01*
X101689047Y-63047619D01*
X100784285Y-63952380D02*
X101260476Y-63952380D01*
X101260476Y-62952380D01*
X100250476Y-57872380D02*
X99631428Y-57872380D01*
X99964761Y-58253333D01*
X99821904Y-58253333D01*
X99726666Y-58300952D01*
X99679047Y-58348571D01*
X99631428Y-58443809D01*
X99631428Y-58681904D01*
X99679047Y-58777142D01*
X99726666Y-58824761D01*
X99821904Y-58872380D01*
X100107619Y-58872380D01*
X100202857Y-58824761D01*
X100250476Y-58777142D01*
X99298095Y-58205714D02*
X99060000Y-58872380D01*
X98821904Y-58205714D01*
X98536190Y-57872380D02*
X97917142Y-57872380D01*
X98250476Y-58253333D01*
X98107619Y-58253333D01*
X98012380Y-58300952D01*
X97964761Y-58348571D01*
X97917142Y-58443809D01*
X97917142Y-58681904D01*
X97964761Y-58777142D01*
X98012380Y-58824761D01*
X98107619Y-58872380D01*
X98393333Y-58872380D01*
X98488571Y-58824761D01*
X98536190Y-58777142D01*
X174751904Y-70620000D02*
X174847142Y-70572380D01*
X174990000Y-70572380D01*
X175132857Y-70620000D01*
X175228095Y-70715238D01*
X175275714Y-70810476D01*
X175323333Y-71000952D01*
X175323333Y-71143809D01*
X175275714Y-71334285D01*
X175228095Y-71429523D01*
X175132857Y-71524761D01*
X174990000Y-71572380D01*
X174894761Y-71572380D01*
X174751904Y-71524761D01*
X174704285Y-71477142D01*
X174704285Y-71143809D01*
X174894761Y-71143809D01*
X174275714Y-71572380D02*
X174275714Y-70572380D01*
X173704285Y-71572380D01*
X173704285Y-70572380D01*
X173228095Y-71572380D02*
X173228095Y-70572380D01*
X172990000Y-70572380D01*
X172847142Y-70620000D01*
X172751904Y-70715238D01*
X172704285Y-70810476D01*
X172656666Y-71000952D01*
X172656666Y-71143809D01*
X172704285Y-71334285D01*
X172751904Y-71429523D01*
X172847142Y-71524761D01*
X172990000Y-71572380D01*
X173228095Y-71572380D01*
X175180476Y-57872380D02*
X174561428Y-57872380D01*
X174894761Y-58253333D01*
X174751904Y-58253333D01*
X174656666Y-58300952D01*
X174609047Y-58348571D01*
X174561428Y-58443809D01*
X174561428Y-58681904D01*
X174609047Y-58777142D01*
X174656666Y-58824761D01*
X174751904Y-58872380D01*
X175037619Y-58872380D01*
X175132857Y-58824761D01*
X175180476Y-58777142D01*
X174228095Y-58205714D02*
X173990000Y-58872380D01*
X173751904Y-58205714D01*
X173466190Y-57872380D02*
X172847142Y-57872380D01*
X173180476Y-58253333D01*
X173037619Y-58253333D01*
X172942380Y-58300952D01*
X172894761Y-58348571D01*
X172847142Y-58443809D01*
X172847142Y-58681904D01*
X172894761Y-58777142D01*
X172942380Y-58824761D01*
X173037619Y-58872380D01*
X173323333Y-58872380D01*
X173418571Y-58824761D01*
X173466190Y-58777142D01*
X172211904Y-65492380D02*
X171640476Y-65492380D01*
X171926190Y-66492380D02*
X171926190Y-65492380D01*
X171402380Y-65492380D02*
X170735714Y-66492380D01*
X170735714Y-65492380D02*
X171402380Y-66492380D01*
X171616666Y-63952380D02*
X171950000Y-63476190D01*
X172188095Y-63952380D02*
X172188095Y-62952380D01*
X171807142Y-62952380D01*
X171711904Y-63000000D01*
X171664285Y-63047619D01*
X171616666Y-63142857D01*
X171616666Y-63285714D01*
X171664285Y-63380952D01*
X171711904Y-63428571D01*
X171807142Y-63476190D01*
X172188095Y-63476190D01*
X171283333Y-62952380D02*
X170616666Y-63952380D01*
X170616666Y-62952380D02*
X171283333Y-63952380D01*
X172211904Y-139842857D02*
X170688095Y-139842857D01*
X101091904Y-139842857D02*
X99568095Y-139842857D01*
X100330000Y-140604761D02*
X100330000Y-139080952D01*
M02*
