G04 #@! TF.GenerationSoftware,KiCad,Pcbnew,5.1.4-e60b266~84~ubuntu19.04.1*
G04 #@! TF.CreationDate,2019-11-15T10:56:37-05:00*
G04 #@! TF.ProjectId,Esp32Badge-v1,45737033-3242-4616-9467-652d76312e6b,1*
G04 #@! TF.SameCoordinates,Original*
G04 #@! TF.FileFunction,Copper,L2,Bot*
G04 #@! TF.FilePolarity,Positive*
%FSLAX46Y46*%
G04 Gerber Fmt 4.6, Leading zero omitted, Abs format (unit mm)*
G04 Created by KiCad (PCBNEW 5.1.4-e60b266~84~ubuntu19.04.1) date 2019-11-15 10:56:37*
%MOMM*%
%LPD*%
G04 APERTURE LIST*
%ADD10C,2.000000*%
%ADD11R,2.000000X2.000000*%
%ADD12R,1.524000X1.524000*%
%ADD13C,1.524000*%
%ADD14O,1.700000X1.700000*%
%ADD15R,1.700000X1.700000*%
%ADD16R,3.500000X3.500000*%
%ADD17C,3.500000*%
%ADD18C,1.600000*%
%ADD19C,1.800000*%
%ADD20R,1.800000X1.800000*%
%ADD21O,1.600000X1.600000*%
%ADD22C,2.340000*%
%ADD23C,4.000000*%
%ADD24C,1.500000*%
%ADD25R,1.500000X1.500000*%
%ADD26C,0.800000*%
%ADD27C,0.250000*%
G04 APERTURE END LIST*
D10*
X116078000Y-118110000D03*
D11*
X109982000Y-118110000D03*
D12*
X163830000Y-128270000D03*
D13*
X161290000Y-128270000D03*
X158750000Y-128270000D03*
X156210000Y-128270000D03*
X153670000Y-128270000D03*
X151130000Y-128270000D03*
X148590000Y-128270000D03*
X146050000Y-128270000D03*
X143510000Y-128270000D03*
X140970000Y-128270000D03*
X138430000Y-128270000D03*
X135890000Y-128270000D03*
X133350000Y-128270000D03*
X130810000Y-128270000D03*
X128270000Y-102870000D03*
X130810000Y-102870000D03*
X133350000Y-102870000D03*
X135890000Y-102870000D03*
X138430000Y-102870000D03*
X140970000Y-102870000D03*
X143510000Y-102870000D03*
X146050000Y-102870000D03*
X148590000Y-102870000D03*
X151130000Y-102870000D03*
X153670000Y-102870000D03*
X156210000Y-102870000D03*
X158750000Y-102870000D03*
X161290000Y-102870000D03*
D12*
X163830000Y-102870000D03*
D13*
X128270000Y-128270000D03*
D14*
X173990000Y-68580000D03*
X173990000Y-66040000D03*
X173990000Y-63500000D03*
D15*
X173990000Y-60960000D03*
D14*
X99060000Y-68580000D03*
X99060000Y-66040000D03*
X99060000Y-63500000D03*
D15*
X99060000Y-60960000D03*
D16*
X100330000Y-144780000D03*
D17*
X172330000Y-144780000D03*
D18*
X129540000Y-96520000D03*
X124540000Y-96520000D03*
D19*
X144780000Y-77470000D03*
D20*
X142240000Y-77470000D03*
D19*
X137160000Y-77470000D03*
D20*
X134620000Y-77470000D03*
D19*
X129540000Y-77470000D03*
D20*
X127000000Y-77470000D03*
D21*
X140970000Y-83820000D03*
D18*
X140970000Y-91440000D03*
D21*
X135890000Y-83820000D03*
D18*
X135890000Y-91440000D03*
D21*
X130810000Y-83820000D03*
D18*
X130810000Y-91440000D03*
D21*
X152400000Y-96520000D03*
D18*
X144780000Y-96520000D03*
D21*
X140970000Y-96520000D03*
D18*
X133350000Y-96520000D03*
D21*
X99060000Y-100330000D03*
D18*
X99060000Y-107950000D03*
D21*
X104140000Y-100330000D03*
D18*
X104140000Y-107950000D03*
D21*
X109220000Y-100330000D03*
D18*
X109220000Y-107950000D03*
D21*
X114300000Y-100330000D03*
D18*
X114300000Y-107950000D03*
D22*
X97790000Y-115570000D03*
X102790000Y-118070000D03*
X97790000Y-120570000D03*
D13*
X99060000Y-130810000D03*
X104140000Y-130810000D03*
X101600000Y-130810000D03*
D10*
X114450000Y-80010000D03*
X114450000Y-84510000D03*
X107950000Y-80010000D03*
X107950000Y-84510000D03*
X114450000Y-90170000D03*
X114450000Y-94670000D03*
X107950000Y-90170000D03*
X107950000Y-94670000D03*
X104290000Y-85090000D03*
X104290000Y-89590000D03*
X97790000Y-85090000D03*
X97790000Y-89590000D03*
X124610000Y-85090000D03*
X124610000Y-89590000D03*
X118110000Y-85090000D03*
X118110000Y-89590000D03*
X163980000Y-90170000D03*
X163980000Y-94670000D03*
X157480000Y-90170000D03*
X157480000Y-94670000D03*
X174140000Y-85090000D03*
X174140000Y-89590000D03*
X167640000Y-85090000D03*
X167640000Y-89590000D03*
X153820000Y-85090000D03*
X153820000Y-89590000D03*
X147320000Y-85090000D03*
X147320000Y-89590000D03*
X163980000Y-80010000D03*
X163980000Y-84510000D03*
X157480000Y-80010000D03*
X157480000Y-84510000D03*
D23*
X167410000Y-35020000D03*
X106210000Y-35020000D03*
X106210000Y-69120000D03*
X167410000Y-69120000D03*
D24*
X105390000Y-46990000D03*
X105390000Y-49530000D03*
X105390000Y-52070000D03*
X105390000Y-54610000D03*
X105390000Y-57150000D03*
X168910000Y-41910000D03*
X168910000Y-44450000D03*
X168910000Y-46990000D03*
X168910000Y-49530000D03*
X168910000Y-52070000D03*
X168910000Y-54610000D03*
X168910000Y-57150000D03*
X168910000Y-59690000D03*
D25*
X168910000Y-62230000D03*
D26*
X152393000Y-120976000D03*
X110490000Y-67310000D03*
X162560000Y-106680000D03*
X151130000Y-107950000D03*
X151130000Y-105410000D03*
X162560000Y-105410000D03*
D27*
X105570000Y-82390000D02*
X99060000Y-75880000D01*
X99060000Y-75880000D02*
X99060000Y-68580000D01*
X167640000Y-85090000D02*
X174140000Y-85090000D01*
X163980000Y-90170000D02*
X163980000Y-88750000D01*
X163980000Y-88750000D02*
X167640000Y-85090000D01*
X118110000Y-85090000D02*
X124610000Y-85090000D01*
X114450000Y-90170000D02*
X114450000Y-88750000D01*
X114450000Y-88750000D02*
X118110000Y-85090000D01*
X153820000Y-85090000D02*
X157480000Y-88750000D01*
X157480000Y-88750000D02*
X157480000Y-90170000D01*
X157480000Y-80010000D02*
X153820000Y-83670000D01*
X153820000Y-83670000D02*
X153820000Y-85090000D01*
X127000000Y-77470000D02*
X128225000Y-77470000D01*
X128225000Y-77470000D02*
X128225000Y-77010500D01*
X128225000Y-77010500D02*
X128991000Y-76244700D01*
X128991000Y-76244700D02*
X132169000Y-76244700D01*
X132169000Y-76244700D02*
X133395000Y-77470000D01*
X133395000Y-77470000D02*
X134620000Y-77470000D01*
X134620000Y-77470000D02*
X135845000Y-77470000D01*
X135845000Y-77470000D02*
X135845000Y-77010500D01*
X135845000Y-77010500D02*
X136611000Y-76244700D01*
X136611000Y-76244700D02*
X139789000Y-76244700D01*
X139789000Y-76244700D02*
X141015000Y-77470000D01*
X141015000Y-77470000D02*
X142240000Y-77470000D01*
X163980000Y-90170000D02*
X157480000Y-90170000D01*
X157480000Y-80010000D02*
X163980000Y-80010000D01*
X104290000Y-85090000D02*
X97790000Y-85090000D01*
X153820000Y-85090000D02*
X147320000Y-85090000D01*
X118110000Y-85090000D02*
X118110000Y-83670000D01*
X118110000Y-83670000D02*
X114450000Y-80010000D01*
X114450000Y-80010000D02*
X107950000Y-80010000D01*
X107950000Y-80010000D02*
X105570000Y-82390000D01*
X105570000Y-82390000D02*
X104290000Y-83670000D01*
X104290000Y-83670000D02*
X104290000Y-85090000D01*
X175465001Y-70055001D02*
X175465001Y-83614999D01*
X173990000Y-68580000D02*
X175465001Y-70055001D01*
X175465001Y-83614999D02*
X173990000Y-85090000D01*
X146050000Y-128270000D02*
X144963000Y-129357000D01*
X144963000Y-129357000D02*
X130350000Y-129357000D01*
X130350000Y-129357000D02*
X129540000Y-128547000D01*
X129540000Y-128547000D02*
X129540000Y-128002000D01*
X129540000Y-128002000D02*
X120973000Y-119435000D01*
X120973000Y-119435000D02*
X113141000Y-119435000D01*
X113141000Y-119435000D02*
X111815000Y-118110000D01*
X111815000Y-118110000D02*
X110490000Y-118110000D01*
X97790000Y-115570000D02*
X112950000Y-115570000D01*
X112950000Y-115570000D02*
X115490000Y-118110000D01*
X133350000Y-96520000D02*
X134475000Y-95394700D01*
X134475000Y-95394700D02*
X150149000Y-95394700D01*
X150149000Y-95394700D02*
X151275000Y-96520000D01*
X151275000Y-96520000D02*
X152400000Y-96520000D01*
X140970000Y-83820000D02*
X140970000Y-82694700D01*
X140970000Y-82694700D02*
X144780000Y-78884700D01*
X144780000Y-78884700D02*
X144780000Y-77470000D01*
X135890000Y-83820000D02*
X135890000Y-82694700D01*
X135890000Y-82694700D02*
X137160000Y-81424700D01*
X137160000Y-81424700D02*
X137160000Y-77470000D01*
X114300000Y-100330000D02*
X109220000Y-100330000D01*
X163830000Y-102870000D02*
X162743000Y-102870000D01*
X162743000Y-102870000D02*
X162743000Y-103006000D01*
X162743000Y-103006000D02*
X161747000Y-104001000D01*
X161747000Y-104001000D02*
X145574000Y-104001000D01*
X145574000Y-104001000D02*
X144780000Y-103208000D01*
X109220000Y-100330000D02*
X104140000Y-100330000D01*
X99060000Y-100330000D02*
X104140000Y-100330000D01*
X114300000Y-100330000D02*
X115425000Y-100330000D01*
X115425000Y-100330000D02*
X119053000Y-103957000D01*
X119053000Y-103957000D02*
X144030000Y-103957000D01*
X144030000Y-103957000D02*
X144780000Y-103208000D01*
X144780000Y-103208000D02*
X144780000Y-96520000D01*
X107950000Y-84510000D02*
X114450000Y-84510000D01*
X130810000Y-128270000D02*
X116615000Y-114075000D01*
X116615000Y-114075000D02*
X105185000Y-114075000D01*
X105185000Y-114075000D02*
X99060000Y-107950000D01*
X133350000Y-128270000D02*
X117808000Y-112728000D01*
X117808000Y-112728000D02*
X108918000Y-112728000D01*
X108918000Y-112728000D02*
X104140000Y-107950000D01*
X107950000Y-94670000D02*
X114450000Y-94670000D01*
X104290000Y-89590000D02*
X97790000Y-89590000D01*
X135890000Y-128270000D02*
X117562000Y-109942000D01*
X117562000Y-109942000D02*
X111212000Y-109942000D01*
X111212000Y-109942000D02*
X109220000Y-107950000D01*
X163830000Y-128270000D02*
X162743000Y-128270000D01*
X162743000Y-128270000D02*
X162743000Y-128406000D01*
X162743000Y-128406000D02*
X161323000Y-129826000D01*
X161323000Y-129826000D02*
X104783000Y-129826000D01*
X104783000Y-129826000D02*
X104644000Y-129687000D01*
X104644000Y-129687000D02*
X102723000Y-129687000D01*
X102723000Y-129687000D02*
X101600000Y-130810000D01*
X143510000Y-128270000D02*
X164917000Y-106863000D01*
X164917000Y-106863000D02*
X164917000Y-95607400D01*
X164917000Y-95607400D02*
X163980000Y-94670000D01*
X163980000Y-94670000D02*
X157480000Y-94670000D01*
X146050000Y-102870000D02*
X150397000Y-98522900D01*
X150397000Y-98522900D02*
X151997000Y-98522900D01*
X151997000Y-98522900D02*
X155204000Y-95316100D01*
X155204000Y-95316100D02*
X155204000Y-95064300D01*
X155204000Y-95064300D02*
X158192000Y-92076100D01*
X158192000Y-92076100D02*
X165154000Y-92076100D01*
X165154000Y-92076100D02*
X167640000Y-89590000D01*
X167640000Y-89590000D02*
X174140000Y-89590000D01*
X148590000Y-128270000D02*
X152393000Y-124467000D01*
X152393000Y-124467000D02*
X152393000Y-120976000D01*
X153820000Y-89590000D02*
X147320000Y-89590000D01*
X157480000Y-84510000D02*
X163980000Y-84510000D01*
X110490000Y-67310000D02*
X109220000Y-66040000D01*
X109220000Y-66040000D02*
X99060000Y-66040000D01*
X168910000Y-49530000D02*
X151721000Y-66719300D01*
X151721000Y-66719300D02*
X151721000Y-74698600D01*
X151721000Y-74698600D02*
X136394000Y-90025400D01*
X136394000Y-90025400D02*
X135681000Y-90025400D01*
X135681000Y-90025400D02*
X131445000Y-94261400D01*
X131445000Y-94261400D02*
X131445000Y-99694900D01*
X131445000Y-99694900D02*
X128270000Y-102870000D01*
X161290000Y-107950000D02*
X162560000Y-106680000D01*
X151130000Y-107950000D02*
X161290000Y-107950000D01*
X162560000Y-105410000D02*
X162560000Y-105410000D01*
X151130000Y-105410000D02*
X152400000Y-106680000D01*
X161290000Y-106680000D02*
X162560000Y-105410000D01*
X152400000Y-106680000D02*
X161290000Y-106680000D01*
M02*
