G04 #@! TF.GenerationSoftware,KiCad,Pcbnew,5.1.4-e60b266~84~ubuntu19.04.1*
G04 #@! TF.CreationDate,2019-11-15T10:56:37-05:00*
G04 #@! TF.ProjectId,Esp32Badge-v1,45737033-3242-4616-9467-652d76312e6b,1*
G04 #@! TF.SameCoordinates,Original*
G04 #@! TF.FileFunction,Copper,L1,Top*
G04 #@! TF.FilePolarity,Positive*
%FSLAX46Y46*%
G04 Gerber Fmt 4.6, Leading zero omitted, Abs format (unit mm)*
G04 Created by KiCad (PCBNEW 5.1.4-e60b266~84~ubuntu19.04.1) date 2019-11-15 10:56:37*
%MOMM*%
%LPD*%
G04 APERTURE LIST*
%ADD10C,2.000000*%
%ADD11R,2.000000X2.000000*%
%ADD12R,1.524000X1.524000*%
%ADD13C,1.524000*%
%ADD14O,1.700000X1.700000*%
%ADD15R,1.700000X1.700000*%
%ADD16R,3.500000X3.500000*%
%ADD17C,3.500000*%
%ADD18C,1.600000*%
%ADD19C,1.800000*%
%ADD20R,1.800000X1.800000*%
%ADD21O,1.600000X1.600000*%
%ADD22C,2.340000*%
%ADD23C,4.000000*%
%ADD24C,1.500000*%
%ADD25R,1.500000X1.500000*%
%ADD26C,0.800000*%
%ADD27C,0.250000*%
G04 APERTURE END LIST*
D10*
X116078000Y-118110000D03*
D11*
X109982000Y-118110000D03*
D12*
X163830000Y-128270000D03*
D13*
X161290000Y-128270000D03*
X158750000Y-128270000D03*
X156210000Y-128270000D03*
X153670000Y-128270000D03*
X151130000Y-128270000D03*
X148590000Y-128270000D03*
X146050000Y-128270000D03*
X143510000Y-128270000D03*
X140970000Y-128270000D03*
X138430000Y-128270000D03*
X135890000Y-128270000D03*
X133350000Y-128270000D03*
X130810000Y-128270000D03*
X128270000Y-102870000D03*
X130810000Y-102870000D03*
X133350000Y-102870000D03*
X135890000Y-102870000D03*
X138430000Y-102870000D03*
X140970000Y-102870000D03*
X143510000Y-102870000D03*
X146050000Y-102870000D03*
X148590000Y-102870000D03*
X151130000Y-102870000D03*
X153670000Y-102870000D03*
X156210000Y-102870000D03*
X158750000Y-102870000D03*
X161290000Y-102870000D03*
D12*
X163830000Y-102870000D03*
D13*
X128270000Y-128270000D03*
D14*
X173990000Y-68580000D03*
X173990000Y-66040000D03*
X173990000Y-63500000D03*
D15*
X173990000Y-60960000D03*
D14*
X99060000Y-68580000D03*
X99060000Y-66040000D03*
X99060000Y-63500000D03*
D15*
X99060000Y-60960000D03*
D16*
X100330000Y-144780000D03*
D17*
X172330000Y-144780000D03*
D18*
X129540000Y-96520000D03*
X124540000Y-96520000D03*
D19*
X144780000Y-77470000D03*
D20*
X142240000Y-77470000D03*
D19*
X137160000Y-77470000D03*
D20*
X134620000Y-77470000D03*
D19*
X129540000Y-77470000D03*
D20*
X127000000Y-77470000D03*
D21*
X140970000Y-83820000D03*
D18*
X140970000Y-91440000D03*
D21*
X135890000Y-83820000D03*
D18*
X135890000Y-91440000D03*
D21*
X130810000Y-83820000D03*
D18*
X130810000Y-91440000D03*
D21*
X152400000Y-96520000D03*
D18*
X144780000Y-96520000D03*
D21*
X140970000Y-96520000D03*
D18*
X133350000Y-96520000D03*
D21*
X99060000Y-100330000D03*
D18*
X99060000Y-107950000D03*
D21*
X104140000Y-100330000D03*
D18*
X104140000Y-107950000D03*
D21*
X109220000Y-100330000D03*
D18*
X109220000Y-107950000D03*
D21*
X114300000Y-100330000D03*
D18*
X114300000Y-107950000D03*
D22*
X97790000Y-115570000D03*
X102790000Y-118070000D03*
X97790000Y-120570000D03*
D13*
X99060000Y-130810000D03*
X104140000Y-130810000D03*
X101600000Y-130810000D03*
D10*
X114450000Y-80010000D03*
X114450000Y-84510000D03*
X107950000Y-80010000D03*
X107950000Y-84510000D03*
X114450000Y-90170000D03*
X114450000Y-94670000D03*
X107950000Y-90170000D03*
X107950000Y-94670000D03*
X104290000Y-85090000D03*
X104290000Y-89590000D03*
X97790000Y-85090000D03*
X97790000Y-89590000D03*
X124610000Y-85090000D03*
X124610000Y-89590000D03*
X118110000Y-85090000D03*
X118110000Y-89590000D03*
X163980000Y-90170000D03*
X163980000Y-94670000D03*
X157480000Y-90170000D03*
X157480000Y-94670000D03*
X174140000Y-85090000D03*
X174140000Y-89590000D03*
X167640000Y-85090000D03*
X167640000Y-89590000D03*
X153820000Y-85090000D03*
X153820000Y-89590000D03*
X147320000Y-85090000D03*
X147320000Y-89590000D03*
X163980000Y-80010000D03*
X163980000Y-84510000D03*
X157480000Y-80010000D03*
X157480000Y-84510000D03*
D23*
X167410000Y-35020000D03*
X106210000Y-35020000D03*
X106210000Y-69120000D03*
X167410000Y-69120000D03*
D24*
X105390000Y-46990000D03*
X105390000Y-49530000D03*
X105390000Y-52070000D03*
X105390000Y-54610000D03*
X105390000Y-57150000D03*
X168910000Y-41910000D03*
X168910000Y-44450000D03*
X168910000Y-46990000D03*
X168910000Y-49530000D03*
X168910000Y-52070000D03*
X168910000Y-54610000D03*
X168910000Y-57150000D03*
X168910000Y-59690000D03*
D25*
X168910000Y-62230000D03*
D26*
X152393000Y-120976000D03*
X110490000Y-67310000D03*
X162560000Y-106680000D03*
X151130000Y-107950000D03*
X151130000Y-105410000D03*
X162560000Y-105410000D03*
D27*
X124610000Y-85090000D02*
X129540000Y-90020000D01*
X129540000Y-90020000D02*
X129540000Y-96520000D01*
X127000000Y-77470000D02*
X127000000Y-78695300D01*
X127000000Y-78695300D02*
X124610000Y-81085300D01*
X124610000Y-81085300D02*
X124610000Y-85090000D01*
X110817000Y-91515000D02*
X109295000Y-91515000D01*
X109295000Y-91515000D02*
X107950000Y-90170000D01*
X114450000Y-90170000D02*
X113105000Y-91515000D01*
X113105000Y-91515000D02*
X110817000Y-91515000D01*
X163980000Y-90170000D02*
X161290000Y-92860000D01*
X161290000Y-92860000D02*
X161290000Y-102870000D01*
X102790000Y-118070000D02*
X110817000Y-110043000D01*
X110817000Y-110043000D02*
X110817000Y-91515000D01*
X161290000Y-102870000D02*
X161290000Y-128270000D01*
X161290000Y-128270000D02*
X161290000Y-135010000D01*
X161290000Y-135010000D02*
X171060000Y-144780000D01*
X140970000Y-96520000D02*
X140970000Y-95394700D01*
X140970000Y-95394700D02*
X142095000Y-94269400D01*
X142095000Y-94269400D02*
X142095000Y-90314700D01*
X142095000Y-90314700D02*
X147320000Y-85090000D01*
X147320000Y-85090000D02*
X142240000Y-80010000D01*
X142240000Y-80010000D02*
X142240000Y-77470000D01*
X168910000Y-59690000D02*
X163980000Y-64620000D01*
X163980000Y-64620000D02*
X163980000Y-80010000D01*
X104140000Y-130810000D02*
X104140000Y-137625000D01*
X104140000Y-137625000D02*
X100330000Y-141435000D01*
X100330000Y-141435000D02*
X100330000Y-144780000D01*
X132207000Y-97662800D02*
X125683000Y-97662800D01*
X125683000Y-97662800D02*
X124540000Y-96520000D01*
X133350000Y-96520000D02*
X132207000Y-97662800D01*
X140970000Y-128270000D02*
X132207000Y-119507000D01*
X132207000Y-119507000D02*
X132207000Y-97662800D01*
X130810000Y-83820000D02*
X130810000Y-82694700D01*
X130810000Y-82694700D02*
X129540000Y-81424700D01*
X129540000Y-81424700D02*
X129540000Y-77470000D01*
X140970000Y-91440000D02*
X139795000Y-92614600D01*
X139795000Y-92614600D02*
X139795000Y-109405000D01*
X139795000Y-109405000D02*
X158661000Y-128270000D01*
X158661000Y-128270000D02*
X158750000Y-128270000D01*
X156210000Y-128270000D02*
X137160000Y-109220000D01*
X137160000Y-109220000D02*
X137160000Y-92710000D01*
X137160000Y-92710000D02*
X135890000Y-91440000D01*
X153670000Y-128270000D02*
X134765000Y-109365000D01*
X134765000Y-109365000D02*
X134765000Y-95394600D01*
X134765000Y-95394600D02*
X130810000Y-91440000D01*
X168910000Y-44450000D02*
X169985000Y-45525300D01*
X169985000Y-45525300D02*
X169985000Y-60213900D01*
X169985000Y-60213900D02*
X169044000Y-61154700D01*
X169044000Y-61154700D02*
X168910000Y-61154700D01*
X168910000Y-61154700D02*
X168910000Y-62230000D01*
X168910000Y-62230000D02*
X168910000Y-63305300D01*
X168910000Y-63305300D02*
X169782000Y-64177800D01*
X169782000Y-64177800D02*
X169782000Y-95830200D01*
X169782000Y-95830200D02*
X163830000Y-101783000D01*
X163830000Y-101783000D02*
X163830000Y-102870000D01*
X99810300Y-60960000D02*
X99060000Y-60960000D01*
X98309700Y-60351400D02*
X98453800Y-60207300D01*
X101600000Y-97790000D02*
X99060000Y-100330000D01*
X99060000Y-60960000D02*
X97790000Y-60960000D01*
X96464999Y-62285001D02*
X96464999Y-76144999D01*
X97790000Y-60960000D02*
X96464999Y-62285001D01*
X101600000Y-81280000D02*
X101600000Y-97790000D01*
X96464999Y-76144999D02*
X101600000Y-81280000D01*
X169180000Y-60960000D02*
X168910000Y-61230000D01*
X173990000Y-60960000D02*
X169180000Y-60960000D01*
X168910000Y-61230000D02*
X168910000Y-62230000D01*
X99060000Y-107950000D02*
X102901000Y-104109000D01*
X102901000Y-104109000D02*
X102901000Y-89097600D01*
X102901000Y-89097600D02*
X107489000Y-84510000D01*
X107489000Y-84510000D02*
X107950000Y-84510000D01*
X104140000Y-107950000D02*
X107950000Y-104140000D01*
X107950000Y-104140000D02*
X107950000Y-94670000D01*
X109220000Y-107950000D02*
X110366000Y-106804000D01*
X110366000Y-106804000D02*
X110366000Y-95198800D01*
X110366000Y-95198800D02*
X104758000Y-89590000D01*
X104758000Y-89590000D02*
X104290000Y-89590000D01*
X118110000Y-107950000D02*
X114300000Y-107950000D01*
X138430000Y-128270000D02*
X118110000Y-107950000D01*
X118110000Y-89590000D02*
X118110000Y-107950000D01*
X118110000Y-89590000D02*
X124610000Y-89590000D01*
X152393000Y-120976000D02*
X152393000Y-98711400D01*
X152393000Y-98711400D02*
X153820000Y-97284300D01*
X153820000Y-97284300D02*
X153820000Y-89590000D01*
X151130000Y-128270000D02*
X152233000Y-129373000D01*
X152233000Y-129373000D02*
X159189000Y-129373000D01*
X159189000Y-129373000D02*
X159864000Y-128698000D01*
X159864000Y-128698000D02*
X159864000Y-127422000D01*
X159864000Y-127422000D02*
X155113000Y-122670000D01*
X155113000Y-122670000D02*
X155113000Y-99999200D01*
X155113000Y-99999200D02*
X155808000Y-99304000D01*
X155808000Y-99304000D02*
X155808000Y-86182000D01*
X155808000Y-86182000D02*
X157480000Y-84510000D01*
X168910000Y-57150000D02*
X160714000Y-65345600D01*
X160714000Y-65345600D02*
X160714000Y-100906000D01*
X160714000Y-100906000D02*
X158750000Y-102870000D01*
X156210000Y-102870000D02*
X159423000Y-99656600D01*
X159423000Y-99656600D02*
X159423000Y-64096600D01*
X159423000Y-64096600D02*
X168910000Y-54610000D01*
X153670000Y-102870000D02*
X153670000Y-98148000D01*
X153670000Y-98148000D02*
X155330000Y-96488500D01*
X155330000Y-96488500D02*
X155330000Y-65650500D01*
X155330000Y-65650500D02*
X168910000Y-52070000D01*
X168910000Y-46990000D02*
X151901000Y-63998600D01*
X151901000Y-63998600D02*
X151901000Y-94478600D01*
X151901000Y-94478600D02*
X143510000Y-102870000D01*
X168910000Y-41910000D02*
X151099000Y-59721400D01*
X151099000Y-59721400D02*
X151099000Y-92741400D01*
X151099000Y-92741400D02*
X140970000Y-102870000D01*
X138430000Y-85090000D02*
X138430000Y-72390000D01*
X138430000Y-85090000D02*
X138430000Y-102870000D01*
X138430000Y-84608600D02*
X138430000Y-85090000D01*
X138430000Y-72390000D02*
X133350000Y-67310000D01*
X133350000Y-67310000D02*
X110490000Y-67310000D01*
X110490000Y-67310000D02*
X110490000Y-67310000D01*
X123141000Y-82754400D02*
X123141000Y-85707900D01*
X123141000Y-85707900D02*
X125996000Y-88563300D01*
X125996000Y-88563300D02*
X125996000Y-91871300D01*
X125996000Y-91871300D02*
X123412000Y-94455900D01*
X123412000Y-94455900D02*
X123412000Y-96983400D01*
X123412000Y-96983400D02*
X127324000Y-100896000D01*
X127324000Y-100896000D02*
X128836000Y-100896000D01*
X128836000Y-100896000D02*
X130810000Y-102870000D01*
X109764999Y-69378399D02*
X109764999Y-67854999D01*
X123141000Y-82754400D02*
X109764999Y-69378399D01*
X109764999Y-67854999D02*
X105410000Y-63500000D01*
X105410000Y-63500000D02*
X99060000Y-63500000D01*
X148590000Y-105410000D02*
X151130000Y-107950000D01*
X148590000Y-102870000D02*
X148590000Y-105410000D01*
X175465001Y-96816289D02*
X175465001Y-67515001D01*
X162560000Y-106680000D02*
X165601290Y-106680000D01*
X165601290Y-106680000D02*
X175465001Y-96816289D01*
X175465001Y-67515001D02*
X173990000Y-66040000D01*
X151130000Y-102870000D02*
X151130000Y-105410000D01*
X151130000Y-105410000D02*
X151130000Y-105410000D01*
X170918689Y-95339396D02*
X170918689Y-66571311D01*
X165100000Y-101158085D02*
X170918689Y-95339396D01*
X163399002Y-105410000D02*
X165100000Y-103709002D01*
X162560000Y-105410000D02*
X163399002Y-105410000D01*
X165100000Y-103709002D02*
X165100000Y-101158085D01*
X170918689Y-66571311D02*
X173990000Y-63500000D01*
M02*
