G04 #@! TF.GenerationSoftware,KiCad,Pcbnew,5.1.4-e60b266~84~ubuntu19.04.1*
G04 #@! TF.CreationDate,2019-11-15T10:56:37-05:00*
G04 #@! TF.ProjectId,Esp32Badge-v1,45737033-3242-4616-9467-652d76312e6b,1*
G04 #@! TF.SameCoordinates,Original*
G04 #@! TF.FileFunction,Soldermask,Bot*
G04 #@! TF.FilePolarity,Negative*
%FSLAX46Y46*%
G04 Gerber Fmt 4.6, Leading zero omitted, Abs format (unit mm)*
G04 Created by KiCad (PCBNEW 5.1.4-e60b266~84~ubuntu19.04.1) date 2019-11-15 10:56:37*
%MOMM*%
%LPD*%
G04 APERTURE LIST*
%ADD10C,0.100000*%
G04 APERTURE END LIST*
D10*
G36*
X172855331Y-143048211D02*
G01*
X173183092Y-143183974D01*
X173478070Y-143381072D01*
X173728928Y-143631930D01*
X173926026Y-143926908D01*
X174061789Y-144254669D01*
X174131000Y-144602616D01*
X174131000Y-144957384D01*
X174061789Y-145305331D01*
X173926026Y-145633092D01*
X173728928Y-145928070D01*
X173478070Y-146178928D01*
X173183092Y-146376026D01*
X172855331Y-146511789D01*
X172507384Y-146581000D01*
X172152616Y-146581000D01*
X171804669Y-146511789D01*
X171476908Y-146376026D01*
X171181930Y-146178928D01*
X170931072Y-145928070D01*
X170733974Y-145633092D01*
X170598211Y-145305331D01*
X170529000Y-144957384D01*
X170529000Y-144602616D01*
X170598211Y-144254669D01*
X170733974Y-143926908D01*
X170931072Y-143631930D01*
X171181930Y-143381072D01*
X171476908Y-143183974D01*
X171804669Y-143048211D01*
X172152616Y-142979000D01*
X172507384Y-142979000D01*
X172855331Y-143048211D01*
X172855331Y-143048211D01*
G37*
G36*
X102131000Y-146581000D02*
G01*
X98529000Y-146581000D01*
X98529000Y-142979000D01*
X102131000Y-142979000D01*
X102131000Y-146581000D01*
X102131000Y-146581000D01*
G37*
G36*
X164960256Y-143171298D02*
G01*
X165066579Y-143192447D01*
X165367042Y-143316903D01*
X165637451Y-143497585D01*
X165867415Y-143727549D01*
X166048097Y-143997958D01*
X166048098Y-143997960D01*
X166172553Y-144298422D01*
X166236000Y-144617389D01*
X166236000Y-144942611D01*
X166233061Y-144957384D01*
X166172553Y-145261579D01*
X166048097Y-145562042D01*
X165867415Y-145832451D01*
X165637451Y-146062415D01*
X165367042Y-146243097D01*
X165066579Y-146367553D01*
X165023987Y-146376025D01*
X164747611Y-146431000D01*
X164422389Y-146431000D01*
X164146013Y-146376025D01*
X164103421Y-146367553D01*
X163802958Y-146243097D01*
X163532549Y-146062415D01*
X163302585Y-145832451D01*
X163121903Y-145562042D01*
X162997447Y-145261579D01*
X162936939Y-144957384D01*
X162934000Y-144942611D01*
X162934000Y-144617389D01*
X162997447Y-144298422D01*
X163121902Y-143997960D01*
X163121903Y-143997958D01*
X163302585Y-143727549D01*
X163532549Y-143497585D01*
X163802958Y-143316903D01*
X164103421Y-143192447D01*
X164209744Y-143171298D01*
X164422389Y-143129000D01*
X164747611Y-143129000D01*
X164960256Y-143171298D01*
X164960256Y-143171298D01*
G37*
G36*
X109350256Y-143171298D02*
G01*
X109456579Y-143192447D01*
X109757042Y-143316903D01*
X110027451Y-143497585D01*
X110257415Y-143727549D01*
X110438097Y-143997958D01*
X110438098Y-143997960D01*
X110562553Y-144298422D01*
X110626000Y-144617389D01*
X110626000Y-144942611D01*
X110623061Y-144957384D01*
X110562553Y-145261579D01*
X110438097Y-145562042D01*
X110257415Y-145832451D01*
X110027451Y-146062415D01*
X109757042Y-146243097D01*
X109456579Y-146367553D01*
X109413987Y-146376025D01*
X109137611Y-146431000D01*
X108812389Y-146431000D01*
X108536013Y-146376025D01*
X108493421Y-146367553D01*
X108192958Y-146243097D01*
X107922549Y-146062415D01*
X107692585Y-145832451D01*
X107511903Y-145562042D01*
X107387447Y-145261579D01*
X107326939Y-144957384D01*
X107324000Y-144942611D01*
X107324000Y-144617389D01*
X107387447Y-144298422D01*
X107511902Y-143997960D01*
X107511903Y-143997958D01*
X107692585Y-143727549D01*
X107922549Y-143497585D01*
X108192958Y-143316903D01*
X108493421Y-143192447D01*
X108599744Y-143171298D01*
X108812389Y-143129000D01*
X109137611Y-143129000D01*
X109350256Y-143171298D01*
X109350256Y-143171298D01*
G37*
G36*
X101837142Y-130028242D02*
G01*
X101985101Y-130089529D01*
X102118255Y-130178499D01*
X102231501Y-130291745D01*
X102320471Y-130424899D01*
X102381758Y-130572858D01*
X102413000Y-130729925D01*
X102413000Y-130890075D01*
X102381758Y-131047142D01*
X102320471Y-131195101D01*
X102231501Y-131328255D01*
X102118255Y-131441501D01*
X101985101Y-131530471D01*
X101837142Y-131591758D01*
X101680075Y-131623000D01*
X101519925Y-131623000D01*
X101362858Y-131591758D01*
X101214899Y-131530471D01*
X101081745Y-131441501D01*
X100968499Y-131328255D01*
X100879529Y-131195101D01*
X100818242Y-131047142D01*
X100787000Y-130890075D01*
X100787000Y-130729925D01*
X100818242Y-130572858D01*
X100879529Y-130424899D01*
X100968499Y-130291745D01*
X101081745Y-130178499D01*
X101214899Y-130089529D01*
X101362858Y-130028242D01*
X101519925Y-129997000D01*
X101680075Y-129997000D01*
X101837142Y-130028242D01*
X101837142Y-130028242D01*
G37*
G36*
X104377142Y-130028242D02*
G01*
X104525101Y-130089529D01*
X104658255Y-130178499D01*
X104771501Y-130291745D01*
X104860471Y-130424899D01*
X104921758Y-130572858D01*
X104953000Y-130729925D01*
X104953000Y-130890075D01*
X104921758Y-131047142D01*
X104860471Y-131195101D01*
X104771501Y-131328255D01*
X104658255Y-131441501D01*
X104525101Y-131530471D01*
X104377142Y-131591758D01*
X104220075Y-131623000D01*
X104059925Y-131623000D01*
X103902858Y-131591758D01*
X103754899Y-131530471D01*
X103621745Y-131441501D01*
X103508499Y-131328255D01*
X103419529Y-131195101D01*
X103358242Y-131047142D01*
X103327000Y-130890075D01*
X103327000Y-130729925D01*
X103358242Y-130572858D01*
X103419529Y-130424899D01*
X103508499Y-130291745D01*
X103621745Y-130178499D01*
X103754899Y-130089529D01*
X103902858Y-130028242D01*
X104059925Y-129997000D01*
X104220075Y-129997000D01*
X104377142Y-130028242D01*
X104377142Y-130028242D01*
G37*
G36*
X99297142Y-130028242D02*
G01*
X99445101Y-130089529D01*
X99578255Y-130178499D01*
X99691501Y-130291745D01*
X99780471Y-130424899D01*
X99841758Y-130572858D01*
X99873000Y-130729925D01*
X99873000Y-130890075D01*
X99841758Y-131047142D01*
X99780471Y-131195101D01*
X99691501Y-131328255D01*
X99578255Y-131441501D01*
X99445101Y-131530471D01*
X99297142Y-131591758D01*
X99140075Y-131623000D01*
X98979925Y-131623000D01*
X98822858Y-131591758D01*
X98674899Y-131530471D01*
X98541745Y-131441501D01*
X98428499Y-131328255D01*
X98339529Y-131195101D01*
X98278242Y-131047142D01*
X98247000Y-130890075D01*
X98247000Y-130729925D01*
X98278242Y-130572858D01*
X98339529Y-130424899D01*
X98428499Y-130291745D01*
X98541745Y-130178499D01*
X98674899Y-130089529D01*
X98822858Y-130028242D01*
X98979925Y-129997000D01*
X99140075Y-129997000D01*
X99297142Y-130028242D01*
X99297142Y-130028242D01*
G37*
G36*
X128507142Y-127488242D02*
G01*
X128655101Y-127549529D01*
X128788255Y-127638499D01*
X128901501Y-127751745D01*
X128990471Y-127884899D01*
X129051758Y-128032858D01*
X129083000Y-128189925D01*
X129083000Y-128350075D01*
X129051758Y-128507142D01*
X128990471Y-128655101D01*
X128901501Y-128788255D01*
X128788255Y-128901501D01*
X128655101Y-128990471D01*
X128507142Y-129051758D01*
X128350075Y-129083000D01*
X128189925Y-129083000D01*
X128032858Y-129051758D01*
X127884899Y-128990471D01*
X127751745Y-128901501D01*
X127638499Y-128788255D01*
X127549529Y-128655101D01*
X127488242Y-128507142D01*
X127457000Y-128350075D01*
X127457000Y-128189925D01*
X127488242Y-128032858D01*
X127549529Y-127884899D01*
X127638499Y-127751745D01*
X127751745Y-127638499D01*
X127884899Y-127549529D01*
X128032858Y-127488242D01*
X128189925Y-127457000D01*
X128350075Y-127457000D01*
X128507142Y-127488242D01*
X128507142Y-127488242D01*
G37*
G36*
X158987142Y-127488242D02*
G01*
X159135101Y-127549529D01*
X159268255Y-127638499D01*
X159381501Y-127751745D01*
X159470471Y-127884899D01*
X159531758Y-128032858D01*
X159563000Y-128189925D01*
X159563000Y-128350075D01*
X159531758Y-128507142D01*
X159470471Y-128655101D01*
X159381501Y-128788255D01*
X159268255Y-128901501D01*
X159135101Y-128990471D01*
X158987142Y-129051758D01*
X158830075Y-129083000D01*
X158669925Y-129083000D01*
X158512858Y-129051758D01*
X158364899Y-128990471D01*
X158231745Y-128901501D01*
X158118499Y-128788255D01*
X158029529Y-128655101D01*
X157968242Y-128507142D01*
X157937000Y-128350075D01*
X157937000Y-128189925D01*
X157968242Y-128032858D01*
X158029529Y-127884899D01*
X158118499Y-127751745D01*
X158231745Y-127638499D01*
X158364899Y-127549529D01*
X158512858Y-127488242D01*
X158669925Y-127457000D01*
X158830075Y-127457000D01*
X158987142Y-127488242D01*
X158987142Y-127488242D01*
G37*
G36*
X164643000Y-129083000D02*
G01*
X163017000Y-129083000D01*
X163017000Y-127457000D01*
X164643000Y-127457000D01*
X164643000Y-129083000D01*
X164643000Y-129083000D01*
G37*
G36*
X131047142Y-127488242D02*
G01*
X131195101Y-127549529D01*
X131328255Y-127638499D01*
X131441501Y-127751745D01*
X131530471Y-127884899D01*
X131591758Y-128032858D01*
X131623000Y-128189925D01*
X131623000Y-128350075D01*
X131591758Y-128507142D01*
X131530471Y-128655101D01*
X131441501Y-128788255D01*
X131328255Y-128901501D01*
X131195101Y-128990471D01*
X131047142Y-129051758D01*
X130890075Y-129083000D01*
X130729925Y-129083000D01*
X130572858Y-129051758D01*
X130424899Y-128990471D01*
X130291745Y-128901501D01*
X130178499Y-128788255D01*
X130089529Y-128655101D01*
X130028242Y-128507142D01*
X129997000Y-128350075D01*
X129997000Y-128189925D01*
X130028242Y-128032858D01*
X130089529Y-127884899D01*
X130178499Y-127751745D01*
X130291745Y-127638499D01*
X130424899Y-127549529D01*
X130572858Y-127488242D01*
X130729925Y-127457000D01*
X130890075Y-127457000D01*
X131047142Y-127488242D01*
X131047142Y-127488242D01*
G37*
G36*
X133587142Y-127488242D02*
G01*
X133735101Y-127549529D01*
X133868255Y-127638499D01*
X133981501Y-127751745D01*
X134070471Y-127884899D01*
X134131758Y-128032858D01*
X134163000Y-128189925D01*
X134163000Y-128350075D01*
X134131758Y-128507142D01*
X134070471Y-128655101D01*
X133981501Y-128788255D01*
X133868255Y-128901501D01*
X133735101Y-128990471D01*
X133587142Y-129051758D01*
X133430075Y-129083000D01*
X133269925Y-129083000D01*
X133112858Y-129051758D01*
X132964899Y-128990471D01*
X132831745Y-128901501D01*
X132718499Y-128788255D01*
X132629529Y-128655101D01*
X132568242Y-128507142D01*
X132537000Y-128350075D01*
X132537000Y-128189925D01*
X132568242Y-128032858D01*
X132629529Y-127884899D01*
X132718499Y-127751745D01*
X132831745Y-127638499D01*
X132964899Y-127549529D01*
X133112858Y-127488242D01*
X133269925Y-127457000D01*
X133430075Y-127457000D01*
X133587142Y-127488242D01*
X133587142Y-127488242D01*
G37*
G36*
X136127142Y-127488242D02*
G01*
X136275101Y-127549529D01*
X136408255Y-127638499D01*
X136521501Y-127751745D01*
X136610471Y-127884899D01*
X136671758Y-128032858D01*
X136703000Y-128189925D01*
X136703000Y-128350075D01*
X136671758Y-128507142D01*
X136610471Y-128655101D01*
X136521501Y-128788255D01*
X136408255Y-128901501D01*
X136275101Y-128990471D01*
X136127142Y-129051758D01*
X135970075Y-129083000D01*
X135809925Y-129083000D01*
X135652858Y-129051758D01*
X135504899Y-128990471D01*
X135371745Y-128901501D01*
X135258499Y-128788255D01*
X135169529Y-128655101D01*
X135108242Y-128507142D01*
X135077000Y-128350075D01*
X135077000Y-128189925D01*
X135108242Y-128032858D01*
X135169529Y-127884899D01*
X135258499Y-127751745D01*
X135371745Y-127638499D01*
X135504899Y-127549529D01*
X135652858Y-127488242D01*
X135809925Y-127457000D01*
X135970075Y-127457000D01*
X136127142Y-127488242D01*
X136127142Y-127488242D01*
G37*
G36*
X138667142Y-127488242D02*
G01*
X138815101Y-127549529D01*
X138948255Y-127638499D01*
X139061501Y-127751745D01*
X139150471Y-127884899D01*
X139211758Y-128032858D01*
X139243000Y-128189925D01*
X139243000Y-128350075D01*
X139211758Y-128507142D01*
X139150471Y-128655101D01*
X139061501Y-128788255D01*
X138948255Y-128901501D01*
X138815101Y-128990471D01*
X138667142Y-129051758D01*
X138510075Y-129083000D01*
X138349925Y-129083000D01*
X138192858Y-129051758D01*
X138044899Y-128990471D01*
X137911745Y-128901501D01*
X137798499Y-128788255D01*
X137709529Y-128655101D01*
X137648242Y-128507142D01*
X137617000Y-128350075D01*
X137617000Y-128189925D01*
X137648242Y-128032858D01*
X137709529Y-127884899D01*
X137798499Y-127751745D01*
X137911745Y-127638499D01*
X138044899Y-127549529D01*
X138192858Y-127488242D01*
X138349925Y-127457000D01*
X138510075Y-127457000D01*
X138667142Y-127488242D01*
X138667142Y-127488242D01*
G37*
G36*
X143747142Y-127488242D02*
G01*
X143895101Y-127549529D01*
X144028255Y-127638499D01*
X144141501Y-127751745D01*
X144230471Y-127884899D01*
X144291758Y-128032858D01*
X144323000Y-128189925D01*
X144323000Y-128350075D01*
X144291758Y-128507142D01*
X144230471Y-128655101D01*
X144141501Y-128788255D01*
X144028255Y-128901501D01*
X143895101Y-128990471D01*
X143747142Y-129051758D01*
X143590075Y-129083000D01*
X143429925Y-129083000D01*
X143272858Y-129051758D01*
X143124899Y-128990471D01*
X142991745Y-128901501D01*
X142878499Y-128788255D01*
X142789529Y-128655101D01*
X142728242Y-128507142D01*
X142697000Y-128350075D01*
X142697000Y-128189925D01*
X142728242Y-128032858D01*
X142789529Y-127884899D01*
X142878499Y-127751745D01*
X142991745Y-127638499D01*
X143124899Y-127549529D01*
X143272858Y-127488242D01*
X143429925Y-127457000D01*
X143590075Y-127457000D01*
X143747142Y-127488242D01*
X143747142Y-127488242D01*
G37*
G36*
X146287142Y-127488242D02*
G01*
X146435101Y-127549529D01*
X146568255Y-127638499D01*
X146681501Y-127751745D01*
X146770471Y-127884899D01*
X146831758Y-128032858D01*
X146863000Y-128189925D01*
X146863000Y-128350075D01*
X146831758Y-128507142D01*
X146770471Y-128655101D01*
X146681501Y-128788255D01*
X146568255Y-128901501D01*
X146435101Y-128990471D01*
X146287142Y-129051758D01*
X146130075Y-129083000D01*
X145969925Y-129083000D01*
X145812858Y-129051758D01*
X145664899Y-128990471D01*
X145531745Y-128901501D01*
X145418499Y-128788255D01*
X145329529Y-128655101D01*
X145268242Y-128507142D01*
X145237000Y-128350075D01*
X145237000Y-128189925D01*
X145268242Y-128032858D01*
X145329529Y-127884899D01*
X145418499Y-127751745D01*
X145531745Y-127638499D01*
X145664899Y-127549529D01*
X145812858Y-127488242D01*
X145969925Y-127457000D01*
X146130075Y-127457000D01*
X146287142Y-127488242D01*
X146287142Y-127488242D01*
G37*
G36*
X148827142Y-127488242D02*
G01*
X148975101Y-127549529D01*
X149108255Y-127638499D01*
X149221501Y-127751745D01*
X149310471Y-127884899D01*
X149371758Y-128032858D01*
X149403000Y-128189925D01*
X149403000Y-128350075D01*
X149371758Y-128507142D01*
X149310471Y-128655101D01*
X149221501Y-128788255D01*
X149108255Y-128901501D01*
X148975101Y-128990471D01*
X148827142Y-129051758D01*
X148670075Y-129083000D01*
X148509925Y-129083000D01*
X148352858Y-129051758D01*
X148204899Y-128990471D01*
X148071745Y-128901501D01*
X147958499Y-128788255D01*
X147869529Y-128655101D01*
X147808242Y-128507142D01*
X147777000Y-128350075D01*
X147777000Y-128189925D01*
X147808242Y-128032858D01*
X147869529Y-127884899D01*
X147958499Y-127751745D01*
X148071745Y-127638499D01*
X148204899Y-127549529D01*
X148352858Y-127488242D01*
X148509925Y-127457000D01*
X148670075Y-127457000D01*
X148827142Y-127488242D01*
X148827142Y-127488242D01*
G37*
G36*
X151367142Y-127488242D02*
G01*
X151515101Y-127549529D01*
X151648255Y-127638499D01*
X151761501Y-127751745D01*
X151850471Y-127884899D01*
X151911758Y-128032858D01*
X151943000Y-128189925D01*
X151943000Y-128350075D01*
X151911758Y-128507142D01*
X151850471Y-128655101D01*
X151761501Y-128788255D01*
X151648255Y-128901501D01*
X151515101Y-128990471D01*
X151367142Y-129051758D01*
X151210075Y-129083000D01*
X151049925Y-129083000D01*
X150892858Y-129051758D01*
X150744899Y-128990471D01*
X150611745Y-128901501D01*
X150498499Y-128788255D01*
X150409529Y-128655101D01*
X150348242Y-128507142D01*
X150317000Y-128350075D01*
X150317000Y-128189925D01*
X150348242Y-128032858D01*
X150409529Y-127884899D01*
X150498499Y-127751745D01*
X150611745Y-127638499D01*
X150744899Y-127549529D01*
X150892858Y-127488242D01*
X151049925Y-127457000D01*
X151210075Y-127457000D01*
X151367142Y-127488242D01*
X151367142Y-127488242D01*
G37*
G36*
X161527142Y-127488242D02*
G01*
X161675101Y-127549529D01*
X161808255Y-127638499D01*
X161921501Y-127751745D01*
X162010471Y-127884899D01*
X162071758Y-128032858D01*
X162103000Y-128189925D01*
X162103000Y-128350075D01*
X162071758Y-128507142D01*
X162010471Y-128655101D01*
X161921501Y-128788255D01*
X161808255Y-128901501D01*
X161675101Y-128990471D01*
X161527142Y-129051758D01*
X161370075Y-129083000D01*
X161209925Y-129083000D01*
X161052858Y-129051758D01*
X160904899Y-128990471D01*
X160771745Y-128901501D01*
X160658499Y-128788255D01*
X160569529Y-128655101D01*
X160508242Y-128507142D01*
X160477000Y-128350075D01*
X160477000Y-128189925D01*
X160508242Y-128032858D01*
X160569529Y-127884899D01*
X160658499Y-127751745D01*
X160771745Y-127638499D01*
X160904899Y-127549529D01*
X161052858Y-127488242D01*
X161209925Y-127457000D01*
X161370075Y-127457000D01*
X161527142Y-127488242D01*
X161527142Y-127488242D01*
G37*
G36*
X153907142Y-127488242D02*
G01*
X154055101Y-127549529D01*
X154188255Y-127638499D01*
X154301501Y-127751745D01*
X154390471Y-127884899D01*
X154451758Y-128032858D01*
X154483000Y-128189925D01*
X154483000Y-128350075D01*
X154451758Y-128507142D01*
X154390471Y-128655101D01*
X154301501Y-128788255D01*
X154188255Y-128901501D01*
X154055101Y-128990471D01*
X153907142Y-129051758D01*
X153750075Y-129083000D01*
X153589925Y-129083000D01*
X153432858Y-129051758D01*
X153284899Y-128990471D01*
X153151745Y-128901501D01*
X153038499Y-128788255D01*
X152949529Y-128655101D01*
X152888242Y-128507142D01*
X152857000Y-128350075D01*
X152857000Y-128189925D01*
X152888242Y-128032858D01*
X152949529Y-127884899D01*
X153038499Y-127751745D01*
X153151745Y-127638499D01*
X153284899Y-127549529D01*
X153432858Y-127488242D01*
X153589925Y-127457000D01*
X153750075Y-127457000D01*
X153907142Y-127488242D01*
X153907142Y-127488242D01*
G37*
G36*
X156447142Y-127488242D02*
G01*
X156595101Y-127549529D01*
X156728255Y-127638499D01*
X156841501Y-127751745D01*
X156930471Y-127884899D01*
X156991758Y-128032858D01*
X157023000Y-128189925D01*
X157023000Y-128350075D01*
X156991758Y-128507142D01*
X156930471Y-128655101D01*
X156841501Y-128788255D01*
X156728255Y-128901501D01*
X156595101Y-128990471D01*
X156447142Y-129051758D01*
X156290075Y-129083000D01*
X156129925Y-129083000D01*
X155972858Y-129051758D01*
X155824899Y-128990471D01*
X155691745Y-128901501D01*
X155578499Y-128788255D01*
X155489529Y-128655101D01*
X155428242Y-128507142D01*
X155397000Y-128350075D01*
X155397000Y-128189925D01*
X155428242Y-128032858D01*
X155489529Y-127884899D01*
X155578499Y-127751745D01*
X155691745Y-127638499D01*
X155824899Y-127549529D01*
X155972858Y-127488242D01*
X156129925Y-127457000D01*
X156290075Y-127457000D01*
X156447142Y-127488242D01*
X156447142Y-127488242D01*
G37*
G36*
X141207142Y-127488242D02*
G01*
X141355101Y-127549529D01*
X141488255Y-127638499D01*
X141601501Y-127751745D01*
X141690471Y-127884899D01*
X141751758Y-128032858D01*
X141783000Y-128189925D01*
X141783000Y-128350075D01*
X141751758Y-128507142D01*
X141690471Y-128655101D01*
X141601501Y-128788255D01*
X141488255Y-128901501D01*
X141355101Y-128990471D01*
X141207142Y-129051758D01*
X141050075Y-129083000D01*
X140889925Y-129083000D01*
X140732858Y-129051758D01*
X140584899Y-128990471D01*
X140451745Y-128901501D01*
X140338499Y-128788255D01*
X140249529Y-128655101D01*
X140188242Y-128507142D01*
X140157000Y-128350075D01*
X140157000Y-128189925D01*
X140188242Y-128032858D01*
X140249529Y-127884899D01*
X140338499Y-127751745D01*
X140451745Y-127638499D01*
X140584899Y-127549529D01*
X140732858Y-127488242D01*
X140889925Y-127457000D01*
X141050075Y-127457000D01*
X141207142Y-127488242D01*
X141207142Y-127488242D01*
G37*
G36*
X98028205Y-119372461D02*
G01*
X98146153Y-119395922D01*
X98238194Y-119434047D01*
X98368359Y-119487963D01*
X98568342Y-119621587D01*
X98738413Y-119791658D01*
X98872037Y-119991641D01*
X98964078Y-120213848D01*
X99011000Y-120449741D01*
X99011000Y-120690259D01*
X98964078Y-120926152D01*
X98872037Y-121148359D01*
X98738413Y-121348342D01*
X98568342Y-121518413D01*
X98368359Y-121652037D01*
X98238194Y-121705953D01*
X98146153Y-121744078D01*
X97910259Y-121791000D01*
X97669741Y-121791000D01*
X97433847Y-121744078D01*
X97341806Y-121705953D01*
X97211641Y-121652037D01*
X97011658Y-121518413D01*
X96841587Y-121348342D01*
X96707963Y-121148359D01*
X96615922Y-120926152D01*
X96569000Y-120690259D01*
X96569000Y-120449741D01*
X96615922Y-120213848D01*
X96707963Y-119991641D01*
X96841587Y-119791658D01*
X97011658Y-119621587D01*
X97211641Y-119487963D01*
X97341806Y-119434047D01*
X97433847Y-119395922D01*
X97551795Y-119372461D01*
X97669741Y-119349000D01*
X97910259Y-119349000D01*
X98028205Y-119372461D01*
X98028205Y-119372461D01*
G37*
G36*
X103028205Y-116872461D02*
G01*
X103146153Y-116895922D01*
X103238194Y-116934047D01*
X103368359Y-116987963D01*
X103568342Y-117121587D01*
X103738413Y-117291658D01*
X103872037Y-117491641D01*
X103964078Y-117713848D01*
X104011000Y-117949741D01*
X104011000Y-118190259D01*
X103964078Y-118426152D01*
X103872037Y-118648359D01*
X103738413Y-118848342D01*
X103568342Y-119018413D01*
X103368359Y-119152037D01*
X103238194Y-119205953D01*
X103146153Y-119244078D01*
X102910259Y-119291000D01*
X102669741Y-119291000D01*
X102433847Y-119244078D01*
X102341806Y-119205953D01*
X102211641Y-119152037D01*
X102011658Y-119018413D01*
X101841587Y-118848342D01*
X101707963Y-118648359D01*
X101615922Y-118426152D01*
X101569000Y-118190259D01*
X101569000Y-117949741D01*
X101615922Y-117713848D01*
X101707963Y-117491641D01*
X101841587Y-117291658D01*
X102011658Y-117121587D01*
X102211641Y-116987963D01*
X102341806Y-116934047D01*
X102433847Y-116895922D01*
X102551795Y-116872461D01*
X102669741Y-116849000D01*
X102910259Y-116849000D01*
X103028205Y-116872461D01*
X103028205Y-116872461D01*
G37*
G36*
X111033000Y-119161000D02*
G01*
X108931000Y-119161000D01*
X108931000Y-117059000D01*
X111033000Y-117059000D01*
X111033000Y-119161000D01*
X111033000Y-119161000D01*
G37*
G36*
X116384564Y-117099389D02*
G01*
X116575833Y-117178615D01*
X116575835Y-117178616D01*
X116745014Y-117291658D01*
X116747973Y-117293635D01*
X116894365Y-117440027D01*
X117009385Y-117612167D01*
X117088611Y-117803436D01*
X117129000Y-118006484D01*
X117129000Y-118213516D01*
X117088611Y-118416564D01*
X117084639Y-118426153D01*
X117009384Y-118607835D01*
X116894365Y-118779973D01*
X116747973Y-118926365D01*
X116575835Y-119041384D01*
X116575834Y-119041385D01*
X116575833Y-119041385D01*
X116384564Y-119120611D01*
X116181516Y-119161000D01*
X115974484Y-119161000D01*
X115771436Y-119120611D01*
X115580167Y-119041385D01*
X115580166Y-119041385D01*
X115580165Y-119041384D01*
X115408027Y-118926365D01*
X115261635Y-118779973D01*
X115146616Y-118607835D01*
X115071361Y-118426153D01*
X115067389Y-118416564D01*
X115027000Y-118213516D01*
X115027000Y-118006484D01*
X115067389Y-117803436D01*
X115146615Y-117612167D01*
X115261635Y-117440027D01*
X115408027Y-117293635D01*
X115410986Y-117291658D01*
X115580165Y-117178616D01*
X115580167Y-117178615D01*
X115771436Y-117099389D01*
X115974484Y-117059000D01*
X116181516Y-117059000D01*
X116384564Y-117099389D01*
X116384564Y-117099389D01*
G37*
G36*
X98146153Y-114395922D02*
G01*
X98238194Y-114434047D01*
X98368359Y-114487963D01*
X98568342Y-114621587D01*
X98738413Y-114791658D01*
X98872037Y-114991641D01*
X98964078Y-115213848D01*
X99011000Y-115449741D01*
X99011000Y-115690259D01*
X98964078Y-115926152D01*
X98872037Y-116148359D01*
X98738413Y-116348342D01*
X98568342Y-116518413D01*
X98368359Y-116652037D01*
X98238194Y-116705953D01*
X98146153Y-116744078D01*
X97910259Y-116791000D01*
X97669741Y-116791000D01*
X97433847Y-116744078D01*
X97341806Y-116705953D01*
X97211641Y-116652037D01*
X97011658Y-116518413D01*
X96841587Y-116348342D01*
X96707963Y-116148359D01*
X96615922Y-115926152D01*
X96569000Y-115690259D01*
X96569000Y-115449741D01*
X96615922Y-115213848D01*
X96707963Y-114991641D01*
X96841587Y-114791658D01*
X97011658Y-114621587D01*
X97211641Y-114487963D01*
X97341806Y-114434047D01*
X97433847Y-114395922D01*
X97669741Y-114349000D01*
X97910259Y-114349000D01*
X98146153Y-114395922D01*
X98146153Y-114395922D01*
G37*
G36*
X99308228Y-107131703D02*
G01*
X99463100Y-107195853D01*
X99602481Y-107288985D01*
X99721015Y-107407519D01*
X99814147Y-107546900D01*
X99878297Y-107701772D01*
X99911000Y-107866184D01*
X99911000Y-108033816D01*
X99878297Y-108198228D01*
X99814147Y-108353100D01*
X99721015Y-108492481D01*
X99602481Y-108611015D01*
X99463100Y-108704147D01*
X99308228Y-108768297D01*
X99143816Y-108801000D01*
X98976184Y-108801000D01*
X98811772Y-108768297D01*
X98656900Y-108704147D01*
X98517519Y-108611015D01*
X98398985Y-108492481D01*
X98305853Y-108353100D01*
X98241703Y-108198228D01*
X98209000Y-108033816D01*
X98209000Y-107866184D01*
X98241703Y-107701772D01*
X98305853Y-107546900D01*
X98398985Y-107407519D01*
X98517519Y-107288985D01*
X98656900Y-107195853D01*
X98811772Y-107131703D01*
X98976184Y-107099000D01*
X99143816Y-107099000D01*
X99308228Y-107131703D01*
X99308228Y-107131703D01*
G37*
G36*
X104388228Y-107131703D02*
G01*
X104543100Y-107195853D01*
X104682481Y-107288985D01*
X104801015Y-107407519D01*
X104894147Y-107546900D01*
X104958297Y-107701772D01*
X104991000Y-107866184D01*
X104991000Y-108033816D01*
X104958297Y-108198228D01*
X104894147Y-108353100D01*
X104801015Y-108492481D01*
X104682481Y-108611015D01*
X104543100Y-108704147D01*
X104388228Y-108768297D01*
X104223816Y-108801000D01*
X104056184Y-108801000D01*
X103891772Y-108768297D01*
X103736900Y-108704147D01*
X103597519Y-108611015D01*
X103478985Y-108492481D01*
X103385853Y-108353100D01*
X103321703Y-108198228D01*
X103289000Y-108033816D01*
X103289000Y-107866184D01*
X103321703Y-107701772D01*
X103385853Y-107546900D01*
X103478985Y-107407519D01*
X103597519Y-107288985D01*
X103736900Y-107195853D01*
X103891772Y-107131703D01*
X104056184Y-107099000D01*
X104223816Y-107099000D01*
X104388228Y-107131703D01*
X104388228Y-107131703D01*
G37*
G36*
X109468228Y-107131703D02*
G01*
X109623100Y-107195853D01*
X109762481Y-107288985D01*
X109881015Y-107407519D01*
X109974147Y-107546900D01*
X110038297Y-107701772D01*
X110071000Y-107866184D01*
X110071000Y-108033816D01*
X110038297Y-108198228D01*
X109974147Y-108353100D01*
X109881015Y-108492481D01*
X109762481Y-108611015D01*
X109623100Y-108704147D01*
X109468228Y-108768297D01*
X109303816Y-108801000D01*
X109136184Y-108801000D01*
X108971772Y-108768297D01*
X108816900Y-108704147D01*
X108677519Y-108611015D01*
X108558985Y-108492481D01*
X108465853Y-108353100D01*
X108401703Y-108198228D01*
X108369000Y-108033816D01*
X108369000Y-107866184D01*
X108401703Y-107701772D01*
X108465853Y-107546900D01*
X108558985Y-107407519D01*
X108677519Y-107288985D01*
X108816900Y-107195853D01*
X108971772Y-107131703D01*
X109136184Y-107099000D01*
X109303816Y-107099000D01*
X109468228Y-107131703D01*
X109468228Y-107131703D01*
G37*
G36*
X114548228Y-107131703D02*
G01*
X114703100Y-107195853D01*
X114842481Y-107288985D01*
X114961015Y-107407519D01*
X115054147Y-107546900D01*
X115118297Y-107701772D01*
X115151000Y-107866184D01*
X115151000Y-108033816D01*
X115118297Y-108198228D01*
X115054147Y-108353100D01*
X114961015Y-108492481D01*
X114842481Y-108611015D01*
X114703100Y-108704147D01*
X114548228Y-108768297D01*
X114383816Y-108801000D01*
X114216184Y-108801000D01*
X114051772Y-108768297D01*
X113896900Y-108704147D01*
X113757519Y-108611015D01*
X113638985Y-108492481D01*
X113545853Y-108353100D01*
X113481703Y-108198228D01*
X113449000Y-108033816D01*
X113449000Y-107866184D01*
X113481703Y-107701772D01*
X113545853Y-107546900D01*
X113638985Y-107407519D01*
X113757519Y-107288985D01*
X113896900Y-107195853D01*
X114051772Y-107131703D01*
X114216184Y-107099000D01*
X114383816Y-107099000D01*
X114548228Y-107131703D01*
X114548228Y-107131703D01*
G37*
G36*
X143747142Y-102088242D02*
G01*
X143895101Y-102149529D01*
X144028255Y-102238499D01*
X144141501Y-102351745D01*
X144230471Y-102484899D01*
X144291758Y-102632858D01*
X144323000Y-102789925D01*
X144323000Y-102950075D01*
X144291758Y-103107142D01*
X144230471Y-103255101D01*
X144141501Y-103388255D01*
X144028255Y-103501501D01*
X143895101Y-103590471D01*
X143747142Y-103651758D01*
X143590075Y-103683000D01*
X143429925Y-103683000D01*
X143272858Y-103651758D01*
X143124899Y-103590471D01*
X142991745Y-103501501D01*
X142878499Y-103388255D01*
X142789529Y-103255101D01*
X142728242Y-103107142D01*
X142697000Y-102950075D01*
X142697000Y-102789925D01*
X142728242Y-102632858D01*
X142789529Y-102484899D01*
X142878499Y-102351745D01*
X142991745Y-102238499D01*
X143124899Y-102149529D01*
X143272858Y-102088242D01*
X143429925Y-102057000D01*
X143590075Y-102057000D01*
X143747142Y-102088242D01*
X143747142Y-102088242D01*
G37*
G36*
X164643000Y-103683000D02*
G01*
X163017000Y-103683000D01*
X163017000Y-102057000D01*
X164643000Y-102057000D01*
X164643000Y-103683000D01*
X164643000Y-103683000D01*
G37*
G36*
X161527142Y-102088242D02*
G01*
X161675101Y-102149529D01*
X161808255Y-102238499D01*
X161921501Y-102351745D01*
X162010471Y-102484899D01*
X162071758Y-102632858D01*
X162103000Y-102789925D01*
X162103000Y-102950075D01*
X162071758Y-103107142D01*
X162010471Y-103255101D01*
X161921501Y-103388255D01*
X161808255Y-103501501D01*
X161675101Y-103590471D01*
X161527142Y-103651758D01*
X161370075Y-103683000D01*
X161209925Y-103683000D01*
X161052858Y-103651758D01*
X160904899Y-103590471D01*
X160771745Y-103501501D01*
X160658499Y-103388255D01*
X160569529Y-103255101D01*
X160508242Y-103107142D01*
X160477000Y-102950075D01*
X160477000Y-102789925D01*
X160508242Y-102632858D01*
X160569529Y-102484899D01*
X160658499Y-102351745D01*
X160771745Y-102238499D01*
X160904899Y-102149529D01*
X161052858Y-102088242D01*
X161209925Y-102057000D01*
X161370075Y-102057000D01*
X161527142Y-102088242D01*
X161527142Y-102088242D01*
G37*
G36*
X148827142Y-102088242D02*
G01*
X148975101Y-102149529D01*
X149108255Y-102238499D01*
X149221501Y-102351745D01*
X149310471Y-102484899D01*
X149371758Y-102632858D01*
X149403000Y-102789925D01*
X149403000Y-102950075D01*
X149371758Y-103107142D01*
X149310471Y-103255101D01*
X149221501Y-103388255D01*
X149108255Y-103501501D01*
X148975101Y-103590471D01*
X148827142Y-103651758D01*
X148670075Y-103683000D01*
X148509925Y-103683000D01*
X148352858Y-103651758D01*
X148204899Y-103590471D01*
X148071745Y-103501501D01*
X147958499Y-103388255D01*
X147869529Y-103255101D01*
X147808242Y-103107142D01*
X147777000Y-102950075D01*
X147777000Y-102789925D01*
X147808242Y-102632858D01*
X147869529Y-102484899D01*
X147958499Y-102351745D01*
X148071745Y-102238499D01*
X148204899Y-102149529D01*
X148352858Y-102088242D01*
X148509925Y-102057000D01*
X148670075Y-102057000D01*
X148827142Y-102088242D01*
X148827142Y-102088242D01*
G37*
G36*
X151367142Y-102088242D02*
G01*
X151515101Y-102149529D01*
X151648255Y-102238499D01*
X151761501Y-102351745D01*
X151850471Y-102484899D01*
X151911758Y-102632858D01*
X151943000Y-102789925D01*
X151943000Y-102950075D01*
X151911758Y-103107142D01*
X151850471Y-103255101D01*
X151761501Y-103388255D01*
X151648255Y-103501501D01*
X151515101Y-103590471D01*
X151367142Y-103651758D01*
X151210075Y-103683000D01*
X151049925Y-103683000D01*
X150892858Y-103651758D01*
X150744899Y-103590471D01*
X150611745Y-103501501D01*
X150498499Y-103388255D01*
X150409529Y-103255101D01*
X150348242Y-103107142D01*
X150317000Y-102950075D01*
X150317000Y-102789925D01*
X150348242Y-102632858D01*
X150409529Y-102484899D01*
X150498499Y-102351745D01*
X150611745Y-102238499D01*
X150744899Y-102149529D01*
X150892858Y-102088242D01*
X151049925Y-102057000D01*
X151210075Y-102057000D01*
X151367142Y-102088242D01*
X151367142Y-102088242D01*
G37*
G36*
X146287142Y-102088242D02*
G01*
X146435101Y-102149529D01*
X146568255Y-102238499D01*
X146681501Y-102351745D01*
X146770471Y-102484899D01*
X146831758Y-102632858D01*
X146863000Y-102789925D01*
X146863000Y-102950075D01*
X146831758Y-103107142D01*
X146770471Y-103255101D01*
X146681501Y-103388255D01*
X146568255Y-103501501D01*
X146435101Y-103590471D01*
X146287142Y-103651758D01*
X146130075Y-103683000D01*
X145969925Y-103683000D01*
X145812858Y-103651758D01*
X145664899Y-103590471D01*
X145531745Y-103501501D01*
X145418499Y-103388255D01*
X145329529Y-103255101D01*
X145268242Y-103107142D01*
X145237000Y-102950075D01*
X145237000Y-102789925D01*
X145268242Y-102632858D01*
X145329529Y-102484899D01*
X145418499Y-102351745D01*
X145531745Y-102238499D01*
X145664899Y-102149529D01*
X145812858Y-102088242D01*
X145969925Y-102057000D01*
X146130075Y-102057000D01*
X146287142Y-102088242D01*
X146287142Y-102088242D01*
G37*
G36*
X153907142Y-102088242D02*
G01*
X154055101Y-102149529D01*
X154188255Y-102238499D01*
X154301501Y-102351745D01*
X154390471Y-102484899D01*
X154451758Y-102632858D01*
X154483000Y-102789925D01*
X154483000Y-102950075D01*
X154451758Y-103107142D01*
X154390471Y-103255101D01*
X154301501Y-103388255D01*
X154188255Y-103501501D01*
X154055101Y-103590471D01*
X153907142Y-103651758D01*
X153750075Y-103683000D01*
X153589925Y-103683000D01*
X153432858Y-103651758D01*
X153284899Y-103590471D01*
X153151745Y-103501501D01*
X153038499Y-103388255D01*
X152949529Y-103255101D01*
X152888242Y-103107142D01*
X152857000Y-102950075D01*
X152857000Y-102789925D01*
X152888242Y-102632858D01*
X152949529Y-102484899D01*
X153038499Y-102351745D01*
X153151745Y-102238499D01*
X153284899Y-102149529D01*
X153432858Y-102088242D01*
X153589925Y-102057000D01*
X153750075Y-102057000D01*
X153907142Y-102088242D01*
X153907142Y-102088242D01*
G37*
G36*
X156447142Y-102088242D02*
G01*
X156595101Y-102149529D01*
X156728255Y-102238499D01*
X156841501Y-102351745D01*
X156930471Y-102484899D01*
X156991758Y-102632858D01*
X157023000Y-102789925D01*
X157023000Y-102950075D01*
X156991758Y-103107142D01*
X156930471Y-103255101D01*
X156841501Y-103388255D01*
X156728255Y-103501501D01*
X156595101Y-103590471D01*
X156447142Y-103651758D01*
X156290075Y-103683000D01*
X156129925Y-103683000D01*
X155972858Y-103651758D01*
X155824899Y-103590471D01*
X155691745Y-103501501D01*
X155578499Y-103388255D01*
X155489529Y-103255101D01*
X155428242Y-103107142D01*
X155397000Y-102950075D01*
X155397000Y-102789925D01*
X155428242Y-102632858D01*
X155489529Y-102484899D01*
X155578499Y-102351745D01*
X155691745Y-102238499D01*
X155824899Y-102149529D01*
X155972858Y-102088242D01*
X156129925Y-102057000D01*
X156290075Y-102057000D01*
X156447142Y-102088242D01*
X156447142Y-102088242D01*
G37*
G36*
X131047142Y-102088242D02*
G01*
X131195101Y-102149529D01*
X131328255Y-102238499D01*
X131441501Y-102351745D01*
X131530471Y-102484899D01*
X131591758Y-102632858D01*
X131623000Y-102789925D01*
X131623000Y-102950075D01*
X131591758Y-103107142D01*
X131530471Y-103255101D01*
X131441501Y-103388255D01*
X131328255Y-103501501D01*
X131195101Y-103590471D01*
X131047142Y-103651758D01*
X130890075Y-103683000D01*
X130729925Y-103683000D01*
X130572858Y-103651758D01*
X130424899Y-103590471D01*
X130291745Y-103501501D01*
X130178499Y-103388255D01*
X130089529Y-103255101D01*
X130028242Y-103107142D01*
X129997000Y-102950075D01*
X129997000Y-102789925D01*
X130028242Y-102632858D01*
X130089529Y-102484899D01*
X130178499Y-102351745D01*
X130291745Y-102238499D01*
X130424899Y-102149529D01*
X130572858Y-102088242D01*
X130729925Y-102057000D01*
X130890075Y-102057000D01*
X131047142Y-102088242D01*
X131047142Y-102088242D01*
G37*
G36*
X133587142Y-102088242D02*
G01*
X133735101Y-102149529D01*
X133868255Y-102238499D01*
X133981501Y-102351745D01*
X134070471Y-102484899D01*
X134131758Y-102632858D01*
X134163000Y-102789925D01*
X134163000Y-102950075D01*
X134131758Y-103107142D01*
X134070471Y-103255101D01*
X133981501Y-103388255D01*
X133868255Y-103501501D01*
X133735101Y-103590471D01*
X133587142Y-103651758D01*
X133430075Y-103683000D01*
X133269925Y-103683000D01*
X133112858Y-103651758D01*
X132964899Y-103590471D01*
X132831745Y-103501501D01*
X132718499Y-103388255D01*
X132629529Y-103255101D01*
X132568242Y-103107142D01*
X132537000Y-102950075D01*
X132537000Y-102789925D01*
X132568242Y-102632858D01*
X132629529Y-102484899D01*
X132718499Y-102351745D01*
X132831745Y-102238499D01*
X132964899Y-102149529D01*
X133112858Y-102088242D01*
X133269925Y-102057000D01*
X133430075Y-102057000D01*
X133587142Y-102088242D01*
X133587142Y-102088242D01*
G37*
G36*
X136127142Y-102088242D02*
G01*
X136275101Y-102149529D01*
X136408255Y-102238499D01*
X136521501Y-102351745D01*
X136610471Y-102484899D01*
X136671758Y-102632858D01*
X136703000Y-102789925D01*
X136703000Y-102950075D01*
X136671758Y-103107142D01*
X136610471Y-103255101D01*
X136521501Y-103388255D01*
X136408255Y-103501501D01*
X136275101Y-103590471D01*
X136127142Y-103651758D01*
X135970075Y-103683000D01*
X135809925Y-103683000D01*
X135652858Y-103651758D01*
X135504899Y-103590471D01*
X135371745Y-103501501D01*
X135258499Y-103388255D01*
X135169529Y-103255101D01*
X135108242Y-103107142D01*
X135077000Y-102950075D01*
X135077000Y-102789925D01*
X135108242Y-102632858D01*
X135169529Y-102484899D01*
X135258499Y-102351745D01*
X135371745Y-102238499D01*
X135504899Y-102149529D01*
X135652858Y-102088242D01*
X135809925Y-102057000D01*
X135970075Y-102057000D01*
X136127142Y-102088242D01*
X136127142Y-102088242D01*
G37*
G36*
X138667142Y-102088242D02*
G01*
X138815101Y-102149529D01*
X138948255Y-102238499D01*
X139061501Y-102351745D01*
X139150471Y-102484899D01*
X139211758Y-102632858D01*
X139243000Y-102789925D01*
X139243000Y-102950075D01*
X139211758Y-103107142D01*
X139150471Y-103255101D01*
X139061501Y-103388255D01*
X138948255Y-103501501D01*
X138815101Y-103590471D01*
X138667142Y-103651758D01*
X138510075Y-103683000D01*
X138349925Y-103683000D01*
X138192858Y-103651758D01*
X138044899Y-103590471D01*
X137911745Y-103501501D01*
X137798499Y-103388255D01*
X137709529Y-103255101D01*
X137648242Y-103107142D01*
X137617000Y-102950075D01*
X137617000Y-102789925D01*
X137648242Y-102632858D01*
X137709529Y-102484899D01*
X137798499Y-102351745D01*
X137911745Y-102238499D01*
X138044899Y-102149529D01*
X138192858Y-102088242D01*
X138349925Y-102057000D01*
X138510075Y-102057000D01*
X138667142Y-102088242D01*
X138667142Y-102088242D01*
G37*
G36*
X141207142Y-102088242D02*
G01*
X141355101Y-102149529D01*
X141488255Y-102238499D01*
X141601501Y-102351745D01*
X141690471Y-102484899D01*
X141751758Y-102632858D01*
X141783000Y-102789925D01*
X141783000Y-102950075D01*
X141751758Y-103107142D01*
X141690471Y-103255101D01*
X141601501Y-103388255D01*
X141488255Y-103501501D01*
X141355101Y-103590471D01*
X141207142Y-103651758D01*
X141050075Y-103683000D01*
X140889925Y-103683000D01*
X140732858Y-103651758D01*
X140584899Y-103590471D01*
X140451745Y-103501501D01*
X140338499Y-103388255D01*
X140249529Y-103255101D01*
X140188242Y-103107142D01*
X140157000Y-102950075D01*
X140157000Y-102789925D01*
X140188242Y-102632858D01*
X140249529Y-102484899D01*
X140338499Y-102351745D01*
X140451745Y-102238499D01*
X140584899Y-102149529D01*
X140732858Y-102088242D01*
X140889925Y-102057000D01*
X141050075Y-102057000D01*
X141207142Y-102088242D01*
X141207142Y-102088242D01*
G37*
G36*
X158987142Y-102088242D02*
G01*
X159135101Y-102149529D01*
X159268255Y-102238499D01*
X159381501Y-102351745D01*
X159470471Y-102484899D01*
X159531758Y-102632858D01*
X159563000Y-102789925D01*
X159563000Y-102950075D01*
X159531758Y-103107142D01*
X159470471Y-103255101D01*
X159381501Y-103388255D01*
X159268255Y-103501501D01*
X159135101Y-103590471D01*
X158987142Y-103651758D01*
X158830075Y-103683000D01*
X158669925Y-103683000D01*
X158512858Y-103651758D01*
X158364899Y-103590471D01*
X158231745Y-103501501D01*
X158118499Y-103388255D01*
X158029529Y-103255101D01*
X157968242Y-103107142D01*
X157937000Y-102950075D01*
X157937000Y-102789925D01*
X157968242Y-102632858D01*
X158029529Y-102484899D01*
X158118499Y-102351745D01*
X158231745Y-102238499D01*
X158364899Y-102149529D01*
X158512858Y-102088242D01*
X158669925Y-102057000D01*
X158830075Y-102057000D01*
X158987142Y-102088242D01*
X158987142Y-102088242D01*
G37*
G36*
X128507142Y-102088242D02*
G01*
X128655101Y-102149529D01*
X128788255Y-102238499D01*
X128901501Y-102351745D01*
X128990471Y-102484899D01*
X129051758Y-102632858D01*
X129083000Y-102789925D01*
X129083000Y-102950075D01*
X129051758Y-103107142D01*
X128990471Y-103255101D01*
X128901501Y-103388255D01*
X128788255Y-103501501D01*
X128655101Y-103590471D01*
X128507142Y-103651758D01*
X128350075Y-103683000D01*
X128189925Y-103683000D01*
X128032858Y-103651758D01*
X127884899Y-103590471D01*
X127751745Y-103501501D01*
X127638499Y-103388255D01*
X127549529Y-103255101D01*
X127488242Y-103107142D01*
X127457000Y-102950075D01*
X127457000Y-102789925D01*
X127488242Y-102632858D01*
X127549529Y-102484899D01*
X127638499Y-102351745D01*
X127751745Y-102238499D01*
X127884899Y-102149529D01*
X128032858Y-102088242D01*
X128189925Y-102057000D01*
X128350075Y-102057000D01*
X128507142Y-102088242D01*
X128507142Y-102088242D01*
G37*
G36*
X99226823Y-99491313D02*
G01*
X99387242Y-99539976D01*
X99519906Y-99610886D01*
X99535078Y-99618996D01*
X99664659Y-99725341D01*
X99771004Y-99854922D01*
X99771005Y-99854924D01*
X99850024Y-100002758D01*
X99898687Y-100163177D01*
X99915117Y-100330000D01*
X99898687Y-100496823D01*
X99850024Y-100657242D01*
X99779114Y-100789906D01*
X99771004Y-100805078D01*
X99664659Y-100934659D01*
X99535078Y-101041004D01*
X99535076Y-101041005D01*
X99387242Y-101120024D01*
X99226823Y-101168687D01*
X99101804Y-101181000D01*
X99018196Y-101181000D01*
X98893177Y-101168687D01*
X98732758Y-101120024D01*
X98584924Y-101041005D01*
X98584922Y-101041004D01*
X98455341Y-100934659D01*
X98348996Y-100805078D01*
X98340886Y-100789906D01*
X98269976Y-100657242D01*
X98221313Y-100496823D01*
X98204883Y-100330000D01*
X98221313Y-100163177D01*
X98269976Y-100002758D01*
X98348995Y-99854924D01*
X98348996Y-99854922D01*
X98455341Y-99725341D01*
X98584922Y-99618996D01*
X98600094Y-99610886D01*
X98732758Y-99539976D01*
X98893177Y-99491313D01*
X99018196Y-99479000D01*
X99101804Y-99479000D01*
X99226823Y-99491313D01*
X99226823Y-99491313D01*
G37*
G36*
X104306823Y-99491313D02*
G01*
X104467242Y-99539976D01*
X104599906Y-99610886D01*
X104615078Y-99618996D01*
X104744659Y-99725341D01*
X104851004Y-99854922D01*
X104851005Y-99854924D01*
X104930024Y-100002758D01*
X104978687Y-100163177D01*
X104995117Y-100330000D01*
X104978687Y-100496823D01*
X104930024Y-100657242D01*
X104859114Y-100789906D01*
X104851004Y-100805078D01*
X104744659Y-100934659D01*
X104615078Y-101041004D01*
X104615076Y-101041005D01*
X104467242Y-101120024D01*
X104306823Y-101168687D01*
X104181804Y-101181000D01*
X104098196Y-101181000D01*
X103973177Y-101168687D01*
X103812758Y-101120024D01*
X103664924Y-101041005D01*
X103664922Y-101041004D01*
X103535341Y-100934659D01*
X103428996Y-100805078D01*
X103420886Y-100789906D01*
X103349976Y-100657242D01*
X103301313Y-100496823D01*
X103284883Y-100330000D01*
X103301313Y-100163177D01*
X103349976Y-100002758D01*
X103428995Y-99854924D01*
X103428996Y-99854922D01*
X103535341Y-99725341D01*
X103664922Y-99618996D01*
X103680094Y-99610886D01*
X103812758Y-99539976D01*
X103973177Y-99491313D01*
X104098196Y-99479000D01*
X104181804Y-99479000D01*
X104306823Y-99491313D01*
X104306823Y-99491313D01*
G37*
G36*
X109386823Y-99491313D02*
G01*
X109547242Y-99539976D01*
X109679906Y-99610886D01*
X109695078Y-99618996D01*
X109824659Y-99725341D01*
X109931004Y-99854922D01*
X109931005Y-99854924D01*
X110010024Y-100002758D01*
X110058687Y-100163177D01*
X110075117Y-100330000D01*
X110058687Y-100496823D01*
X110010024Y-100657242D01*
X109939114Y-100789906D01*
X109931004Y-100805078D01*
X109824659Y-100934659D01*
X109695078Y-101041004D01*
X109695076Y-101041005D01*
X109547242Y-101120024D01*
X109386823Y-101168687D01*
X109261804Y-101181000D01*
X109178196Y-101181000D01*
X109053177Y-101168687D01*
X108892758Y-101120024D01*
X108744924Y-101041005D01*
X108744922Y-101041004D01*
X108615341Y-100934659D01*
X108508996Y-100805078D01*
X108500886Y-100789906D01*
X108429976Y-100657242D01*
X108381313Y-100496823D01*
X108364883Y-100330000D01*
X108381313Y-100163177D01*
X108429976Y-100002758D01*
X108508995Y-99854924D01*
X108508996Y-99854922D01*
X108615341Y-99725341D01*
X108744922Y-99618996D01*
X108760094Y-99610886D01*
X108892758Y-99539976D01*
X109053177Y-99491313D01*
X109178196Y-99479000D01*
X109261804Y-99479000D01*
X109386823Y-99491313D01*
X109386823Y-99491313D01*
G37*
G36*
X114466823Y-99491313D02*
G01*
X114627242Y-99539976D01*
X114759906Y-99610886D01*
X114775078Y-99618996D01*
X114904659Y-99725341D01*
X115011004Y-99854922D01*
X115011005Y-99854924D01*
X115090024Y-100002758D01*
X115138687Y-100163177D01*
X115155117Y-100330000D01*
X115138687Y-100496823D01*
X115090024Y-100657242D01*
X115019114Y-100789906D01*
X115011004Y-100805078D01*
X114904659Y-100934659D01*
X114775078Y-101041004D01*
X114775076Y-101041005D01*
X114627242Y-101120024D01*
X114466823Y-101168687D01*
X114341804Y-101181000D01*
X114258196Y-101181000D01*
X114133177Y-101168687D01*
X113972758Y-101120024D01*
X113824924Y-101041005D01*
X113824922Y-101041004D01*
X113695341Y-100934659D01*
X113588996Y-100805078D01*
X113580886Y-100789906D01*
X113509976Y-100657242D01*
X113461313Y-100496823D01*
X113444883Y-100330000D01*
X113461313Y-100163177D01*
X113509976Y-100002758D01*
X113588995Y-99854924D01*
X113588996Y-99854922D01*
X113695341Y-99725341D01*
X113824922Y-99618996D01*
X113840094Y-99610886D01*
X113972758Y-99539976D01*
X114133177Y-99491313D01*
X114258196Y-99479000D01*
X114341804Y-99479000D01*
X114466823Y-99491313D01*
X114466823Y-99491313D01*
G37*
G36*
X145028228Y-95701703D02*
G01*
X145183100Y-95765853D01*
X145322481Y-95858985D01*
X145441015Y-95977519D01*
X145534147Y-96116900D01*
X145598297Y-96271772D01*
X145631000Y-96436184D01*
X145631000Y-96603816D01*
X145598297Y-96768228D01*
X145534147Y-96923100D01*
X145441015Y-97062481D01*
X145322481Y-97181015D01*
X145183100Y-97274147D01*
X145028228Y-97338297D01*
X144863816Y-97371000D01*
X144696184Y-97371000D01*
X144531772Y-97338297D01*
X144376900Y-97274147D01*
X144237519Y-97181015D01*
X144118985Y-97062481D01*
X144025853Y-96923100D01*
X143961703Y-96768228D01*
X143929000Y-96603816D01*
X143929000Y-96436184D01*
X143961703Y-96271772D01*
X144025853Y-96116900D01*
X144118985Y-95977519D01*
X144237519Y-95858985D01*
X144376900Y-95765853D01*
X144531772Y-95701703D01*
X144696184Y-95669000D01*
X144863816Y-95669000D01*
X145028228Y-95701703D01*
X145028228Y-95701703D01*
G37*
G36*
X129788228Y-95701703D02*
G01*
X129943100Y-95765853D01*
X130082481Y-95858985D01*
X130201015Y-95977519D01*
X130294147Y-96116900D01*
X130358297Y-96271772D01*
X130391000Y-96436184D01*
X130391000Y-96603816D01*
X130358297Y-96768228D01*
X130294147Y-96923100D01*
X130201015Y-97062481D01*
X130082481Y-97181015D01*
X129943100Y-97274147D01*
X129788228Y-97338297D01*
X129623816Y-97371000D01*
X129456184Y-97371000D01*
X129291772Y-97338297D01*
X129136900Y-97274147D01*
X128997519Y-97181015D01*
X128878985Y-97062481D01*
X128785853Y-96923100D01*
X128721703Y-96768228D01*
X128689000Y-96603816D01*
X128689000Y-96436184D01*
X128721703Y-96271772D01*
X128785853Y-96116900D01*
X128878985Y-95977519D01*
X128997519Y-95858985D01*
X129136900Y-95765853D01*
X129291772Y-95701703D01*
X129456184Y-95669000D01*
X129623816Y-95669000D01*
X129788228Y-95701703D01*
X129788228Y-95701703D01*
G37*
G36*
X124788228Y-95701703D02*
G01*
X124943100Y-95765853D01*
X125082481Y-95858985D01*
X125201015Y-95977519D01*
X125294147Y-96116900D01*
X125358297Y-96271772D01*
X125391000Y-96436184D01*
X125391000Y-96603816D01*
X125358297Y-96768228D01*
X125294147Y-96923100D01*
X125201015Y-97062481D01*
X125082481Y-97181015D01*
X124943100Y-97274147D01*
X124788228Y-97338297D01*
X124623816Y-97371000D01*
X124456184Y-97371000D01*
X124291772Y-97338297D01*
X124136900Y-97274147D01*
X123997519Y-97181015D01*
X123878985Y-97062481D01*
X123785853Y-96923100D01*
X123721703Y-96768228D01*
X123689000Y-96603816D01*
X123689000Y-96436184D01*
X123721703Y-96271772D01*
X123785853Y-96116900D01*
X123878985Y-95977519D01*
X123997519Y-95858985D01*
X124136900Y-95765853D01*
X124291772Y-95701703D01*
X124456184Y-95669000D01*
X124623816Y-95669000D01*
X124788228Y-95701703D01*
X124788228Y-95701703D01*
G37*
G36*
X152566823Y-95681313D02*
G01*
X152727242Y-95729976D01*
X152794361Y-95765852D01*
X152875078Y-95808996D01*
X153004659Y-95915341D01*
X153111004Y-96044922D01*
X153111005Y-96044924D01*
X153190024Y-96192758D01*
X153238687Y-96353177D01*
X153255117Y-96520000D01*
X153238687Y-96686823D01*
X153190024Y-96847242D01*
X153149477Y-96923100D01*
X153111004Y-96995078D01*
X153004659Y-97124659D01*
X152875078Y-97231004D01*
X152875076Y-97231005D01*
X152727242Y-97310024D01*
X152566823Y-97358687D01*
X152441804Y-97371000D01*
X152358196Y-97371000D01*
X152233177Y-97358687D01*
X152072758Y-97310024D01*
X151924924Y-97231005D01*
X151924922Y-97231004D01*
X151795341Y-97124659D01*
X151688996Y-96995078D01*
X151650523Y-96923100D01*
X151609976Y-96847242D01*
X151561313Y-96686823D01*
X151544883Y-96520000D01*
X151561313Y-96353177D01*
X151609976Y-96192758D01*
X151688995Y-96044924D01*
X151688996Y-96044922D01*
X151795341Y-95915341D01*
X151924922Y-95808996D01*
X152005639Y-95765852D01*
X152072758Y-95729976D01*
X152233177Y-95681313D01*
X152358196Y-95669000D01*
X152441804Y-95669000D01*
X152566823Y-95681313D01*
X152566823Y-95681313D01*
G37*
G36*
X141136823Y-95681313D02*
G01*
X141297242Y-95729976D01*
X141364361Y-95765852D01*
X141445078Y-95808996D01*
X141574659Y-95915341D01*
X141681004Y-96044922D01*
X141681005Y-96044924D01*
X141760024Y-96192758D01*
X141808687Y-96353177D01*
X141825117Y-96520000D01*
X141808687Y-96686823D01*
X141760024Y-96847242D01*
X141719477Y-96923100D01*
X141681004Y-96995078D01*
X141574659Y-97124659D01*
X141445078Y-97231004D01*
X141445076Y-97231005D01*
X141297242Y-97310024D01*
X141136823Y-97358687D01*
X141011804Y-97371000D01*
X140928196Y-97371000D01*
X140803177Y-97358687D01*
X140642758Y-97310024D01*
X140494924Y-97231005D01*
X140494922Y-97231004D01*
X140365341Y-97124659D01*
X140258996Y-96995078D01*
X140220523Y-96923100D01*
X140179976Y-96847242D01*
X140131313Y-96686823D01*
X140114883Y-96520000D01*
X140131313Y-96353177D01*
X140179976Y-96192758D01*
X140258995Y-96044924D01*
X140258996Y-96044922D01*
X140365341Y-95915341D01*
X140494922Y-95808996D01*
X140575639Y-95765852D01*
X140642758Y-95729976D01*
X140803177Y-95681313D01*
X140928196Y-95669000D01*
X141011804Y-95669000D01*
X141136823Y-95681313D01*
X141136823Y-95681313D01*
G37*
G36*
X133598228Y-95701703D02*
G01*
X133753100Y-95765853D01*
X133892481Y-95858985D01*
X134011015Y-95977519D01*
X134104147Y-96116900D01*
X134168297Y-96271772D01*
X134201000Y-96436184D01*
X134201000Y-96603816D01*
X134168297Y-96768228D01*
X134104147Y-96923100D01*
X134011015Y-97062481D01*
X133892481Y-97181015D01*
X133753100Y-97274147D01*
X133598228Y-97338297D01*
X133433816Y-97371000D01*
X133266184Y-97371000D01*
X133101772Y-97338297D01*
X132946900Y-97274147D01*
X132807519Y-97181015D01*
X132688985Y-97062481D01*
X132595853Y-96923100D01*
X132531703Y-96768228D01*
X132499000Y-96603816D01*
X132499000Y-96436184D01*
X132531703Y-96271772D01*
X132595853Y-96116900D01*
X132688985Y-95977519D01*
X132807519Y-95858985D01*
X132946900Y-95765853D01*
X133101772Y-95701703D01*
X133266184Y-95669000D01*
X133433816Y-95669000D01*
X133598228Y-95701703D01*
X133598228Y-95701703D01*
G37*
G36*
X108256564Y-93659389D02*
G01*
X108447833Y-93738615D01*
X108447835Y-93738616D01*
X108619973Y-93853635D01*
X108766365Y-94000027D01*
X108881385Y-94172167D01*
X108960611Y-94363436D01*
X109001000Y-94566484D01*
X109001000Y-94773516D01*
X108960611Y-94976564D01*
X108881385Y-95167833D01*
X108881384Y-95167835D01*
X108766365Y-95339973D01*
X108619973Y-95486365D01*
X108447835Y-95601384D01*
X108447834Y-95601385D01*
X108447833Y-95601385D01*
X108256564Y-95680611D01*
X108053516Y-95721000D01*
X107846484Y-95721000D01*
X107643436Y-95680611D01*
X107452167Y-95601385D01*
X107452166Y-95601385D01*
X107452165Y-95601384D01*
X107280027Y-95486365D01*
X107133635Y-95339973D01*
X107018616Y-95167835D01*
X107018615Y-95167833D01*
X106939389Y-94976564D01*
X106899000Y-94773516D01*
X106899000Y-94566484D01*
X106939389Y-94363436D01*
X107018615Y-94172167D01*
X107133635Y-94000027D01*
X107280027Y-93853635D01*
X107452165Y-93738616D01*
X107452167Y-93738615D01*
X107643436Y-93659389D01*
X107846484Y-93619000D01*
X108053516Y-93619000D01*
X108256564Y-93659389D01*
X108256564Y-93659389D01*
G37*
G36*
X164286564Y-93659389D02*
G01*
X164477833Y-93738615D01*
X164477835Y-93738616D01*
X164649973Y-93853635D01*
X164796365Y-94000027D01*
X164911385Y-94172167D01*
X164990611Y-94363436D01*
X165031000Y-94566484D01*
X165031000Y-94773516D01*
X164990611Y-94976564D01*
X164911385Y-95167833D01*
X164911384Y-95167835D01*
X164796365Y-95339973D01*
X164649973Y-95486365D01*
X164477835Y-95601384D01*
X164477834Y-95601385D01*
X164477833Y-95601385D01*
X164286564Y-95680611D01*
X164083516Y-95721000D01*
X163876484Y-95721000D01*
X163673436Y-95680611D01*
X163482167Y-95601385D01*
X163482166Y-95601385D01*
X163482165Y-95601384D01*
X163310027Y-95486365D01*
X163163635Y-95339973D01*
X163048616Y-95167835D01*
X163048615Y-95167833D01*
X162969389Y-94976564D01*
X162929000Y-94773516D01*
X162929000Y-94566484D01*
X162969389Y-94363436D01*
X163048615Y-94172167D01*
X163163635Y-94000027D01*
X163310027Y-93853635D01*
X163482165Y-93738616D01*
X163482167Y-93738615D01*
X163673436Y-93659389D01*
X163876484Y-93619000D01*
X164083516Y-93619000D01*
X164286564Y-93659389D01*
X164286564Y-93659389D01*
G37*
G36*
X157786564Y-93659389D02*
G01*
X157977833Y-93738615D01*
X157977835Y-93738616D01*
X158149973Y-93853635D01*
X158296365Y-94000027D01*
X158411385Y-94172167D01*
X158490611Y-94363436D01*
X158531000Y-94566484D01*
X158531000Y-94773516D01*
X158490611Y-94976564D01*
X158411385Y-95167833D01*
X158411384Y-95167835D01*
X158296365Y-95339973D01*
X158149973Y-95486365D01*
X157977835Y-95601384D01*
X157977834Y-95601385D01*
X157977833Y-95601385D01*
X157786564Y-95680611D01*
X157583516Y-95721000D01*
X157376484Y-95721000D01*
X157173436Y-95680611D01*
X156982167Y-95601385D01*
X156982166Y-95601385D01*
X156982165Y-95601384D01*
X156810027Y-95486365D01*
X156663635Y-95339973D01*
X156548616Y-95167835D01*
X156548615Y-95167833D01*
X156469389Y-94976564D01*
X156429000Y-94773516D01*
X156429000Y-94566484D01*
X156469389Y-94363436D01*
X156548615Y-94172167D01*
X156663635Y-94000027D01*
X156810027Y-93853635D01*
X156982165Y-93738616D01*
X156982167Y-93738615D01*
X157173436Y-93659389D01*
X157376484Y-93619000D01*
X157583516Y-93619000D01*
X157786564Y-93659389D01*
X157786564Y-93659389D01*
G37*
G36*
X114756564Y-93659389D02*
G01*
X114947833Y-93738615D01*
X114947835Y-93738616D01*
X115119973Y-93853635D01*
X115266365Y-94000027D01*
X115381385Y-94172167D01*
X115460611Y-94363436D01*
X115501000Y-94566484D01*
X115501000Y-94773516D01*
X115460611Y-94976564D01*
X115381385Y-95167833D01*
X115381384Y-95167835D01*
X115266365Y-95339973D01*
X115119973Y-95486365D01*
X114947835Y-95601384D01*
X114947834Y-95601385D01*
X114947833Y-95601385D01*
X114756564Y-95680611D01*
X114553516Y-95721000D01*
X114346484Y-95721000D01*
X114143436Y-95680611D01*
X113952167Y-95601385D01*
X113952166Y-95601385D01*
X113952165Y-95601384D01*
X113780027Y-95486365D01*
X113633635Y-95339973D01*
X113518616Y-95167835D01*
X113518615Y-95167833D01*
X113439389Y-94976564D01*
X113399000Y-94773516D01*
X113399000Y-94566484D01*
X113439389Y-94363436D01*
X113518615Y-94172167D01*
X113633635Y-94000027D01*
X113780027Y-93853635D01*
X113952165Y-93738616D01*
X113952167Y-93738615D01*
X114143436Y-93659389D01*
X114346484Y-93619000D01*
X114553516Y-93619000D01*
X114756564Y-93659389D01*
X114756564Y-93659389D01*
G37*
G36*
X141218228Y-90621703D02*
G01*
X141373100Y-90685853D01*
X141512481Y-90778985D01*
X141631015Y-90897519D01*
X141724147Y-91036900D01*
X141788297Y-91191772D01*
X141821000Y-91356184D01*
X141821000Y-91523816D01*
X141788297Y-91688228D01*
X141724147Y-91843100D01*
X141631015Y-91982481D01*
X141512481Y-92101015D01*
X141373100Y-92194147D01*
X141218228Y-92258297D01*
X141053816Y-92291000D01*
X140886184Y-92291000D01*
X140721772Y-92258297D01*
X140566900Y-92194147D01*
X140427519Y-92101015D01*
X140308985Y-91982481D01*
X140215853Y-91843100D01*
X140151703Y-91688228D01*
X140119000Y-91523816D01*
X140119000Y-91356184D01*
X140151703Y-91191772D01*
X140215853Y-91036900D01*
X140308985Y-90897519D01*
X140427519Y-90778985D01*
X140566900Y-90685853D01*
X140721772Y-90621703D01*
X140886184Y-90589000D01*
X141053816Y-90589000D01*
X141218228Y-90621703D01*
X141218228Y-90621703D01*
G37*
G36*
X136138228Y-90621703D02*
G01*
X136293100Y-90685853D01*
X136432481Y-90778985D01*
X136551015Y-90897519D01*
X136644147Y-91036900D01*
X136708297Y-91191772D01*
X136741000Y-91356184D01*
X136741000Y-91523816D01*
X136708297Y-91688228D01*
X136644147Y-91843100D01*
X136551015Y-91982481D01*
X136432481Y-92101015D01*
X136293100Y-92194147D01*
X136138228Y-92258297D01*
X135973816Y-92291000D01*
X135806184Y-92291000D01*
X135641772Y-92258297D01*
X135486900Y-92194147D01*
X135347519Y-92101015D01*
X135228985Y-91982481D01*
X135135853Y-91843100D01*
X135071703Y-91688228D01*
X135039000Y-91523816D01*
X135039000Y-91356184D01*
X135071703Y-91191772D01*
X135135853Y-91036900D01*
X135228985Y-90897519D01*
X135347519Y-90778985D01*
X135486900Y-90685853D01*
X135641772Y-90621703D01*
X135806184Y-90589000D01*
X135973816Y-90589000D01*
X136138228Y-90621703D01*
X136138228Y-90621703D01*
G37*
G36*
X131058228Y-90621703D02*
G01*
X131213100Y-90685853D01*
X131352481Y-90778985D01*
X131471015Y-90897519D01*
X131564147Y-91036900D01*
X131628297Y-91191772D01*
X131661000Y-91356184D01*
X131661000Y-91523816D01*
X131628297Y-91688228D01*
X131564147Y-91843100D01*
X131471015Y-91982481D01*
X131352481Y-92101015D01*
X131213100Y-92194147D01*
X131058228Y-92258297D01*
X130893816Y-92291000D01*
X130726184Y-92291000D01*
X130561772Y-92258297D01*
X130406900Y-92194147D01*
X130267519Y-92101015D01*
X130148985Y-91982481D01*
X130055853Y-91843100D01*
X129991703Y-91688228D01*
X129959000Y-91523816D01*
X129959000Y-91356184D01*
X129991703Y-91191772D01*
X130055853Y-91036900D01*
X130148985Y-90897519D01*
X130267519Y-90778985D01*
X130406900Y-90685853D01*
X130561772Y-90621703D01*
X130726184Y-90589000D01*
X130893816Y-90589000D01*
X131058228Y-90621703D01*
X131058228Y-90621703D01*
G37*
G36*
X157786564Y-89159389D02*
G01*
X157977833Y-89238615D01*
X157977835Y-89238616D01*
X158044911Y-89283435D01*
X158149973Y-89353635D01*
X158296365Y-89500027D01*
X158411385Y-89672167D01*
X158490611Y-89863436D01*
X158531000Y-90066484D01*
X158531000Y-90273516D01*
X158490611Y-90476564D01*
X158411385Y-90667833D01*
X158411384Y-90667835D01*
X158296365Y-90839973D01*
X158149973Y-90986365D01*
X157977835Y-91101384D01*
X157977834Y-91101385D01*
X157977833Y-91101385D01*
X157786564Y-91180611D01*
X157583516Y-91221000D01*
X157376484Y-91221000D01*
X157173436Y-91180611D01*
X156982167Y-91101385D01*
X156982166Y-91101385D01*
X156982165Y-91101384D01*
X156810027Y-90986365D01*
X156663635Y-90839973D01*
X156548616Y-90667835D01*
X156548615Y-90667833D01*
X156469389Y-90476564D01*
X156429000Y-90273516D01*
X156429000Y-90066484D01*
X156469389Y-89863436D01*
X156548615Y-89672167D01*
X156663635Y-89500027D01*
X156810027Y-89353635D01*
X156915089Y-89283435D01*
X156982165Y-89238616D01*
X156982167Y-89238615D01*
X157173436Y-89159389D01*
X157376484Y-89119000D01*
X157583516Y-89119000D01*
X157786564Y-89159389D01*
X157786564Y-89159389D01*
G37*
G36*
X164286564Y-89159389D02*
G01*
X164477833Y-89238615D01*
X164477835Y-89238616D01*
X164544911Y-89283435D01*
X164649973Y-89353635D01*
X164796365Y-89500027D01*
X164911385Y-89672167D01*
X164990611Y-89863436D01*
X165031000Y-90066484D01*
X165031000Y-90273516D01*
X164990611Y-90476564D01*
X164911385Y-90667833D01*
X164911384Y-90667835D01*
X164796365Y-90839973D01*
X164649973Y-90986365D01*
X164477835Y-91101384D01*
X164477834Y-91101385D01*
X164477833Y-91101385D01*
X164286564Y-91180611D01*
X164083516Y-91221000D01*
X163876484Y-91221000D01*
X163673436Y-91180611D01*
X163482167Y-91101385D01*
X163482166Y-91101385D01*
X163482165Y-91101384D01*
X163310027Y-90986365D01*
X163163635Y-90839973D01*
X163048616Y-90667835D01*
X163048615Y-90667833D01*
X162969389Y-90476564D01*
X162929000Y-90273516D01*
X162929000Y-90066484D01*
X162969389Y-89863436D01*
X163048615Y-89672167D01*
X163163635Y-89500027D01*
X163310027Y-89353635D01*
X163415089Y-89283435D01*
X163482165Y-89238616D01*
X163482167Y-89238615D01*
X163673436Y-89159389D01*
X163876484Y-89119000D01*
X164083516Y-89119000D01*
X164286564Y-89159389D01*
X164286564Y-89159389D01*
G37*
G36*
X114756564Y-89159389D02*
G01*
X114947833Y-89238615D01*
X114947835Y-89238616D01*
X115014911Y-89283435D01*
X115119973Y-89353635D01*
X115266365Y-89500027D01*
X115381385Y-89672167D01*
X115460611Y-89863436D01*
X115501000Y-90066484D01*
X115501000Y-90273516D01*
X115460611Y-90476564D01*
X115381385Y-90667833D01*
X115381384Y-90667835D01*
X115266365Y-90839973D01*
X115119973Y-90986365D01*
X114947835Y-91101384D01*
X114947834Y-91101385D01*
X114947833Y-91101385D01*
X114756564Y-91180611D01*
X114553516Y-91221000D01*
X114346484Y-91221000D01*
X114143436Y-91180611D01*
X113952167Y-91101385D01*
X113952166Y-91101385D01*
X113952165Y-91101384D01*
X113780027Y-90986365D01*
X113633635Y-90839973D01*
X113518616Y-90667835D01*
X113518615Y-90667833D01*
X113439389Y-90476564D01*
X113399000Y-90273516D01*
X113399000Y-90066484D01*
X113439389Y-89863436D01*
X113518615Y-89672167D01*
X113633635Y-89500027D01*
X113780027Y-89353635D01*
X113885089Y-89283435D01*
X113952165Y-89238616D01*
X113952167Y-89238615D01*
X114143436Y-89159389D01*
X114346484Y-89119000D01*
X114553516Y-89119000D01*
X114756564Y-89159389D01*
X114756564Y-89159389D01*
G37*
G36*
X108256564Y-89159389D02*
G01*
X108447833Y-89238615D01*
X108447835Y-89238616D01*
X108514911Y-89283435D01*
X108619973Y-89353635D01*
X108766365Y-89500027D01*
X108881385Y-89672167D01*
X108960611Y-89863436D01*
X109001000Y-90066484D01*
X109001000Y-90273516D01*
X108960611Y-90476564D01*
X108881385Y-90667833D01*
X108881384Y-90667835D01*
X108766365Y-90839973D01*
X108619973Y-90986365D01*
X108447835Y-91101384D01*
X108447834Y-91101385D01*
X108447833Y-91101385D01*
X108256564Y-91180611D01*
X108053516Y-91221000D01*
X107846484Y-91221000D01*
X107643436Y-91180611D01*
X107452167Y-91101385D01*
X107452166Y-91101385D01*
X107452165Y-91101384D01*
X107280027Y-90986365D01*
X107133635Y-90839973D01*
X107018616Y-90667835D01*
X107018615Y-90667833D01*
X106939389Y-90476564D01*
X106899000Y-90273516D01*
X106899000Y-90066484D01*
X106939389Y-89863436D01*
X107018615Y-89672167D01*
X107133635Y-89500027D01*
X107280027Y-89353635D01*
X107385089Y-89283435D01*
X107452165Y-89238616D01*
X107452167Y-89238615D01*
X107643436Y-89159389D01*
X107846484Y-89119000D01*
X108053516Y-89119000D01*
X108256564Y-89159389D01*
X108256564Y-89159389D01*
G37*
G36*
X104596564Y-88579389D02*
G01*
X104787833Y-88658615D01*
X104787835Y-88658616D01*
X104959973Y-88773635D01*
X105106365Y-88920027D01*
X105221385Y-89092167D01*
X105300611Y-89283436D01*
X105341000Y-89486484D01*
X105341000Y-89693516D01*
X105300611Y-89896564D01*
X105230228Y-90066484D01*
X105221384Y-90087835D01*
X105106365Y-90259973D01*
X104959973Y-90406365D01*
X104787835Y-90521384D01*
X104787834Y-90521385D01*
X104787833Y-90521385D01*
X104596564Y-90600611D01*
X104393516Y-90641000D01*
X104186484Y-90641000D01*
X103983436Y-90600611D01*
X103792167Y-90521385D01*
X103792166Y-90521385D01*
X103792165Y-90521384D01*
X103620027Y-90406365D01*
X103473635Y-90259973D01*
X103358616Y-90087835D01*
X103349772Y-90066484D01*
X103279389Y-89896564D01*
X103239000Y-89693516D01*
X103239000Y-89486484D01*
X103279389Y-89283436D01*
X103358615Y-89092167D01*
X103473635Y-88920027D01*
X103620027Y-88773635D01*
X103792165Y-88658616D01*
X103792167Y-88658615D01*
X103983436Y-88579389D01*
X104186484Y-88539000D01*
X104393516Y-88539000D01*
X104596564Y-88579389D01*
X104596564Y-88579389D01*
G37*
G36*
X147626564Y-88579389D02*
G01*
X147817833Y-88658615D01*
X147817835Y-88658616D01*
X147989973Y-88773635D01*
X148136365Y-88920027D01*
X148251385Y-89092167D01*
X148330611Y-89283436D01*
X148371000Y-89486484D01*
X148371000Y-89693516D01*
X148330611Y-89896564D01*
X148260228Y-90066484D01*
X148251384Y-90087835D01*
X148136365Y-90259973D01*
X147989973Y-90406365D01*
X147817835Y-90521384D01*
X147817834Y-90521385D01*
X147817833Y-90521385D01*
X147626564Y-90600611D01*
X147423516Y-90641000D01*
X147216484Y-90641000D01*
X147013436Y-90600611D01*
X146822167Y-90521385D01*
X146822166Y-90521385D01*
X146822165Y-90521384D01*
X146650027Y-90406365D01*
X146503635Y-90259973D01*
X146388616Y-90087835D01*
X146379772Y-90066484D01*
X146309389Y-89896564D01*
X146269000Y-89693516D01*
X146269000Y-89486484D01*
X146309389Y-89283436D01*
X146388615Y-89092167D01*
X146503635Y-88920027D01*
X146650027Y-88773635D01*
X146822165Y-88658616D01*
X146822167Y-88658615D01*
X147013436Y-88579389D01*
X147216484Y-88539000D01*
X147423516Y-88539000D01*
X147626564Y-88579389D01*
X147626564Y-88579389D01*
G37*
G36*
X154126564Y-88579389D02*
G01*
X154317833Y-88658615D01*
X154317835Y-88658616D01*
X154489973Y-88773635D01*
X154636365Y-88920027D01*
X154751385Y-89092167D01*
X154830611Y-89283436D01*
X154871000Y-89486484D01*
X154871000Y-89693516D01*
X154830611Y-89896564D01*
X154760228Y-90066484D01*
X154751384Y-90087835D01*
X154636365Y-90259973D01*
X154489973Y-90406365D01*
X154317835Y-90521384D01*
X154317834Y-90521385D01*
X154317833Y-90521385D01*
X154126564Y-90600611D01*
X153923516Y-90641000D01*
X153716484Y-90641000D01*
X153513436Y-90600611D01*
X153322167Y-90521385D01*
X153322166Y-90521385D01*
X153322165Y-90521384D01*
X153150027Y-90406365D01*
X153003635Y-90259973D01*
X152888616Y-90087835D01*
X152879772Y-90066484D01*
X152809389Y-89896564D01*
X152769000Y-89693516D01*
X152769000Y-89486484D01*
X152809389Y-89283436D01*
X152888615Y-89092167D01*
X153003635Y-88920027D01*
X153150027Y-88773635D01*
X153322165Y-88658616D01*
X153322167Y-88658615D01*
X153513436Y-88579389D01*
X153716484Y-88539000D01*
X153923516Y-88539000D01*
X154126564Y-88579389D01*
X154126564Y-88579389D01*
G37*
G36*
X167946564Y-88579389D02*
G01*
X168137833Y-88658615D01*
X168137835Y-88658616D01*
X168309973Y-88773635D01*
X168456365Y-88920027D01*
X168571385Y-89092167D01*
X168650611Y-89283436D01*
X168691000Y-89486484D01*
X168691000Y-89693516D01*
X168650611Y-89896564D01*
X168580228Y-90066484D01*
X168571384Y-90087835D01*
X168456365Y-90259973D01*
X168309973Y-90406365D01*
X168137835Y-90521384D01*
X168137834Y-90521385D01*
X168137833Y-90521385D01*
X167946564Y-90600611D01*
X167743516Y-90641000D01*
X167536484Y-90641000D01*
X167333436Y-90600611D01*
X167142167Y-90521385D01*
X167142166Y-90521385D01*
X167142165Y-90521384D01*
X166970027Y-90406365D01*
X166823635Y-90259973D01*
X166708616Y-90087835D01*
X166699772Y-90066484D01*
X166629389Y-89896564D01*
X166589000Y-89693516D01*
X166589000Y-89486484D01*
X166629389Y-89283436D01*
X166708615Y-89092167D01*
X166823635Y-88920027D01*
X166970027Y-88773635D01*
X167142165Y-88658616D01*
X167142167Y-88658615D01*
X167333436Y-88579389D01*
X167536484Y-88539000D01*
X167743516Y-88539000D01*
X167946564Y-88579389D01*
X167946564Y-88579389D01*
G37*
G36*
X174446564Y-88579389D02*
G01*
X174637833Y-88658615D01*
X174637835Y-88658616D01*
X174809973Y-88773635D01*
X174956365Y-88920027D01*
X175071385Y-89092167D01*
X175150611Y-89283436D01*
X175191000Y-89486484D01*
X175191000Y-89693516D01*
X175150611Y-89896564D01*
X175080228Y-90066484D01*
X175071384Y-90087835D01*
X174956365Y-90259973D01*
X174809973Y-90406365D01*
X174637835Y-90521384D01*
X174637834Y-90521385D01*
X174637833Y-90521385D01*
X174446564Y-90600611D01*
X174243516Y-90641000D01*
X174036484Y-90641000D01*
X173833436Y-90600611D01*
X173642167Y-90521385D01*
X173642166Y-90521385D01*
X173642165Y-90521384D01*
X173470027Y-90406365D01*
X173323635Y-90259973D01*
X173208616Y-90087835D01*
X173199772Y-90066484D01*
X173129389Y-89896564D01*
X173089000Y-89693516D01*
X173089000Y-89486484D01*
X173129389Y-89283436D01*
X173208615Y-89092167D01*
X173323635Y-88920027D01*
X173470027Y-88773635D01*
X173642165Y-88658616D01*
X173642167Y-88658615D01*
X173833436Y-88579389D01*
X174036484Y-88539000D01*
X174243516Y-88539000D01*
X174446564Y-88579389D01*
X174446564Y-88579389D01*
G37*
G36*
X118416564Y-88579389D02*
G01*
X118607833Y-88658615D01*
X118607835Y-88658616D01*
X118779973Y-88773635D01*
X118926365Y-88920027D01*
X119041385Y-89092167D01*
X119120611Y-89283436D01*
X119161000Y-89486484D01*
X119161000Y-89693516D01*
X119120611Y-89896564D01*
X119050228Y-90066484D01*
X119041384Y-90087835D01*
X118926365Y-90259973D01*
X118779973Y-90406365D01*
X118607835Y-90521384D01*
X118607834Y-90521385D01*
X118607833Y-90521385D01*
X118416564Y-90600611D01*
X118213516Y-90641000D01*
X118006484Y-90641000D01*
X117803436Y-90600611D01*
X117612167Y-90521385D01*
X117612166Y-90521385D01*
X117612165Y-90521384D01*
X117440027Y-90406365D01*
X117293635Y-90259973D01*
X117178616Y-90087835D01*
X117169772Y-90066484D01*
X117099389Y-89896564D01*
X117059000Y-89693516D01*
X117059000Y-89486484D01*
X117099389Y-89283436D01*
X117178615Y-89092167D01*
X117293635Y-88920027D01*
X117440027Y-88773635D01*
X117612165Y-88658616D01*
X117612167Y-88658615D01*
X117803436Y-88579389D01*
X118006484Y-88539000D01*
X118213516Y-88539000D01*
X118416564Y-88579389D01*
X118416564Y-88579389D01*
G37*
G36*
X98096564Y-88579389D02*
G01*
X98287833Y-88658615D01*
X98287835Y-88658616D01*
X98459973Y-88773635D01*
X98606365Y-88920027D01*
X98721385Y-89092167D01*
X98800611Y-89283436D01*
X98841000Y-89486484D01*
X98841000Y-89693516D01*
X98800611Y-89896564D01*
X98730228Y-90066484D01*
X98721384Y-90087835D01*
X98606365Y-90259973D01*
X98459973Y-90406365D01*
X98287835Y-90521384D01*
X98287834Y-90521385D01*
X98287833Y-90521385D01*
X98096564Y-90600611D01*
X97893516Y-90641000D01*
X97686484Y-90641000D01*
X97483436Y-90600611D01*
X97292167Y-90521385D01*
X97292166Y-90521385D01*
X97292165Y-90521384D01*
X97120027Y-90406365D01*
X96973635Y-90259973D01*
X96858616Y-90087835D01*
X96849772Y-90066484D01*
X96779389Y-89896564D01*
X96739000Y-89693516D01*
X96739000Y-89486484D01*
X96779389Y-89283436D01*
X96858615Y-89092167D01*
X96973635Y-88920027D01*
X97120027Y-88773635D01*
X97292165Y-88658616D01*
X97292167Y-88658615D01*
X97483436Y-88579389D01*
X97686484Y-88539000D01*
X97893516Y-88539000D01*
X98096564Y-88579389D01*
X98096564Y-88579389D01*
G37*
G36*
X124916564Y-88579389D02*
G01*
X125107833Y-88658615D01*
X125107835Y-88658616D01*
X125279973Y-88773635D01*
X125426365Y-88920027D01*
X125541385Y-89092167D01*
X125620611Y-89283436D01*
X125661000Y-89486484D01*
X125661000Y-89693516D01*
X125620611Y-89896564D01*
X125550228Y-90066484D01*
X125541384Y-90087835D01*
X125426365Y-90259973D01*
X125279973Y-90406365D01*
X125107835Y-90521384D01*
X125107834Y-90521385D01*
X125107833Y-90521385D01*
X124916564Y-90600611D01*
X124713516Y-90641000D01*
X124506484Y-90641000D01*
X124303436Y-90600611D01*
X124112167Y-90521385D01*
X124112166Y-90521385D01*
X124112165Y-90521384D01*
X123940027Y-90406365D01*
X123793635Y-90259973D01*
X123678616Y-90087835D01*
X123669772Y-90066484D01*
X123599389Y-89896564D01*
X123559000Y-89693516D01*
X123559000Y-89486484D01*
X123599389Y-89283436D01*
X123678615Y-89092167D01*
X123793635Y-88920027D01*
X123940027Y-88773635D01*
X124112165Y-88658616D01*
X124112167Y-88658615D01*
X124303436Y-88579389D01*
X124506484Y-88539000D01*
X124713516Y-88539000D01*
X124916564Y-88579389D01*
X124916564Y-88579389D01*
G37*
G36*
X98096564Y-84079389D02*
G01*
X98260376Y-84147242D01*
X98287835Y-84158616D01*
X98459973Y-84273635D01*
X98606365Y-84420027D01*
X98680518Y-84531004D01*
X98721385Y-84592167D01*
X98800611Y-84783436D01*
X98841000Y-84986484D01*
X98841000Y-85193516D01*
X98800611Y-85396564D01*
X98721385Y-85587833D01*
X98721384Y-85587835D01*
X98606365Y-85759973D01*
X98459973Y-85906365D01*
X98287835Y-86021384D01*
X98287834Y-86021385D01*
X98287833Y-86021385D01*
X98096564Y-86100611D01*
X97893516Y-86141000D01*
X97686484Y-86141000D01*
X97483436Y-86100611D01*
X97292167Y-86021385D01*
X97292166Y-86021385D01*
X97292165Y-86021384D01*
X97120027Y-85906365D01*
X96973635Y-85759973D01*
X96858616Y-85587835D01*
X96858615Y-85587833D01*
X96779389Y-85396564D01*
X96739000Y-85193516D01*
X96739000Y-84986484D01*
X96779389Y-84783436D01*
X96858615Y-84592167D01*
X96899483Y-84531004D01*
X96973635Y-84420027D01*
X97120027Y-84273635D01*
X97292165Y-84158616D01*
X97319624Y-84147242D01*
X97483436Y-84079389D01*
X97686484Y-84039000D01*
X97893516Y-84039000D01*
X98096564Y-84079389D01*
X98096564Y-84079389D01*
G37*
G36*
X147626564Y-84079389D02*
G01*
X147790376Y-84147242D01*
X147817835Y-84158616D01*
X147989973Y-84273635D01*
X148136365Y-84420027D01*
X148210518Y-84531004D01*
X148251385Y-84592167D01*
X148330611Y-84783436D01*
X148371000Y-84986484D01*
X148371000Y-85193516D01*
X148330611Y-85396564D01*
X148251385Y-85587833D01*
X148251384Y-85587835D01*
X148136365Y-85759973D01*
X147989973Y-85906365D01*
X147817835Y-86021384D01*
X147817834Y-86021385D01*
X147817833Y-86021385D01*
X147626564Y-86100611D01*
X147423516Y-86141000D01*
X147216484Y-86141000D01*
X147013436Y-86100611D01*
X146822167Y-86021385D01*
X146822166Y-86021385D01*
X146822165Y-86021384D01*
X146650027Y-85906365D01*
X146503635Y-85759973D01*
X146388616Y-85587835D01*
X146388615Y-85587833D01*
X146309389Y-85396564D01*
X146269000Y-85193516D01*
X146269000Y-84986484D01*
X146309389Y-84783436D01*
X146388615Y-84592167D01*
X146429483Y-84531004D01*
X146503635Y-84420027D01*
X146650027Y-84273635D01*
X146822165Y-84158616D01*
X146849624Y-84147242D01*
X147013436Y-84079389D01*
X147216484Y-84039000D01*
X147423516Y-84039000D01*
X147626564Y-84079389D01*
X147626564Y-84079389D01*
G37*
G36*
X124916564Y-84079389D02*
G01*
X125080376Y-84147242D01*
X125107835Y-84158616D01*
X125279973Y-84273635D01*
X125426365Y-84420027D01*
X125500518Y-84531004D01*
X125541385Y-84592167D01*
X125620611Y-84783436D01*
X125661000Y-84986484D01*
X125661000Y-85193516D01*
X125620611Y-85396564D01*
X125541385Y-85587833D01*
X125541384Y-85587835D01*
X125426365Y-85759973D01*
X125279973Y-85906365D01*
X125107835Y-86021384D01*
X125107834Y-86021385D01*
X125107833Y-86021385D01*
X124916564Y-86100611D01*
X124713516Y-86141000D01*
X124506484Y-86141000D01*
X124303436Y-86100611D01*
X124112167Y-86021385D01*
X124112166Y-86021385D01*
X124112165Y-86021384D01*
X123940027Y-85906365D01*
X123793635Y-85759973D01*
X123678616Y-85587835D01*
X123678615Y-85587833D01*
X123599389Y-85396564D01*
X123559000Y-85193516D01*
X123559000Y-84986484D01*
X123599389Y-84783436D01*
X123678615Y-84592167D01*
X123719483Y-84531004D01*
X123793635Y-84420027D01*
X123940027Y-84273635D01*
X124112165Y-84158616D01*
X124139624Y-84147242D01*
X124303436Y-84079389D01*
X124506484Y-84039000D01*
X124713516Y-84039000D01*
X124916564Y-84079389D01*
X124916564Y-84079389D01*
G37*
G36*
X154126564Y-84079389D02*
G01*
X154290376Y-84147242D01*
X154317835Y-84158616D01*
X154489973Y-84273635D01*
X154636365Y-84420027D01*
X154710518Y-84531004D01*
X154751385Y-84592167D01*
X154830611Y-84783436D01*
X154871000Y-84986484D01*
X154871000Y-85193516D01*
X154830611Y-85396564D01*
X154751385Y-85587833D01*
X154751384Y-85587835D01*
X154636365Y-85759973D01*
X154489973Y-85906365D01*
X154317835Y-86021384D01*
X154317834Y-86021385D01*
X154317833Y-86021385D01*
X154126564Y-86100611D01*
X153923516Y-86141000D01*
X153716484Y-86141000D01*
X153513436Y-86100611D01*
X153322167Y-86021385D01*
X153322166Y-86021385D01*
X153322165Y-86021384D01*
X153150027Y-85906365D01*
X153003635Y-85759973D01*
X152888616Y-85587835D01*
X152888615Y-85587833D01*
X152809389Y-85396564D01*
X152769000Y-85193516D01*
X152769000Y-84986484D01*
X152809389Y-84783436D01*
X152888615Y-84592167D01*
X152929483Y-84531004D01*
X153003635Y-84420027D01*
X153150027Y-84273635D01*
X153322165Y-84158616D01*
X153349624Y-84147242D01*
X153513436Y-84079389D01*
X153716484Y-84039000D01*
X153923516Y-84039000D01*
X154126564Y-84079389D01*
X154126564Y-84079389D01*
G37*
G36*
X174446564Y-84079389D02*
G01*
X174610376Y-84147242D01*
X174637835Y-84158616D01*
X174809973Y-84273635D01*
X174956365Y-84420027D01*
X175030518Y-84531004D01*
X175071385Y-84592167D01*
X175150611Y-84783436D01*
X175191000Y-84986484D01*
X175191000Y-85193516D01*
X175150611Y-85396564D01*
X175071385Y-85587833D01*
X175071384Y-85587835D01*
X174956365Y-85759973D01*
X174809973Y-85906365D01*
X174637835Y-86021384D01*
X174637834Y-86021385D01*
X174637833Y-86021385D01*
X174446564Y-86100611D01*
X174243516Y-86141000D01*
X174036484Y-86141000D01*
X173833436Y-86100611D01*
X173642167Y-86021385D01*
X173642166Y-86021385D01*
X173642165Y-86021384D01*
X173470027Y-85906365D01*
X173323635Y-85759973D01*
X173208616Y-85587835D01*
X173208615Y-85587833D01*
X173129389Y-85396564D01*
X173089000Y-85193516D01*
X173089000Y-84986484D01*
X173129389Y-84783436D01*
X173208615Y-84592167D01*
X173249483Y-84531004D01*
X173323635Y-84420027D01*
X173470027Y-84273635D01*
X173642165Y-84158616D01*
X173669624Y-84147242D01*
X173833436Y-84079389D01*
X174036484Y-84039000D01*
X174243516Y-84039000D01*
X174446564Y-84079389D01*
X174446564Y-84079389D01*
G37*
G36*
X118416564Y-84079389D02*
G01*
X118580376Y-84147242D01*
X118607835Y-84158616D01*
X118779973Y-84273635D01*
X118926365Y-84420027D01*
X119000518Y-84531004D01*
X119041385Y-84592167D01*
X119120611Y-84783436D01*
X119161000Y-84986484D01*
X119161000Y-85193516D01*
X119120611Y-85396564D01*
X119041385Y-85587833D01*
X119041384Y-85587835D01*
X118926365Y-85759973D01*
X118779973Y-85906365D01*
X118607835Y-86021384D01*
X118607834Y-86021385D01*
X118607833Y-86021385D01*
X118416564Y-86100611D01*
X118213516Y-86141000D01*
X118006484Y-86141000D01*
X117803436Y-86100611D01*
X117612167Y-86021385D01*
X117612166Y-86021385D01*
X117612165Y-86021384D01*
X117440027Y-85906365D01*
X117293635Y-85759973D01*
X117178616Y-85587835D01*
X117178615Y-85587833D01*
X117099389Y-85396564D01*
X117059000Y-85193516D01*
X117059000Y-84986484D01*
X117099389Y-84783436D01*
X117178615Y-84592167D01*
X117219483Y-84531004D01*
X117293635Y-84420027D01*
X117440027Y-84273635D01*
X117612165Y-84158616D01*
X117639624Y-84147242D01*
X117803436Y-84079389D01*
X118006484Y-84039000D01*
X118213516Y-84039000D01*
X118416564Y-84079389D01*
X118416564Y-84079389D01*
G37*
G36*
X104596564Y-84079389D02*
G01*
X104760376Y-84147242D01*
X104787835Y-84158616D01*
X104959973Y-84273635D01*
X105106365Y-84420027D01*
X105180518Y-84531004D01*
X105221385Y-84592167D01*
X105300611Y-84783436D01*
X105341000Y-84986484D01*
X105341000Y-85193516D01*
X105300611Y-85396564D01*
X105221385Y-85587833D01*
X105221384Y-85587835D01*
X105106365Y-85759973D01*
X104959973Y-85906365D01*
X104787835Y-86021384D01*
X104787834Y-86021385D01*
X104787833Y-86021385D01*
X104596564Y-86100611D01*
X104393516Y-86141000D01*
X104186484Y-86141000D01*
X103983436Y-86100611D01*
X103792167Y-86021385D01*
X103792166Y-86021385D01*
X103792165Y-86021384D01*
X103620027Y-85906365D01*
X103473635Y-85759973D01*
X103358616Y-85587835D01*
X103358615Y-85587833D01*
X103279389Y-85396564D01*
X103239000Y-85193516D01*
X103239000Y-84986484D01*
X103279389Y-84783436D01*
X103358615Y-84592167D01*
X103399483Y-84531004D01*
X103473635Y-84420027D01*
X103620027Y-84273635D01*
X103792165Y-84158616D01*
X103819624Y-84147242D01*
X103983436Y-84079389D01*
X104186484Y-84039000D01*
X104393516Y-84039000D01*
X104596564Y-84079389D01*
X104596564Y-84079389D01*
G37*
G36*
X167946564Y-84079389D02*
G01*
X168110376Y-84147242D01*
X168137835Y-84158616D01*
X168309973Y-84273635D01*
X168456365Y-84420027D01*
X168530518Y-84531004D01*
X168571385Y-84592167D01*
X168650611Y-84783436D01*
X168691000Y-84986484D01*
X168691000Y-85193516D01*
X168650611Y-85396564D01*
X168571385Y-85587833D01*
X168571384Y-85587835D01*
X168456365Y-85759973D01*
X168309973Y-85906365D01*
X168137835Y-86021384D01*
X168137834Y-86021385D01*
X168137833Y-86021385D01*
X167946564Y-86100611D01*
X167743516Y-86141000D01*
X167536484Y-86141000D01*
X167333436Y-86100611D01*
X167142167Y-86021385D01*
X167142166Y-86021385D01*
X167142165Y-86021384D01*
X166970027Y-85906365D01*
X166823635Y-85759973D01*
X166708616Y-85587835D01*
X166708615Y-85587833D01*
X166629389Y-85396564D01*
X166589000Y-85193516D01*
X166589000Y-84986484D01*
X166629389Y-84783436D01*
X166708615Y-84592167D01*
X166749483Y-84531004D01*
X166823635Y-84420027D01*
X166970027Y-84273635D01*
X167142165Y-84158616D01*
X167169624Y-84147242D01*
X167333436Y-84079389D01*
X167536484Y-84039000D01*
X167743516Y-84039000D01*
X167946564Y-84079389D01*
X167946564Y-84079389D01*
G37*
G36*
X157786564Y-83499389D02*
G01*
X157977833Y-83578615D01*
X157977835Y-83578616D01*
X158089420Y-83653175D01*
X158149973Y-83693635D01*
X158296365Y-83840027D01*
X158411385Y-84012167D01*
X158490611Y-84203436D01*
X158531000Y-84406484D01*
X158531000Y-84613516D01*
X158490611Y-84816564D01*
X158420228Y-84986484D01*
X158411384Y-85007835D01*
X158296365Y-85179973D01*
X158149973Y-85326365D01*
X157977835Y-85441384D01*
X157977834Y-85441385D01*
X157977833Y-85441385D01*
X157786564Y-85520611D01*
X157583516Y-85561000D01*
X157376484Y-85561000D01*
X157173436Y-85520611D01*
X156982167Y-85441385D01*
X156982166Y-85441385D01*
X156982165Y-85441384D01*
X156810027Y-85326365D01*
X156663635Y-85179973D01*
X156548616Y-85007835D01*
X156539772Y-84986484D01*
X156469389Y-84816564D01*
X156429000Y-84613516D01*
X156429000Y-84406484D01*
X156469389Y-84203436D01*
X156548615Y-84012167D01*
X156663635Y-83840027D01*
X156810027Y-83693635D01*
X156870580Y-83653175D01*
X156982165Y-83578616D01*
X156982167Y-83578615D01*
X157173436Y-83499389D01*
X157376484Y-83459000D01*
X157583516Y-83459000D01*
X157786564Y-83499389D01*
X157786564Y-83499389D01*
G37*
G36*
X164286564Y-83499389D02*
G01*
X164477833Y-83578615D01*
X164477835Y-83578616D01*
X164589420Y-83653175D01*
X164649973Y-83693635D01*
X164796365Y-83840027D01*
X164911385Y-84012167D01*
X164990611Y-84203436D01*
X165031000Y-84406484D01*
X165031000Y-84613516D01*
X164990611Y-84816564D01*
X164920228Y-84986484D01*
X164911384Y-85007835D01*
X164796365Y-85179973D01*
X164649973Y-85326365D01*
X164477835Y-85441384D01*
X164477834Y-85441385D01*
X164477833Y-85441385D01*
X164286564Y-85520611D01*
X164083516Y-85561000D01*
X163876484Y-85561000D01*
X163673436Y-85520611D01*
X163482167Y-85441385D01*
X163482166Y-85441385D01*
X163482165Y-85441384D01*
X163310027Y-85326365D01*
X163163635Y-85179973D01*
X163048616Y-85007835D01*
X163039772Y-84986484D01*
X162969389Y-84816564D01*
X162929000Y-84613516D01*
X162929000Y-84406484D01*
X162969389Y-84203436D01*
X163048615Y-84012167D01*
X163163635Y-83840027D01*
X163310027Y-83693635D01*
X163370580Y-83653175D01*
X163482165Y-83578616D01*
X163482167Y-83578615D01*
X163673436Y-83499389D01*
X163876484Y-83459000D01*
X164083516Y-83459000D01*
X164286564Y-83499389D01*
X164286564Y-83499389D01*
G37*
G36*
X114756564Y-83499389D02*
G01*
X114947833Y-83578615D01*
X114947835Y-83578616D01*
X115059420Y-83653175D01*
X115119973Y-83693635D01*
X115266365Y-83840027D01*
X115381385Y-84012167D01*
X115460611Y-84203436D01*
X115501000Y-84406484D01*
X115501000Y-84613516D01*
X115460611Y-84816564D01*
X115390228Y-84986484D01*
X115381384Y-85007835D01*
X115266365Y-85179973D01*
X115119973Y-85326365D01*
X114947835Y-85441384D01*
X114947834Y-85441385D01*
X114947833Y-85441385D01*
X114756564Y-85520611D01*
X114553516Y-85561000D01*
X114346484Y-85561000D01*
X114143436Y-85520611D01*
X113952167Y-85441385D01*
X113952166Y-85441385D01*
X113952165Y-85441384D01*
X113780027Y-85326365D01*
X113633635Y-85179973D01*
X113518616Y-85007835D01*
X113509772Y-84986484D01*
X113439389Y-84816564D01*
X113399000Y-84613516D01*
X113399000Y-84406484D01*
X113439389Y-84203436D01*
X113518615Y-84012167D01*
X113633635Y-83840027D01*
X113780027Y-83693635D01*
X113840580Y-83653175D01*
X113952165Y-83578616D01*
X113952167Y-83578615D01*
X114143436Y-83499389D01*
X114346484Y-83459000D01*
X114553516Y-83459000D01*
X114756564Y-83499389D01*
X114756564Y-83499389D01*
G37*
G36*
X108256564Y-83499389D02*
G01*
X108447833Y-83578615D01*
X108447835Y-83578616D01*
X108559420Y-83653175D01*
X108619973Y-83693635D01*
X108766365Y-83840027D01*
X108881385Y-84012167D01*
X108960611Y-84203436D01*
X109001000Y-84406484D01*
X109001000Y-84613516D01*
X108960611Y-84816564D01*
X108890228Y-84986484D01*
X108881384Y-85007835D01*
X108766365Y-85179973D01*
X108619973Y-85326365D01*
X108447835Y-85441384D01*
X108447834Y-85441385D01*
X108447833Y-85441385D01*
X108256564Y-85520611D01*
X108053516Y-85561000D01*
X107846484Y-85561000D01*
X107643436Y-85520611D01*
X107452167Y-85441385D01*
X107452166Y-85441385D01*
X107452165Y-85441384D01*
X107280027Y-85326365D01*
X107133635Y-85179973D01*
X107018616Y-85007835D01*
X107009772Y-84986484D01*
X106939389Y-84816564D01*
X106899000Y-84613516D01*
X106899000Y-84406484D01*
X106939389Y-84203436D01*
X107018615Y-84012167D01*
X107133635Y-83840027D01*
X107280027Y-83693635D01*
X107340580Y-83653175D01*
X107452165Y-83578616D01*
X107452167Y-83578615D01*
X107643436Y-83499389D01*
X107846484Y-83459000D01*
X108053516Y-83459000D01*
X108256564Y-83499389D01*
X108256564Y-83499389D01*
G37*
G36*
X130976823Y-82981313D02*
G01*
X131137242Y-83029976D01*
X131269906Y-83100886D01*
X131285078Y-83108996D01*
X131414659Y-83215341D01*
X131521004Y-83344922D01*
X131521005Y-83344924D01*
X131600024Y-83492758D01*
X131648687Y-83653177D01*
X131665117Y-83820000D01*
X131648687Y-83986823D01*
X131600024Y-84147242D01*
X131532465Y-84273635D01*
X131521004Y-84295078D01*
X131414659Y-84424659D01*
X131285078Y-84531004D01*
X131285076Y-84531005D01*
X131137242Y-84610024D01*
X130976823Y-84658687D01*
X130851804Y-84671000D01*
X130768196Y-84671000D01*
X130643177Y-84658687D01*
X130482758Y-84610024D01*
X130334924Y-84531005D01*
X130334922Y-84531004D01*
X130205341Y-84424659D01*
X130098996Y-84295078D01*
X130087535Y-84273635D01*
X130019976Y-84147242D01*
X129971313Y-83986823D01*
X129954883Y-83820000D01*
X129971313Y-83653177D01*
X130019976Y-83492758D01*
X130098995Y-83344924D01*
X130098996Y-83344922D01*
X130205341Y-83215341D01*
X130334922Y-83108996D01*
X130350094Y-83100886D01*
X130482758Y-83029976D01*
X130643177Y-82981313D01*
X130768196Y-82969000D01*
X130851804Y-82969000D01*
X130976823Y-82981313D01*
X130976823Y-82981313D01*
G37*
G36*
X141136823Y-82981313D02*
G01*
X141297242Y-83029976D01*
X141429906Y-83100886D01*
X141445078Y-83108996D01*
X141574659Y-83215341D01*
X141681004Y-83344922D01*
X141681005Y-83344924D01*
X141760024Y-83492758D01*
X141808687Y-83653177D01*
X141825117Y-83820000D01*
X141808687Y-83986823D01*
X141760024Y-84147242D01*
X141692465Y-84273635D01*
X141681004Y-84295078D01*
X141574659Y-84424659D01*
X141445078Y-84531004D01*
X141445076Y-84531005D01*
X141297242Y-84610024D01*
X141136823Y-84658687D01*
X141011804Y-84671000D01*
X140928196Y-84671000D01*
X140803177Y-84658687D01*
X140642758Y-84610024D01*
X140494924Y-84531005D01*
X140494922Y-84531004D01*
X140365341Y-84424659D01*
X140258996Y-84295078D01*
X140247535Y-84273635D01*
X140179976Y-84147242D01*
X140131313Y-83986823D01*
X140114883Y-83820000D01*
X140131313Y-83653177D01*
X140179976Y-83492758D01*
X140258995Y-83344924D01*
X140258996Y-83344922D01*
X140365341Y-83215341D01*
X140494922Y-83108996D01*
X140510094Y-83100886D01*
X140642758Y-83029976D01*
X140803177Y-82981313D01*
X140928196Y-82969000D01*
X141011804Y-82969000D01*
X141136823Y-82981313D01*
X141136823Y-82981313D01*
G37*
G36*
X136056823Y-82981313D02*
G01*
X136217242Y-83029976D01*
X136349906Y-83100886D01*
X136365078Y-83108996D01*
X136494659Y-83215341D01*
X136601004Y-83344922D01*
X136601005Y-83344924D01*
X136680024Y-83492758D01*
X136728687Y-83653177D01*
X136745117Y-83820000D01*
X136728687Y-83986823D01*
X136680024Y-84147242D01*
X136612465Y-84273635D01*
X136601004Y-84295078D01*
X136494659Y-84424659D01*
X136365078Y-84531004D01*
X136365076Y-84531005D01*
X136217242Y-84610024D01*
X136056823Y-84658687D01*
X135931804Y-84671000D01*
X135848196Y-84671000D01*
X135723177Y-84658687D01*
X135562758Y-84610024D01*
X135414924Y-84531005D01*
X135414922Y-84531004D01*
X135285341Y-84424659D01*
X135178996Y-84295078D01*
X135167535Y-84273635D01*
X135099976Y-84147242D01*
X135051313Y-83986823D01*
X135034883Y-83820000D01*
X135051313Y-83653177D01*
X135099976Y-83492758D01*
X135178995Y-83344924D01*
X135178996Y-83344922D01*
X135285341Y-83215341D01*
X135414922Y-83108996D01*
X135430094Y-83100886D01*
X135562758Y-83029976D01*
X135723177Y-82981313D01*
X135848196Y-82969000D01*
X135931804Y-82969000D01*
X136056823Y-82981313D01*
X136056823Y-82981313D01*
G37*
G36*
X108256564Y-78999389D02*
G01*
X108447833Y-79078615D01*
X108447835Y-79078616D01*
X108619973Y-79193635D01*
X108766365Y-79340027D01*
X108881385Y-79512167D01*
X108960611Y-79703436D01*
X109001000Y-79906484D01*
X109001000Y-80113516D01*
X108960611Y-80316564D01*
X108881385Y-80507833D01*
X108881384Y-80507835D01*
X108766365Y-80679973D01*
X108619973Y-80826365D01*
X108447835Y-80941384D01*
X108447834Y-80941385D01*
X108447833Y-80941385D01*
X108256564Y-81020611D01*
X108053516Y-81061000D01*
X107846484Y-81061000D01*
X107643436Y-81020611D01*
X107452167Y-80941385D01*
X107452166Y-80941385D01*
X107452165Y-80941384D01*
X107280027Y-80826365D01*
X107133635Y-80679973D01*
X107018616Y-80507835D01*
X107018615Y-80507833D01*
X106939389Y-80316564D01*
X106899000Y-80113516D01*
X106899000Y-79906484D01*
X106939389Y-79703436D01*
X107018615Y-79512167D01*
X107133635Y-79340027D01*
X107280027Y-79193635D01*
X107452165Y-79078616D01*
X107452167Y-79078615D01*
X107643436Y-78999389D01*
X107846484Y-78959000D01*
X108053516Y-78959000D01*
X108256564Y-78999389D01*
X108256564Y-78999389D01*
G37*
G36*
X114756564Y-78999389D02*
G01*
X114947833Y-79078615D01*
X114947835Y-79078616D01*
X115119973Y-79193635D01*
X115266365Y-79340027D01*
X115381385Y-79512167D01*
X115460611Y-79703436D01*
X115501000Y-79906484D01*
X115501000Y-80113516D01*
X115460611Y-80316564D01*
X115381385Y-80507833D01*
X115381384Y-80507835D01*
X115266365Y-80679973D01*
X115119973Y-80826365D01*
X114947835Y-80941384D01*
X114947834Y-80941385D01*
X114947833Y-80941385D01*
X114756564Y-81020611D01*
X114553516Y-81061000D01*
X114346484Y-81061000D01*
X114143436Y-81020611D01*
X113952167Y-80941385D01*
X113952166Y-80941385D01*
X113952165Y-80941384D01*
X113780027Y-80826365D01*
X113633635Y-80679973D01*
X113518616Y-80507835D01*
X113518615Y-80507833D01*
X113439389Y-80316564D01*
X113399000Y-80113516D01*
X113399000Y-79906484D01*
X113439389Y-79703436D01*
X113518615Y-79512167D01*
X113633635Y-79340027D01*
X113780027Y-79193635D01*
X113952165Y-79078616D01*
X113952167Y-79078615D01*
X114143436Y-78999389D01*
X114346484Y-78959000D01*
X114553516Y-78959000D01*
X114756564Y-78999389D01*
X114756564Y-78999389D01*
G37*
G36*
X157786564Y-78999389D02*
G01*
X157977833Y-79078615D01*
X157977835Y-79078616D01*
X158149973Y-79193635D01*
X158296365Y-79340027D01*
X158411385Y-79512167D01*
X158490611Y-79703436D01*
X158531000Y-79906484D01*
X158531000Y-80113516D01*
X158490611Y-80316564D01*
X158411385Y-80507833D01*
X158411384Y-80507835D01*
X158296365Y-80679973D01*
X158149973Y-80826365D01*
X157977835Y-80941384D01*
X157977834Y-80941385D01*
X157977833Y-80941385D01*
X157786564Y-81020611D01*
X157583516Y-81061000D01*
X157376484Y-81061000D01*
X157173436Y-81020611D01*
X156982167Y-80941385D01*
X156982166Y-80941385D01*
X156982165Y-80941384D01*
X156810027Y-80826365D01*
X156663635Y-80679973D01*
X156548616Y-80507835D01*
X156548615Y-80507833D01*
X156469389Y-80316564D01*
X156429000Y-80113516D01*
X156429000Y-79906484D01*
X156469389Y-79703436D01*
X156548615Y-79512167D01*
X156663635Y-79340027D01*
X156810027Y-79193635D01*
X156982165Y-79078616D01*
X156982167Y-79078615D01*
X157173436Y-78999389D01*
X157376484Y-78959000D01*
X157583516Y-78959000D01*
X157786564Y-78999389D01*
X157786564Y-78999389D01*
G37*
G36*
X164286564Y-78999389D02*
G01*
X164477833Y-79078615D01*
X164477835Y-79078616D01*
X164649973Y-79193635D01*
X164796365Y-79340027D01*
X164911385Y-79512167D01*
X164990611Y-79703436D01*
X165031000Y-79906484D01*
X165031000Y-80113516D01*
X164990611Y-80316564D01*
X164911385Y-80507833D01*
X164911384Y-80507835D01*
X164796365Y-80679973D01*
X164649973Y-80826365D01*
X164477835Y-80941384D01*
X164477834Y-80941385D01*
X164477833Y-80941385D01*
X164286564Y-81020611D01*
X164083516Y-81061000D01*
X163876484Y-81061000D01*
X163673436Y-81020611D01*
X163482167Y-80941385D01*
X163482166Y-80941385D01*
X163482165Y-80941384D01*
X163310027Y-80826365D01*
X163163635Y-80679973D01*
X163048616Y-80507835D01*
X163048615Y-80507833D01*
X162969389Y-80316564D01*
X162929000Y-80113516D01*
X162929000Y-79906484D01*
X162969389Y-79703436D01*
X163048615Y-79512167D01*
X163163635Y-79340027D01*
X163310027Y-79193635D01*
X163482165Y-79078616D01*
X163482167Y-79078615D01*
X163673436Y-78999389D01*
X163876484Y-78959000D01*
X164083516Y-78959000D01*
X164286564Y-78999389D01*
X164286564Y-78999389D01*
G37*
G36*
X127951000Y-78421000D02*
G01*
X126049000Y-78421000D01*
X126049000Y-76519000D01*
X127951000Y-76519000D01*
X127951000Y-78421000D01*
X127951000Y-78421000D01*
G37*
G36*
X129817395Y-76555546D02*
G01*
X129990466Y-76627234D01*
X129990467Y-76627235D01*
X130146227Y-76731310D01*
X130278690Y-76863773D01*
X130278691Y-76863775D01*
X130382766Y-77019534D01*
X130454454Y-77192605D01*
X130491000Y-77376333D01*
X130491000Y-77563667D01*
X130454454Y-77747395D01*
X130382766Y-77920466D01*
X130382765Y-77920467D01*
X130278690Y-78076227D01*
X130146227Y-78208690D01*
X130067818Y-78261081D01*
X129990466Y-78312766D01*
X129817395Y-78384454D01*
X129633667Y-78421000D01*
X129446333Y-78421000D01*
X129262605Y-78384454D01*
X129089534Y-78312766D01*
X129012182Y-78261081D01*
X128933773Y-78208690D01*
X128801310Y-78076227D01*
X128697235Y-77920467D01*
X128697234Y-77920466D01*
X128625546Y-77747395D01*
X128589000Y-77563667D01*
X128589000Y-77376333D01*
X128625546Y-77192605D01*
X128697234Y-77019534D01*
X128801309Y-76863775D01*
X128801310Y-76863773D01*
X128933773Y-76731310D01*
X129089533Y-76627235D01*
X129089534Y-76627234D01*
X129262605Y-76555546D01*
X129446333Y-76519000D01*
X129633667Y-76519000D01*
X129817395Y-76555546D01*
X129817395Y-76555546D01*
G37*
G36*
X143191000Y-78421000D02*
G01*
X141289000Y-78421000D01*
X141289000Y-76519000D01*
X143191000Y-76519000D01*
X143191000Y-78421000D01*
X143191000Y-78421000D01*
G37*
G36*
X145057395Y-76555546D02*
G01*
X145230466Y-76627234D01*
X145230467Y-76627235D01*
X145386227Y-76731310D01*
X145518690Y-76863773D01*
X145518691Y-76863775D01*
X145622766Y-77019534D01*
X145694454Y-77192605D01*
X145731000Y-77376333D01*
X145731000Y-77563667D01*
X145694454Y-77747395D01*
X145622766Y-77920466D01*
X145622765Y-77920467D01*
X145518690Y-78076227D01*
X145386227Y-78208690D01*
X145307818Y-78261081D01*
X145230466Y-78312766D01*
X145057395Y-78384454D01*
X144873667Y-78421000D01*
X144686333Y-78421000D01*
X144502605Y-78384454D01*
X144329534Y-78312766D01*
X144252182Y-78261081D01*
X144173773Y-78208690D01*
X144041310Y-78076227D01*
X143937235Y-77920467D01*
X143937234Y-77920466D01*
X143865546Y-77747395D01*
X143829000Y-77563667D01*
X143829000Y-77376333D01*
X143865546Y-77192605D01*
X143937234Y-77019534D01*
X144041309Y-76863775D01*
X144041310Y-76863773D01*
X144173773Y-76731310D01*
X144329533Y-76627235D01*
X144329534Y-76627234D01*
X144502605Y-76555546D01*
X144686333Y-76519000D01*
X144873667Y-76519000D01*
X145057395Y-76555546D01*
X145057395Y-76555546D01*
G37*
G36*
X137437395Y-76555546D02*
G01*
X137610466Y-76627234D01*
X137610467Y-76627235D01*
X137766227Y-76731310D01*
X137898690Y-76863773D01*
X137898691Y-76863775D01*
X138002766Y-77019534D01*
X138074454Y-77192605D01*
X138111000Y-77376333D01*
X138111000Y-77563667D01*
X138074454Y-77747395D01*
X138002766Y-77920466D01*
X138002765Y-77920467D01*
X137898690Y-78076227D01*
X137766227Y-78208690D01*
X137687818Y-78261081D01*
X137610466Y-78312766D01*
X137437395Y-78384454D01*
X137253667Y-78421000D01*
X137066333Y-78421000D01*
X136882605Y-78384454D01*
X136709534Y-78312766D01*
X136632182Y-78261081D01*
X136553773Y-78208690D01*
X136421310Y-78076227D01*
X136317235Y-77920467D01*
X136317234Y-77920466D01*
X136245546Y-77747395D01*
X136209000Y-77563667D01*
X136209000Y-77376333D01*
X136245546Y-77192605D01*
X136317234Y-77019534D01*
X136421309Y-76863775D01*
X136421310Y-76863773D01*
X136553773Y-76731310D01*
X136709533Y-76627235D01*
X136709534Y-76627234D01*
X136882605Y-76555546D01*
X137066333Y-76519000D01*
X137253667Y-76519000D01*
X137437395Y-76555546D01*
X137437395Y-76555546D01*
G37*
G36*
X135571000Y-78421000D02*
G01*
X133669000Y-78421000D01*
X133669000Y-76519000D01*
X135571000Y-76519000D01*
X135571000Y-78421000D01*
X135571000Y-78421000D01*
G37*
G36*
X106808254Y-67147818D02*
G01*
X107181511Y-67302426D01*
X107181513Y-67302427D01*
X107517436Y-67526884D01*
X107803116Y-67812564D01*
X107888143Y-67939815D01*
X108027574Y-68148489D01*
X108182182Y-68521746D01*
X108261000Y-68917993D01*
X108261000Y-69322007D01*
X108182182Y-69718254D01*
X108027574Y-70091511D01*
X108027573Y-70091513D01*
X107803116Y-70427436D01*
X107517436Y-70713116D01*
X107181513Y-70937573D01*
X107181512Y-70937574D01*
X107181511Y-70937574D01*
X106808254Y-71092182D01*
X106412007Y-71171000D01*
X106007993Y-71171000D01*
X105611746Y-71092182D01*
X105238489Y-70937574D01*
X105238488Y-70937574D01*
X105238487Y-70937573D01*
X104902564Y-70713116D01*
X104616884Y-70427436D01*
X104392427Y-70091513D01*
X104392426Y-70091511D01*
X104237818Y-69718254D01*
X104159000Y-69322007D01*
X104159000Y-68917993D01*
X104237818Y-68521746D01*
X104392426Y-68148489D01*
X104531858Y-67939815D01*
X104616884Y-67812564D01*
X104902564Y-67526884D01*
X105238487Y-67302427D01*
X105238489Y-67302426D01*
X105611746Y-67147818D01*
X106007993Y-67069000D01*
X106412007Y-67069000D01*
X106808254Y-67147818D01*
X106808254Y-67147818D01*
G37*
G36*
X168008254Y-67147818D02*
G01*
X168381511Y-67302426D01*
X168381513Y-67302427D01*
X168717436Y-67526884D01*
X169003116Y-67812564D01*
X169088143Y-67939815D01*
X169227574Y-68148489D01*
X169382182Y-68521746D01*
X169461000Y-68917993D01*
X169461000Y-69322007D01*
X169382182Y-69718254D01*
X169227574Y-70091511D01*
X169227573Y-70091513D01*
X169003116Y-70427436D01*
X168717436Y-70713116D01*
X168381513Y-70937573D01*
X168381512Y-70937574D01*
X168381511Y-70937574D01*
X168008254Y-71092182D01*
X167612007Y-71171000D01*
X167207993Y-71171000D01*
X166811746Y-71092182D01*
X166438489Y-70937574D01*
X166438488Y-70937574D01*
X166438487Y-70937573D01*
X166102564Y-70713116D01*
X165816884Y-70427436D01*
X165592427Y-70091513D01*
X165592426Y-70091511D01*
X165437818Y-69718254D01*
X165359000Y-69322007D01*
X165359000Y-68917993D01*
X165437818Y-68521746D01*
X165592426Y-68148489D01*
X165731858Y-67939815D01*
X165816884Y-67812564D01*
X166102564Y-67526884D01*
X166438487Y-67302427D01*
X166438489Y-67302426D01*
X166811746Y-67147818D01*
X167207993Y-67069000D01*
X167612007Y-67069000D01*
X168008254Y-67147818D01*
X168008254Y-67147818D01*
G37*
G36*
X99170443Y-67685519D02*
G01*
X99236627Y-67692037D01*
X99406466Y-67743557D01*
X99562991Y-67827222D01*
X99598729Y-67856552D01*
X99700186Y-67939814D01*
X99783448Y-68041271D01*
X99812778Y-68077009D01*
X99896443Y-68233534D01*
X99947963Y-68403373D01*
X99965359Y-68580000D01*
X99947963Y-68756627D01*
X99896443Y-68926466D01*
X99812778Y-69082991D01*
X99783448Y-69118729D01*
X99700186Y-69220186D01*
X99598729Y-69303448D01*
X99562991Y-69332778D01*
X99406466Y-69416443D01*
X99236627Y-69467963D01*
X99170442Y-69474482D01*
X99104260Y-69481000D01*
X99015740Y-69481000D01*
X98949558Y-69474482D01*
X98883373Y-69467963D01*
X98713534Y-69416443D01*
X98557009Y-69332778D01*
X98521271Y-69303448D01*
X98419814Y-69220186D01*
X98336552Y-69118729D01*
X98307222Y-69082991D01*
X98223557Y-68926466D01*
X98172037Y-68756627D01*
X98154641Y-68580000D01*
X98172037Y-68403373D01*
X98223557Y-68233534D01*
X98307222Y-68077009D01*
X98336552Y-68041271D01*
X98419814Y-67939814D01*
X98521271Y-67856552D01*
X98557009Y-67827222D01*
X98713534Y-67743557D01*
X98883373Y-67692037D01*
X98949557Y-67685519D01*
X99015740Y-67679000D01*
X99104260Y-67679000D01*
X99170443Y-67685519D01*
X99170443Y-67685519D01*
G37*
G36*
X174100443Y-67685519D02*
G01*
X174166627Y-67692037D01*
X174336466Y-67743557D01*
X174492991Y-67827222D01*
X174528729Y-67856552D01*
X174630186Y-67939814D01*
X174713448Y-68041271D01*
X174742778Y-68077009D01*
X174826443Y-68233534D01*
X174877963Y-68403373D01*
X174895359Y-68580000D01*
X174877963Y-68756627D01*
X174826443Y-68926466D01*
X174742778Y-69082991D01*
X174713448Y-69118729D01*
X174630186Y-69220186D01*
X174528729Y-69303448D01*
X174492991Y-69332778D01*
X174336466Y-69416443D01*
X174166627Y-69467963D01*
X174100442Y-69474482D01*
X174034260Y-69481000D01*
X173945740Y-69481000D01*
X173879558Y-69474482D01*
X173813373Y-69467963D01*
X173643534Y-69416443D01*
X173487009Y-69332778D01*
X173451271Y-69303448D01*
X173349814Y-69220186D01*
X173266552Y-69118729D01*
X173237222Y-69082991D01*
X173153557Y-68926466D01*
X173102037Y-68756627D01*
X173084641Y-68580000D01*
X173102037Y-68403373D01*
X173153557Y-68233534D01*
X173237222Y-68077009D01*
X173266552Y-68041271D01*
X173349814Y-67939814D01*
X173451271Y-67856552D01*
X173487009Y-67827222D01*
X173643534Y-67743557D01*
X173813373Y-67692037D01*
X173879557Y-67685519D01*
X173945740Y-67679000D01*
X174034260Y-67679000D01*
X174100443Y-67685519D01*
X174100443Y-67685519D01*
G37*
G36*
X99170442Y-65145518D02*
G01*
X99236627Y-65152037D01*
X99406466Y-65203557D01*
X99562991Y-65287222D01*
X99598729Y-65316552D01*
X99700186Y-65399814D01*
X99783448Y-65501271D01*
X99812778Y-65537009D01*
X99896443Y-65693534D01*
X99947963Y-65863373D01*
X99965359Y-66040000D01*
X99947963Y-66216627D01*
X99896443Y-66386466D01*
X99812778Y-66542991D01*
X99783448Y-66578729D01*
X99700186Y-66680186D01*
X99598729Y-66763448D01*
X99562991Y-66792778D01*
X99406466Y-66876443D01*
X99236627Y-66927963D01*
X99170442Y-66934482D01*
X99104260Y-66941000D01*
X99015740Y-66941000D01*
X98949558Y-66934482D01*
X98883373Y-66927963D01*
X98713534Y-66876443D01*
X98557009Y-66792778D01*
X98521271Y-66763448D01*
X98419814Y-66680186D01*
X98336552Y-66578729D01*
X98307222Y-66542991D01*
X98223557Y-66386466D01*
X98172037Y-66216627D01*
X98154641Y-66040000D01*
X98172037Y-65863373D01*
X98223557Y-65693534D01*
X98307222Y-65537009D01*
X98336552Y-65501271D01*
X98419814Y-65399814D01*
X98521271Y-65316552D01*
X98557009Y-65287222D01*
X98713534Y-65203557D01*
X98883373Y-65152037D01*
X98949558Y-65145518D01*
X99015740Y-65139000D01*
X99104260Y-65139000D01*
X99170442Y-65145518D01*
X99170442Y-65145518D01*
G37*
G36*
X174100442Y-65145518D02*
G01*
X174166627Y-65152037D01*
X174336466Y-65203557D01*
X174492991Y-65287222D01*
X174528729Y-65316552D01*
X174630186Y-65399814D01*
X174713448Y-65501271D01*
X174742778Y-65537009D01*
X174826443Y-65693534D01*
X174877963Y-65863373D01*
X174895359Y-66040000D01*
X174877963Y-66216627D01*
X174826443Y-66386466D01*
X174742778Y-66542991D01*
X174713448Y-66578729D01*
X174630186Y-66680186D01*
X174528729Y-66763448D01*
X174492991Y-66792778D01*
X174336466Y-66876443D01*
X174166627Y-66927963D01*
X174100442Y-66934482D01*
X174034260Y-66941000D01*
X173945740Y-66941000D01*
X173879558Y-66934482D01*
X173813373Y-66927963D01*
X173643534Y-66876443D01*
X173487009Y-66792778D01*
X173451271Y-66763448D01*
X173349814Y-66680186D01*
X173266552Y-66578729D01*
X173237222Y-66542991D01*
X173153557Y-66386466D01*
X173102037Y-66216627D01*
X173084641Y-66040000D01*
X173102037Y-65863373D01*
X173153557Y-65693534D01*
X173237222Y-65537009D01*
X173266552Y-65501271D01*
X173349814Y-65399814D01*
X173451271Y-65316552D01*
X173487009Y-65287222D01*
X173643534Y-65203557D01*
X173813373Y-65152037D01*
X173879558Y-65145518D01*
X173945740Y-65139000D01*
X174034260Y-65139000D01*
X174100442Y-65145518D01*
X174100442Y-65145518D01*
G37*
G36*
X99170442Y-62605518D02*
G01*
X99236627Y-62612037D01*
X99406466Y-62663557D01*
X99562991Y-62747222D01*
X99598729Y-62776552D01*
X99700186Y-62859814D01*
X99783448Y-62961271D01*
X99812778Y-62997009D01*
X99896443Y-63153534D01*
X99947963Y-63323373D01*
X99965359Y-63500000D01*
X99947963Y-63676627D01*
X99896443Y-63846466D01*
X99812778Y-64002991D01*
X99783448Y-64038729D01*
X99700186Y-64140186D01*
X99598729Y-64223448D01*
X99562991Y-64252778D01*
X99406466Y-64336443D01*
X99236627Y-64387963D01*
X99170442Y-64394482D01*
X99104260Y-64401000D01*
X99015740Y-64401000D01*
X98949558Y-64394482D01*
X98883373Y-64387963D01*
X98713534Y-64336443D01*
X98557009Y-64252778D01*
X98521271Y-64223448D01*
X98419814Y-64140186D01*
X98336552Y-64038729D01*
X98307222Y-64002991D01*
X98223557Y-63846466D01*
X98172037Y-63676627D01*
X98154641Y-63500000D01*
X98172037Y-63323373D01*
X98223557Y-63153534D01*
X98307222Y-62997009D01*
X98336552Y-62961271D01*
X98419814Y-62859814D01*
X98521271Y-62776552D01*
X98557009Y-62747222D01*
X98713534Y-62663557D01*
X98883373Y-62612037D01*
X98949558Y-62605518D01*
X99015740Y-62599000D01*
X99104260Y-62599000D01*
X99170442Y-62605518D01*
X99170442Y-62605518D01*
G37*
G36*
X174100442Y-62605518D02*
G01*
X174166627Y-62612037D01*
X174336466Y-62663557D01*
X174492991Y-62747222D01*
X174528729Y-62776552D01*
X174630186Y-62859814D01*
X174713448Y-62961271D01*
X174742778Y-62997009D01*
X174826443Y-63153534D01*
X174877963Y-63323373D01*
X174895359Y-63500000D01*
X174877963Y-63676627D01*
X174826443Y-63846466D01*
X174742778Y-64002991D01*
X174713448Y-64038729D01*
X174630186Y-64140186D01*
X174528729Y-64223448D01*
X174492991Y-64252778D01*
X174336466Y-64336443D01*
X174166627Y-64387963D01*
X174100442Y-64394482D01*
X174034260Y-64401000D01*
X173945740Y-64401000D01*
X173879558Y-64394482D01*
X173813373Y-64387963D01*
X173643534Y-64336443D01*
X173487009Y-64252778D01*
X173451271Y-64223448D01*
X173349814Y-64140186D01*
X173266552Y-64038729D01*
X173237222Y-64002991D01*
X173153557Y-63846466D01*
X173102037Y-63676627D01*
X173084641Y-63500000D01*
X173102037Y-63323373D01*
X173153557Y-63153534D01*
X173237222Y-62997009D01*
X173266552Y-62961271D01*
X173349814Y-62859814D01*
X173451271Y-62776552D01*
X173487009Y-62747222D01*
X173643534Y-62663557D01*
X173813373Y-62612037D01*
X173879558Y-62605518D01*
X173945740Y-62599000D01*
X174034260Y-62599000D01*
X174100442Y-62605518D01*
X174100442Y-62605518D01*
G37*
G36*
X169711000Y-63031000D02*
G01*
X168109000Y-63031000D01*
X168109000Y-61429000D01*
X169711000Y-61429000D01*
X169711000Y-63031000D01*
X169711000Y-63031000D01*
G37*
G36*
X174891000Y-61861000D02*
G01*
X173089000Y-61861000D01*
X173089000Y-60059000D01*
X174891000Y-60059000D01*
X174891000Y-61861000D01*
X174891000Y-61861000D01*
G37*
G36*
X99961000Y-61861000D02*
G01*
X98159000Y-61861000D01*
X98159000Y-60059000D01*
X99961000Y-60059000D01*
X99961000Y-61861000D01*
X99961000Y-61861000D01*
G37*
G36*
X169143642Y-58919781D02*
G01*
X169289414Y-58980162D01*
X169289416Y-58980163D01*
X169420608Y-59067822D01*
X169532178Y-59179392D01*
X169619837Y-59310584D01*
X169619838Y-59310586D01*
X169680219Y-59456358D01*
X169711000Y-59611107D01*
X169711000Y-59768893D01*
X169680219Y-59923642D01*
X169619838Y-60069414D01*
X169619837Y-60069416D01*
X169532178Y-60200608D01*
X169420608Y-60312178D01*
X169289416Y-60399837D01*
X169289415Y-60399838D01*
X169289414Y-60399838D01*
X169143642Y-60460219D01*
X168988893Y-60491000D01*
X168831107Y-60491000D01*
X168676358Y-60460219D01*
X168530586Y-60399838D01*
X168530585Y-60399838D01*
X168530584Y-60399837D01*
X168399392Y-60312178D01*
X168287822Y-60200608D01*
X168200163Y-60069416D01*
X168200162Y-60069414D01*
X168139781Y-59923642D01*
X168109000Y-59768893D01*
X168109000Y-59611107D01*
X168139781Y-59456358D01*
X168200162Y-59310586D01*
X168200163Y-59310584D01*
X168287822Y-59179392D01*
X168399392Y-59067822D01*
X168530584Y-58980163D01*
X168530586Y-58980162D01*
X168676358Y-58919781D01*
X168831107Y-58889000D01*
X168988893Y-58889000D01*
X169143642Y-58919781D01*
X169143642Y-58919781D01*
G37*
G36*
X105623642Y-56379781D02*
G01*
X105769414Y-56440162D01*
X105769416Y-56440163D01*
X105900608Y-56527822D01*
X106012178Y-56639392D01*
X106099837Y-56770584D01*
X106099838Y-56770586D01*
X106160219Y-56916358D01*
X106191000Y-57071107D01*
X106191000Y-57228893D01*
X106160219Y-57383642D01*
X106099838Y-57529414D01*
X106099837Y-57529416D01*
X106012178Y-57660608D01*
X105900608Y-57772178D01*
X105769416Y-57859837D01*
X105769415Y-57859838D01*
X105769414Y-57859838D01*
X105623642Y-57920219D01*
X105468893Y-57951000D01*
X105311107Y-57951000D01*
X105156358Y-57920219D01*
X105010586Y-57859838D01*
X105010585Y-57859838D01*
X105010584Y-57859837D01*
X104879392Y-57772178D01*
X104767822Y-57660608D01*
X104680163Y-57529416D01*
X104680162Y-57529414D01*
X104619781Y-57383642D01*
X104589000Y-57228893D01*
X104589000Y-57071107D01*
X104619781Y-56916358D01*
X104680162Y-56770586D01*
X104680163Y-56770584D01*
X104767822Y-56639392D01*
X104879392Y-56527822D01*
X105010584Y-56440163D01*
X105010586Y-56440162D01*
X105156358Y-56379781D01*
X105311107Y-56349000D01*
X105468893Y-56349000D01*
X105623642Y-56379781D01*
X105623642Y-56379781D01*
G37*
G36*
X169143642Y-56379781D02*
G01*
X169289414Y-56440162D01*
X169289416Y-56440163D01*
X169420608Y-56527822D01*
X169532178Y-56639392D01*
X169619837Y-56770584D01*
X169619838Y-56770586D01*
X169680219Y-56916358D01*
X169711000Y-57071107D01*
X169711000Y-57228893D01*
X169680219Y-57383642D01*
X169619838Y-57529414D01*
X169619837Y-57529416D01*
X169532178Y-57660608D01*
X169420608Y-57772178D01*
X169289416Y-57859837D01*
X169289415Y-57859838D01*
X169289414Y-57859838D01*
X169143642Y-57920219D01*
X168988893Y-57951000D01*
X168831107Y-57951000D01*
X168676358Y-57920219D01*
X168530586Y-57859838D01*
X168530585Y-57859838D01*
X168530584Y-57859837D01*
X168399392Y-57772178D01*
X168287822Y-57660608D01*
X168200163Y-57529416D01*
X168200162Y-57529414D01*
X168139781Y-57383642D01*
X168109000Y-57228893D01*
X168109000Y-57071107D01*
X168139781Y-56916358D01*
X168200162Y-56770586D01*
X168200163Y-56770584D01*
X168287822Y-56639392D01*
X168399392Y-56527822D01*
X168530584Y-56440163D01*
X168530586Y-56440162D01*
X168676358Y-56379781D01*
X168831107Y-56349000D01*
X168988893Y-56349000D01*
X169143642Y-56379781D01*
X169143642Y-56379781D01*
G37*
G36*
X105623642Y-53839781D02*
G01*
X105769414Y-53900162D01*
X105769416Y-53900163D01*
X105900608Y-53987822D01*
X106012178Y-54099392D01*
X106099837Y-54230584D01*
X106099838Y-54230586D01*
X106160219Y-54376358D01*
X106191000Y-54531107D01*
X106191000Y-54688893D01*
X106160219Y-54843642D01*
X106099838Y-54989414D01*
X106099837Y-54989416D01*
X106012178Y-55120608D01*
X105900608Y-55232178D01*
X105769416Y-55319837D01*
X105769415Y-55319838D01*
X105769414Y-55319838D01*
X105623642Y-55380219D01*
X105468893Y-55411000D01*
X105311107Y-55411000D01*
X105156358Y-55380219D01*
X105010586Y-55319838D01*
X105010585Y-55319838D01*
X105010584Y-55319837D01*
X104879392Y-55232178D01*
X104767822Y-55120608D01*
X104680163Y-54989416D01*
X104680162Y-54989414D01*
X104619781Y-54843642D01*
X104589000Y-54688893D01*
X104589000Y-54531107D01*
X104619781Y-54376358D01*
X104680162Y-54230586D01*
X104680163Y-54230584D01*
X104767822Y-54099392D01*
X104879392Y-53987822D01*
X105010584Y-53900163D01*
X105010586Y-53900162D01*
X105156358Y-53839781D01*
X105311107Y-53809000D01*
X105468893Y-53809000D01*
X105623642Y-53839781D01*
X105623642Y-53839781D01*
G37*
G36*
X169143642Y-53839781D02*
G01*
X169289414Y-53900162D01*
X169289416Y-53900163D01*
X169420608Y-53987822D01*
X169532178Y-54099392D01*
X169619837Y-54230584D01*
X169619838Y-54230586D01*
X169680219Y-54376358D01*
X169711000Y-54531107D01*
X169711000Y-54688893D01*
X169680219Y-54843642D01*
X169619838Y-54989414D01*
X169619837Y-54989416D01*
X169532178Y-55120608D01*
X169420608Y-55232178D01*
X169289416Y-55319837D01*
X169289415Y-55319838D01*
X169289414Y-55319838D01*
X169143642Y-55380219D01*
X168988893Y-55411000D01*
X168831107Y-55411000D01*
X168676358Y-55380219D01*
X168530586Y-55319838D01*
X168530585Y-55319838D01*
X168530584Y-55319837D01*
X168399392Y-55232178D01*
X168287822Y-55120608D01*
X168200163Y-54989416D01*
X168200162Y-54989414D01*
X168139781Y-54843642D01*
X168109000Y-54688893D01*
X168109000Y-54531107D01*
X168139781Y-54376358D01*
X168200162Y-54230586D01*
X168200163Y-54230584D01*
X168287822Y-54099392D01*
X168399392Y-53987822D01*
X168530584Y-53900163D01*
X168530586Y-53900162D01*
X168676358Y-53839781D01*
X168831107Y-53809000D01*
X168988893Y-53809000D01*
X169143642Y-53839781D01*
X169143642Y-53839781D01*
G37*
G36*
X105623642Y-51299781D02*
G01*
X105769414Y-51360162D01*
X105769416Y-51360163D01*
X105900608Y-51447822D01*
X106012178Y-51559392D01*
X106099837Y-51690584D01*
X106099838Y-51690586D01*
X106160219Y-51836358D01*
X106191000Y-51991107D01*
X106191000Y-52148893D01*
X106160219Y-52303642D01*
X106099838Y-52449414D01*
X106099837Y-52449416D01*
X106012178Y-52580608D01*
X105900608Y-52692178D01*
X105769416Y-52779837D01*
X105769415Y-52779838D01*
X105769414Y-52779838D01*
X105623642Y-52840219D01*
X105468893Y-52871000D01*
X105311107Y-52871000D01*
X105156358Y-52840219D01*
X105010586Y-52779838D01*
X105010585Y-52779838D01*
X105010584Y-52779837D01*
X104879392Y-52692178D01*
X104767822Y-52580608D01*
X104680163Y-52449416D01*
X104680162Y-52449414D01*
X104619781Y-52303642D01*
X104589000Y-52148893D01*
X104589000Y-51991107D01*
X104619781Y-51836358D01*
X104680162Y-51690586D01*
X104680163Y-51690584D01*
X104767822Y-51559392D01*
X104879392Y-51447822D01*
X105010584Y-51360163D01*
X105010586Y-51360162D01*
X105156358Y-51299781D01*
X105311107Y-51269000D01*
X105468893Y-51269000D01*
X105623642Y-51299781D01*
X105623642Y-51299781D01*
G37*
G36*
X169143642Y-51299781D02*
G01*
X169289414Y-51360162D01*
X169289416Y-51360163D01*
X169420608Y-51447822D01*
X169532178Y-51559392D01*
X169619837Y-51690584D01*
X169619838Y-51690586D01*
X169680219Y-51836358D01*
X169711000Y-51991107D01*
X169711000Y-52148893D01*
X169680219Y-52303642D01*
X169619838Y-52449414D01*
X169619837Y-52449416D01*
X169532178Y-52580608D01*
X169420608Y-52692178D01*
X169289416Y-52779837D01*
X169289415Y-52779838D01*
X169289414Y-52779838D01*
X169143642Y-52840219D01*
X168988893Y-52871000D01*
X168831107Y-52871000D01*
X168676358Y-52840219D01*
X168530586Y-52779838D01*
X168530585Y-52779838D01*
X168530584Y-52779837D01*
X168399392Y-52692178D01*
X168287822Y-52580608D01*
X168200163Y-52449416D01*
X168200162Y-52449414D01*
X168139781Y-52303642D01*
X168109000Y-52148893D01*
X168109000Y-51991107D01*
X168139781Y-51836358D01*
X168200162Y-51690586D01*
X168200163Y-51690584D01*
X168287822Y-51559392D01*
X168399392Y-51447822D01*
X168530584Y-51360163D01*
X168530586Y-51360162D01*
X168676358Y-51299781D01*
X168831107Y-51269000D01*
X168988893Y-51269000D01*
X169143642Y-51299781D01*
X169143642Y-51299781D01*
G37*
G36*
X105623642Y-48759781D02*
G01*
X105769414Y-48820162D01*
X105769416Y-48820163D01*
X105900608Y-48907822D01*
X106012178Y-49019392D01*
X106099837Y-49150584D01*
X106099838Y-49150586D01*
X106160219Y-49296358D01*
X106191000Y-49451107D01*
X106191000Y-49608893D01*
X106160219Y-49763642D01*
X106099838Y-49909414D01*
X106099837Y-49909416D01*
X106012178Y-50040608D01*
X105900608Y-50152178D01*
X105769416Y-50239837D01*
X105769415Y-50239838D01*
X105769414Y-50239838D01*
X105623642Y-50300219D01*
X105468893Y-50331000D01*
X105311107Y-50331000D01*
X105156358Y-50300219D01*
X105010586Y-50239838D01*
X105010585Y-50239838D01*
X105010584Y-50239837D01*
X104879392Y-50152178D01*
X104767822Y-50040608D01*
X104680163Y-49909416D01*
X104680162Y-49909414D01*
X104619781Y-49763642D01*
X104589000Y-49608893D01*
X104589000Y-49451107D01*
X104619781Y-49296358D01*
X104680162Y-49150586D01*
X104680163Y-49150584D01*
X104767822Y-49019392D01*
X104879392Y-48907822D01*
X105010584Y-48820163D01*
X105010586Y-48820162D01*
X105156358Y-48759781D01*
X105311107Y-48729000D01*
X105468893Y-48729000D01*
X105623642Y-48759781D01*
X105623642Y-48759781D01*
G37*
G36*
X169143642Y-48759781D02*
G01*
X169289414Y-48820162D01*
X169289416Y-48820163D01*
X169420608Y-48907822D01*
X169532178Y-49019392D01*
X169619837Y-49150584D01*
X169619838Y-49150586D01*
X169680219Y-49296358D01*
X169711000Y-49451107D01*
X169711000Y-49608893D01*
X169680219Y-49763642D01*
X169619838Y-49909414D01*
X169619837Y-49909416D01*
X169532178Y-50040608D01*
X169420608Y-50152178D01*
X169289416Y-50239837D01*
X169289415Y-50239838D01*
X169289414Y-50239838D01*
X169143642Y-50300219D01*
X168988893Y-50331000D01*
X168831107Y-50331000D01*
X168676358Y-50300219D01*
X168530586Y-50239838D01*
X168530585Y-50239838D01*
X168530584Y-50239837D01*
X168399392Y-50152178D01*
X168287822Y-50040608D01*
X168200163Y-49909416D01*
X168200162Y-49909414D01*
X168139781Y-49763642D01*
X168109000Y-49608893D01*
X168109000Y-49451107D01*
X168139781Y-49296358D01*
X168200162Y-49150586D01*
X168200163Y-49150584D01*
X168287822Y-49019392D01*
X168399392Y-48907822D01*
X168530584Y-48820163D01*
X168530586Y-48820162D01*
X168676358Y-48759781D01*
X168831107Y-48729000D01*
X168988893Y-48729000D01*
X169143642Y-48759781D01*
X169143642Y-48759781D01*
G37*
G36*
X169143642Y-46219781D02*
G01*
X169289414Y-46280162D01*
X169289416Y-46280163D01*
X169420608Y-46367822D01*
X169532178Y-46479392D01*
X169619837Y-46610584D01*
X169619838Y-46610586D01*
X169680219Y-46756358D01*
X169711000Y-46911107D01*
X169711000Y-47068893D01*
X169680219Y-47223642D01*
X169619838Y-47369414D01*
X169619837Y-47369416D01*
X169532178Y-47500608D01*
X169420608Y-47612178D01*
X169289416Y-47699837D01*
X169289415Y-47699838D01*
X169289414Y-47699838D01*
X169143642Y-47760219D01*
X168988893Y-47791000D01*
X168831107Y-47791000D01*
X168676358Y-47760219D01*
X168530586Y-47699838D01*
X168530585Y-47699838D01*
X168530584Y-47699837D01*
X168399392Y-47612178D01*
X168287822Y-47500608D01*
X168200163Y-47369416D01*
X168200162Y-47369414D01*
X168139781Y-47223642D01*
X168109000Y-47068893D01*
X168109000Y-46911107D01*
X168139781Y-46756358D01*
X168200162Y-46610586D01*
X168200163Y-46610584D01*
X168287822Y-46479392D01*
X168399392Y-46367822D01*
X168530584Y-46280163D01*
X168530586Y-46280162D01*
X168676358Y-46219781D01*
X168831107Y-46189000D01*
X168988893Y-46189000D01*
X169143642Y-46219781D01*
X169143642Y-46219781D01*
G37*
G36*
X105623642Y-46219781D02*
G01*
X105769414Y-46280162D01*
X105769416Y-46280163D01*
X105900608Y-46367822D01*
X106012178Y-46479392D01*
X106099837Y-46610584D01*
X106099838Y-46610586D01*
X106160219Y-46756358D01*
X106191000Y-46911107D01*
X106191000Y-47068893D01*
X106160219Y-47223642D01*
X106099838Y-47369414D01*
X106099837Y-47369416D01*
X106012178Y-47500608D01*
X105900608Y-47612178D01*
X105769416Y-47699837D01*
X105769415Y-47699838D01*
X105769414Y-47699838D01*
X105623642Y-47760219D01*
X105468893Y-47791000D01*
X105311107Y-47791000D01*
X105156358Y-47760219D01*
X105010586Y-47699838D01*
X105010585Y-47699838D01*
X105010584Y-47699837D01*
X104879392Y-47612178D01*
X104767822Y-47500608D01*
X104680163Y-47369416D01*
X104680162Y-47369414D01*
X104619781Y-47223642D01*
X104589000Y-47068893D01*
X104589000Y-46911107D01*
X104619781Y-46756358D01*
X104680162Y-46610586D01*
X104680163Y-46610584D01*
X104767822Y-46479392D01*
X104879392Y-46367822D01*
X105010584Y-46280163D01*
X105010586Y-46280162D01*
X105156358Y-46219781D01*
X105311107Y-46189000D01*
X105468893Y-46189000D01*
X105623642Y-46219781D01*
X105623642Y-46219781D01*
G37*
G36*
X169143642Y-43679781D02*
G01*
X169289414Y-43740162D01*
X169289416Y-43740163D01*
X169420608Y-43827822D01*
X169532178Y-43939392D01*
X169619837Y-44070584D01*
X169619838Y-44070586D01*
X169680219Y-44216358D01*
X169711000Y-44371107D01*
X169711000Y-44528893D01*
X169680219Y-44683642D01*
X169619838Y-44829414D01*
X169619837Y-44829416D01*
X169532178Y-44960608D01*
X169420608Y-45072178D01*
X169289416Y-45159837D01*
X169289415Y-45159838D01*
X169289414Y-45159838D01*
X169143642Y-45220219D01*
X168988893Y-45251000D01*
X168831107Y-45251000D01*
X168676358Y-45220219D01*
X168530586Y-45159838D01*
X168530585Y-45159838D01*
X168530584Y-45159837D01*
X168399392Y-45072178D01*
X168287822Y-44960608D01*
X168200163Y-44829416D01*
X168200162Y-44829414D01*
X168139781Y-44683642D01*
X168109000Y-44528893D01*
X168109000Y-44371107D01*
X168139781Y-44216358D01*
X168200162Y-44070586D01*
X168200163Y-44070584D01*
X168287822Y-43939392D01*
X168399392Y-43827822D01*
X168530584Y-43740163D01*
X168530586Y-43740162D01*
X168676358Y-43679781D01*
X168831107Y-43649000D01*
X168988893Y-43649000D01*
X169143642Y-43679781D01*
X169143642Y-43679781D01*
G37*
G36*
X169143642Y-41139781D02*
G01*
X169289414Y-41200162D01*
X169289416Y-41200163D01*
X169420608Y-41287822D01*
X169532178Y-41399392D01*
X169619837Y-41530584D01*
X169619838Y-41530586D01*
X169680219Y-41676358D01*
X169711000Y-41831107D01*
X169711000Y-41988893D01*
X169680219Y-42143642D01*
X169619838Y-42289414D01*
X169619837Y-42289416D01*
X169532178Y-42420608D01*
X169420608Y-42532178D01*
X169289416Y-42619837D01*
X169289415Y-42619838D01*
X169289414Y-42619838D01*
X169143642Y-42680219D01*
X168988893Y-42711000D01*
X168831107Y-42711000D01*
X168676358Y-42680219D01*
X168530586Y-42619838D01*
X168530585Y-42619838D01*
X168530584Y-42619837D01*
X168399392Y-42532178D01*
X168287822Y-42420608D01*
X168200163Y-42289416D01*
X168200162Y-42289414D01*
X168139781Y-42143642D01*
X168109000Y-41988893D01*
X168109000Y-41831107D01*
X168139781Y-41676358D01*
X168200162Y-41530586D01*
X168200163Y-41530584D01*
X168287822Y-41399392D01*
X168399392Y-41287822D01*
X168530584Y-41200163D01*
X168530586Y-41200162D01*
X168676358Y-41139781D01*
X168831107Y-41109000D01*
X168988893Y-41109000D01*
X169143642Y-41139781D01*
X169143642Y-41139781D01*
G37*
G36*
X106808254Y-33047818D02*
G01*
X107181511Y-33202426D01*
X107181513Y-33202427D01*
X107517436Y-33426884D01*
X107803116Y-33712564D01*
X108027574Y-34048489D01*
X108182182Y-34421746D01*
X108261000Y-34817993D01*
X108261000Y-35222007D01*
X108182182Y-35618254D01*
X108027574Y-35991511D01*
X108027573Y-35991513D01*
X107803116Y-36327436D01*
X107517436Y-36613116D01*
X107181513Y-36837573D01*
X107181512Y-36837574D01*
X107181511Y-36837574D01*
X106808254Y-36992182D01*
X106412007Y-37071000D01*
X106007993Y-37071000D01*
X105611746Y-36992182D01*
X105238489Y-36837574D01*
X105238488Y-36837574D01*
X105238487Y-36837573D01*
X104902564Y-36613116D01*
X104616884Y-36327436D01*
X104392427Y-35991513D01*
X104392426Y-35991511D01*
X104237818Y-35618254D01*
X104159000Y-35222007D01*
X104159000Y-34817993D01*
X104237818Y-34421746D01*
X104392426Y-34048489D01*
X104616884Y-33712564D01*
X104902564Y-33426884D01*
X105238487Y-33202427D01*
X105238489Y-33202426D01*
X105611746Y-33047818D01*
X106007993Y-32969000D01*
X106412007Y-32969000D01*
X106808254Y-33047818D01*
X106808254Y-33047818D01*
G37*
G36*
X168008254Y-33047818D02*
G01*
X168381511Y-33202426D01*
X168381513Y-33202427D01*
X168717436Y-33426884D01*
X169003116Y-33712564D01*
X169227574Y-34048489D01*
X169382182Y-34421746D01*
X169461000Y-34817993D01*
X169461000Y-35222007D01*
X169382182Y-35618254D01*
X169227574Y-35991511D01*
X169227573Y-35991513D01*
X169003116Y-36327436D01*
X168717436Y-36613116D01*
X168381513Y-36837573D01*
X168381512Y-36837574D01*
X168381511Y-36837574D01*
X168008254Y-36992182D01*
X167612007Y-37071000D01*
X167207993Y-37071000D01*
X166811746Y-36992182D01*
X166438489Y-36837574D01*
X166438488Y-36837574D01*
X166438487Y-36837573D01*
X166102564Y-36613116D01*
X165816884Y-36327436D01*
X165592427Y-35991513D01*
X165592426Y-35991511D01*
X165437818Y-35618254D01*
X165359000Y-35222007D01*
X165359000Y-34817993D01*
X165437818Y-34421746D01*
X165592426Y-34048489D01*
X165816884Y-33712564D01*
X166102564Y-33426884D01*
X166438487Y-33202427D01*
X166438489Y-33202426D01*
X166811746Y-33047818D01*
X167207993Y-32969000D01*
X167612007Y-32969000D01*
X168008254Y-33047818D01*
X168008254Y-33047818D01*
G37*
M02*
