M48
INCH,TZ
T1C0.0157
T2C0.0300
T3C0.0315
T4C0.0354
T5C0.0394
T6C0.0433
T7C0.0512
T8C0.0787
T9C0.1063
%
G90
G05
T1
X43500Y-26500
X59500Y-41500
X59500Y-42500
X59997Y-47628
X64000Y-41500
X64000Y-42000
T2
X39000Y-51500
X40000Y-51500
X41000Y-51500
X50500Y-40500
X50500Y-50500
X51500Y-40500
X51500Y-50500
X52500Y-40500
X52500Y-50500
X53500Y-40500
X53500Y-50500
X54500Y-40500
X54500Y-50500
X55500Y-40500
X55500Y-50500
X56500Y-40500
X56500Y-50500
X57500Y-40500
X57500Y-50500
X58500Y-40500
X58500Y-50500
X59500Y-40500
X59500Y-50500
X60500Y-40500
X60500Y-50500
X61500Y-40500
X61500Y-50500
X62500Y-40500
X62500Y-50500
X63500Y-40500
X63500Y-50500
X64500Y-40500
X64500Y-50500
T3
X45000Y-39500
X45000Y-42500
X41000Y-39500
X41000Y-42500
X55500Y-33000
X55500Y-36000
X57000Y-38000
X60000Y-38000
X51500Y-33000
X51500Y-36000
X53500Y-33000
X53500Y-36000
X52500Y-38000
X55500Y-38000
X43000Y-39500
X43000Y-42500
X39000Y-39500
X39000Y-42500
X49031Y-38000
X51000Y-38000
T4
X50000Y-30500
X51000Y-30500
X56000Y-30500
X57000Y-30500
X53000Y-30500
X54000Y-30500
T5
X39000Y-24000
X39000Y-25000
X39000Y-26000
X39000Y-27000
X41492Y-18500
X41492Y-19500
X41492Y-20500
X41492Y-21500
X41492Y-22500
X66500Y-16500
X66500Y-17500
X66500Y-18500
X66500Y-19500
X66500Y-20500
X66500Y-21500
X66500Y-22500
X66500Y-23500
X66500Y-24500
X68500Y-24000
X68500Y-25000
X68500Y-26000
X68500Y-27000
X43300Y-46500
X45700Y-46500
T6
X58000Y-33500
X58000Y-35272
X60559Y-33500
X60559Y-35272
X42500Y-31500
X42500Y-33272
X45059Y-31500
X45059Y-33272
X42500Y-35500
X42500Y-37272
X45059Y-35500
X45059Y-37272
X38500Y-33500
X38500Y-35272
X41059Y-33500
X41059Y-35272
X46500Y-33500
X46500Y-35272
X49059Y-33500
X49059Y-35272
X66000Y-33500
X66000Y-35272
X68559Y-33500
X68559Y-35272
X62000Y-35500
X62000Y-37272
X64559Y-35500
X64559Y-37272
X62000Y-31500
X62000Y-33272
X64559Y-31500
X64559Y-33272
T7
X38500Y-45500
X38500Y-47469
X40469Y-46484
T8
X39500Y-57000
X67846Y-57000
T9
X41815Y-13787
X41815Y-27213
X65909Y-13787
X65909Y-27213
T0
M30
